<svg xmlns="http://www.w3.org/2000/svg" viewBox="0 0 5000 5000" width="80" height="80">
	<style>
		
		.anemo { fill: #a7f4cd } 
	</style>
	<path id="Path 0" fill-rule="evenodd" class="anemo" d="M1695 49.1C1698.86 49.09 1700.03 49.61 1703.21 52.79C1706.13 55.72 1706.92 57.29 1706.96 60.25C1706.99 62.96 1704.2 70.02 1696.89 85.75C1691.33 97.71 1683.29 115.38 1679.01 125C1674.74 134.63 1667.32 151.72 1662.52 163C1657.73 174.28 1650.2 192.5 1645.79 203.5C1641.39 214.5 1633.96 233.63 1629.28 246C1624.59 258.38 1616.74 279.98 1611.82 294C1606.9 308.02 1599.57 329.85 1595.52 342.5C1591.47 355.15 1585.17 375.63 1581.52 388C1577.87 400.38 1571.81 421.98 1568.05 436C1564.3 450.02 1558.74 472.07 1555.69 485C1552.64 497.93 1548.11 518.17 1545.62 530C1543.13 541.83 1539.08 562.52 1536.62 576C1534.15 589.48 1530.55 611.08 1528.61 624C1526.66 636.92 1523.95 656.5 1522.57 667.5C1521.19 678.5 1519.16 696.5 1518.06 707.5C1516.96 718.5 1515.38 736.5 1514.54 747.5C1513.71 758.5 1512.57 776.05 1512.01 786.5C1511.45 796.95 1510.71 822.15 1510.37 842.5C1509.99 864.58 1510.21 892.4 1510.9 911.5C1511.54 929.1 1512.72 953.17 1513.54 965C1514.36 976.83 1515.71 993.92 1516.55 1003C1517.38 1012.08 1519.2 1029.17 1520.58 1041C1521.96 1052.83 1524.67 1073.08 1526.6 1086C1528.54 1098.92 1532.13 1120.53 1534.59 1134C1537.05 1147.47 1541.28 1168.85 1544 1181.5C1546.72 1194.15 1551.39 1214.4 1554.39 1226.5C1557.39 1238.6 1562.15 1256.83 1564.97 1267C1567.79 1277.17 1572.98 1294.95 1576.51 1306.5C1580.04 1318.05 1586.71 1338.75 1591.34 1352.5C1595.97 1366.25 1604.15 1389.2 1609.51 1403.5C1614.88 1417.8 1623.66 1440.08 1629.02 1453C1634.39 1465.92 1642.38 1484.6 1646.78 1494.5C1651.17 1504.4 1659.12 1521.72 1664.44 1533C1669.76 1544.28 1680.32 1565.65 1687.9 1580.5C1695.49 1595.35 1706.88 1616.95 1713.21 1628.5C1719.55 1640.05 1730.48 1659.4 1737.5 1671.5C1744.52 1683.6 1756.79 1704.08 1764.77 1717C1772.75 1729.92 1789.28 1755.58 1801.52 1774C1813.75 1792.42 1831.3 1818.08 1840.5 1831C1849.71 1843.92 1864.99 1864.85 1874.46 1877.5C1883.93 1890.15 1899.29 1910.17 1908.61 1922C1917.92 1933.83 1931.08 1950.25 1937.85 1958.5C1944.63 1966.75 1956.82 1981.38 1964.95 1991C1973.08 2000.63 1986.82 2016.6 1995.48 2026.5C2004.15 2036.4 2019.62 2053.71 2029.87 2064.97C2040.11 2076.22 2056.58 2094 2066.45 2104.47C2076.32 2114.94 2098.82 2138.05 2116.45 2155.84C2134.08 2173.63 2161.1 2200.22 2176.5 2214.93C2191.9 2229.63 2211.04 2247.7 2219.04 2255.08C2227.04 2262.46 2242.11 2276.19 2252.54 2285.59C2268.7 2300.16 2271.68 2303.3 2272.75 2306.84C2273.66 2309.88 2273.71 2311.74 2272.94 2313.75C2272.35 2315.26 2270.66 2317.75 2269.19 2319.27C2267.71 2320.8 2265.15 2322.29 2263.5 2322.59C2261.6 2322.94 2249.3 2320.51 2230 2315.98C2213.22 2312.04 2185.32 2305.23 2168 2300.86C2150.68 2296.48 2124.13 2289.52 2109 2285.39C2093.88 2281.26 2069.8 2274.5 2055.5 2270.36C2041.2 2266.21 2016 2258.61 1999.5 2253.46C1983 2248.32 1960.05 2240.97 1948.5 2237.14C1936.95 2233.3 1917.6 2226.72 1905.5 2222.5C1893.4 2218.29 1870.22 2209.88 1854 2203.83C1837.78 2197.77 1812.13 2187.85 1797 2181.78C1781.88 2175.71 1757.8 2165.69 1743.5 2159.51C1729.2 2153.33 1707.38 2143.62 1695 2137.93C1682.63 2132.24 1658.1 2120.43 1640.5 2111.69C1622.9 2102.95 1601.3 2091.95 1592.5 2087.26C1583.7 2082.56 1567.28 2073.55 1556 2067.22C1544.72 2060.89 1525.38 2049.64 1513 2042.23C1500.63 2034.82 1480.6 2022.41 1468.5 2014.64C1456.4 2006.87 1436.83 1993.81 1425 1985.61C1413.17 1977.42 1394.72 1964.18 1384 1956.2C1373.28 1948.22 1357.97 1936.5 1350 1930.16C1342.03 1923.82 1327.63 1912.02 1318 1903.93C1308.38 1895.85 1293.08 1882.54 1284.01 1874.37C1274.95 1866.19 1257.68 1849.83 1245.65 1838C1233.61 1826.17 1217.12 1809.3 1208.99 1800.5C1200.87 1791.7 1188.71 1778.2 1181.98 1770.5C1175.25 1762.8 1163.57 1748.85 1156.03 1739.5C1148.49 1730.15 1136.29 1714.39 1128.91 1704.47C1121.54 1694.56 1110.27 1678.81 1103.87 1669.47C1097.48 1660.14 1087.16 1644.4 1080.95 1634.5C1074.73 1624.6 1064.47 1607.5 1058.14 1596.5C1051.82 1585.5 1040.28 1563.9 1032.5 1548.5C1024.72 1533.1 1014.4 1511.5 1009.55 1500.5C1004.71 1489.5 997.01 1471.05 992.46 1459.5C987.9 1447.95 981.25 1430.17 977.67 1420C974.1 1409.83 968.48 1392.72 965.18 1382C961.89 1371.28 957.08 1354.85 954.51 1345.5C951.94 1336.15 948.27 1321.97 946.36 1314C944.45 1306.03 941.31 1292.3 939.4 1283.5C937.48 1274.7 934.16 1257.83 932.02 1246C929.88 1234.17 926.76 1215.28 925.1 1204C923.44 1192.72 921.18 1176.08 920.07 1167C918.97 1157.92 917.17 1140.6 916.08 1128.5C914.98 1116.4 913.54 1097.72 912.87 1087C912.2 1076.28 911.65 1048.6 911.64 1025.5C911.63 1002.4 912.17 975.17 912.85 965C913.53 954.83 914.75 939.3 915.56 930.5C916.37 921.7 918.16 905.73 919.54 895C920.93 884.27 923.19 868.75 924.59 860.5C925.98 852.25 928.46 838.75 930.11 830.5C931.75 822.25 935.59 805.38 938.63 793C941.66 780.63 947.01 761.05 950.5 749.5C954 737.95 959.42 721.3 962.54 712.5C965.67 703.7 971.37 688.63 975.21 679C979.06 669.38 985.02 655.2 988.47 647.5C991.92 639.8 999.36 624.27 1005 613C1010.64 601.73 1018.65 586.42 1022.79 579C1026.94 571.58 1034.15 559.2 1038.82 551.5C1043.49 543.8 1052.55 529.63 1058.95 520C1065.35 510.38 1075.29 496.02 1081.04 488.11C1086.79 480.2 1098.2 465.35 1106.39 455.11C1114.57 444.87 1126.77 430.2 1133.49 422.5C1140.21 414.8 1153.12 400.63 1162.18 391C1171.23 381.38 1186.71 365.79 1196.57 356.37C1206.43 346.95 1221.03 333.44 1229 326.36C1236.97 319.28 1248.9 308.95 1255.5 303.42C1262.1 297.89 1274.03 288.18 1282 281.84C1289.97 275.5 1304.38 264.46 1314 257.31C1323.63 250.16 1339.83 238.53 1350 231.46C1360.17 224.39 1377.28 212.93 1388 205.99C1398.72 199.05 1416.28 188.05 1427 181.54C1437.72 175.03 1455.95 164.32 1467.5 157.73C1479.05 151.15 1499.53 139.88 1513 132.69C1526.47 125.5 1551 113.01 1567.5 104.94C1584 96.87 1607.17 85.86 1619 80.48C1630.83 75.09 1651.75 65.83 1665.5 59.9C1684.95 51.5 1691.5 49.1 1695 49.1ZM3276.88 50C3279.89 50 3287.55 52.81 3305.25 60.4C3318.59 66.12 3340.07 75.62 3353 81.5C3365.93 87.39 3389.55 98.6 3405.5 106.41C3421.45 114.23 3445.53 126.5 3459 133.69C3472.47 140.88 3492.95 152.15 3504.5 158.73C3516.05 165.32 3534.28 176.03 3545 182.54C3555.72 189.05 3573.28 200.05 3584 206.99C3594.72 213.93 3611.82 225.39 3622 232.46C3632.18 239.53 3648.38 251.16 3658 258.31C3667.63 265.46 3682.03 276.5 3690 282.84C3697.97 289.18 3709.9 298.89 3716.5 304.42C3723.1 309.95 3735.03 320.28 3743 327.36C3750.97 334.44 3765.57 347.95 3775.43 357.37C3785.29 366.79 3800.77 382.38 3809.82 392C3818.88 401.63 3831.79 415.8 3838.51 423.5C3845.23 431.2 3857.43 445.87 3865.61 456.11C3873.8 466.35 3885.21 481.2 3890.96 489.11C3896.71 497.02 3906.65 511.38 3913.05 521C3919.45 530.63 3928.51 544.8 3933.18 552.5C3937.85 560.2 3945.06 572.58 3949.21 580C3953.35 587.42 3961.36 602.73 3967 614C3972.64 625.27 3980.08 640.8 3983.53 648.5C3986.98 656.2 3992.94 670.38 3996.79 680C4000.63 689.63 4006.33 704.7 4009.46 713.5C4012.58 722.3 4018 738.95 4021.5 750.5C4024.99 762.05 4030.34 781.63 4033.37 794C4036.41 806.38 4040.25 823.25 4041.89 831.5C4043.54 839.75 4046.02 853.25 4047.41 861.5C4048.81 869.75 4051.07 885.27 4052.46 896C4053.84 906.73 4055.63 922.7 4056.44 931.5C4057.25 940.3 4058.47 955.83 4059.15 966C4059.83 976.17 4060.37 1003.4 4060.36 1026.5C4060.35 1049.6 4059.8 1077.28 4059.13 1088C4058.46 1098.72 4057.02 1117.4 4055.92 1129.5C4054.83 1141.6 4053.03 1158.92 4051.93 1168C4050.82 1177.08 4048.56 1193.72 4046.9 1205C4045.24 1216.28 4042.12 1235.17 4039.98 1247C4037.84 1258.83 4034.52 1275.7 4032.6 1284.5C4030.69 1293.3 4027.55 1307.03 4025.64 1315C4023.73 1322.97 4020.06 1337.15 4017.49 1346.5C4014.92 1355.85 4010.11 1372.28 4006.82 1383C4003.52 1393.72 3997.9 1410.83 3994.33 1421C3990.75 1431.17 3984.1 1448.95 3979.54 1460.5C3974.99 1472.05 3967.29 1490.5 3962.45 1501.5C3957.6 1512.5 3947.28 1534.1 3939.5 1549.5C3931.72 1564.9 3920.18 1586.5 3913.86 1597.5C3907.53 1608.5 3897.27 1625.6 3891.05 1635.5C3884.84 1645.4 3874.52 1661.14 3868.13 1670.47C3861.73 1679.81 3850.46 1695.56 3843.09 1705.47C3835.71 1715.39 3823.51 1731.15 3815.97 1740.5C3808.43 1749.85 3796.75 1763.8 3790.02 1771.5C3783.29 1779.2 3771.13 1792.7 3763.01 1801.5C3754.88 1810.3 3738.39 1827.17 3726.35 1839C3714.32 1850.83 3697.05 1867.19 3687.99 1875.37C3678.92 1883.54 3663.63 1896.85 3654 1904.93C3644.38 1913.02 3629.97 1924.82 3622 1931.16C3614.03 1937.5 3598.72 1949.22 3588 1957.2C3577.28 1965.18 3558.82 1978.42 3547 1986.61C3535.18 1994.81 3515.6 2007.87 3503.5 2015.64C3491.4 2023.41 3471.38 2035.82 3459 2043.23C3446.63 2050.64 3427.28 2061.89 3416 2068.22C3404.72 2074.55 3388.3 2083.56 3379.5 2088.26C3370.7 2092.95 3349.1 2103.95 3331.5 2112.69C3313.9 2121.43 3289.38 2133.24 3277 2138.93C3264.63 2144.62 3242.8 2154.33 3228.5 2160.51C3214.2 2166.69 3190.13 2176.71 3175 2182.78C3159.88 2188.85 3134.22 2198.77 3118 2204.83C3101.78 2210.88 3078.6 2219.29 3066.5 2223.5C3054.4 2227.72 3035.05 2234.3 3023.5 2238.14C3011.95 2241.97 2989 2249.32 2972.5 2254.46C2956 2259.61 2930.8 2267.21 2916.5 2271.36C2902.2 2275.5 2878.13 2282.26 2863 2286.39C2847.88 2290.52 2821.32 2297.48 2804 2301.86C2786.68 2306.23 2758.78 2313.04 2742 2316.98C2722.7 2321.51 2710.4 2323.94 2708.5 2323.59C2706.85 2323.29 2704.29 2321.8 2702.81 2320.27C2701.34 2318.75 2699.65 2316.26 2699.06 2314.75C2698.29 2312.74 2698.34 2310.88 2699.25 2307.84C2700.32 2304.3 2703.3 2301.16 2719.46 2286.59C2729.89 2277.19 2744.96 2263.46 2752.96 2256.08C2760.96 2248.7 2780.1 2230.63 2795.5 2215.93C2810.9 2201.22 2837.92 2174.63 2855.55 2156.84C2873.18 2139.05 2895.68 2115.94 2905.55 2105.47C2915.42 2095 2931.89 2077.22 2942.13 2065.97C2952.38 2054.71 2967.85 2037.4 2976.52 2027.5C2985.18 2017.6 2998.92 2001.63 3007.05 1992C3015.18 1982.38 3027.37 1967.75 3034.15 1959.5C3040.92 1951.25 3054.08 1934.83 3063.39 1923C3072.71 1911.17 3088.07 1891.15 3097.54 1878.5C3107.01 1865.85 3122.29 1844.92 3131.5 1832C3140.7 1819.08 3158.25 1793.42 3170.48 1775C3182.72 1756.58 3199.25 1730.92 3207.23 1718C3215.21 1705.08 3227.48 1684.6 3234.5 1672.5C3241.52 1660.4 3252.45 1641.05 3258.79 1629.5C3265.12 1617.95 3276.51 1596.35 3284.1 1581.5C3291.68 1566.65 3302.24 1545.28 3307.56 1534C3312.88 1522.72 3320.83 1505.4 3325.22 1495.5C3329.62 1485.6 3337.61 1466.92 3342.98 1454C3348.34 1441.08 3357.12 1418.8 3362.49 1404.5C3367.85 1390.2 3376.03 1367.25 3380.66 1353.5C3385.29 1339.75 3391.96 1319.05 3395.49 1307.5C3399.02 1295.95 3404.21 1278.17 3407.03 1268C3409.85 1257.83 3414.61 1239.6 3417.61 1227.5C3420.61 1215.4 3425.28 1195.15 3428 1182.5C3430.72 1169.85 3434.95 1148.47 3437.41 1135C3439.87 1121.53 3443.46 1099.92 3445.4 1087C3447.33 1074.08 3450.04 1053.83 3451.42 1042C3452.8 1030.17 3454.62 1013.08 3455.45 1004C3456.29 994.92 3457.64 977.83 3458.46 966C3459.28 954.17 3460.46 930.1 3461.1 912.5C3461.79 893.4 3462.01 865.58 3461.63 843.5C3461.29 823.15 3460.55 797.95 3459.99 787.5C3459.43 777.05 3458.29 759.5 3457.46 748.5C3456.62 737.5 3455.04 719.5 3453.94 708.5C3452.84 697.5 3450.81 679.5 3449.43 668.5C3448.05 657.5 3445.34 637.92 3443.39 625C3441.45 612.08 3437.85 590.48 3435.38 577C3432.92 563.52 3428.87 542.83 3426.38 531C3423.89 519.17 3419.36 498.93 3416.31 486C3413.26 473.07 3407.7 451.02 3403.95 437C3400.19 422.98 3394.13 401.38 3390.48 389C3386.83 376.63 3380.53 356.15 3376.48 343.5C3372.43 330.85 3365.1 309.02 3360.18 295C3355.26 280.98 3347.41 259.38 3342.72 247C3338.04 234.63 3330.61 215.5 3326.21 204.5C3321.8 193.5 3314.27 175.28 3309.48 164C3304.68 152.72 3297.26 135.63 3292.99 126C3288.71 116.38 3280.67 98.71 3275.11 86.75C3267.72 70.85 3265.03 64.03 3265.12 61.38C3265.21 58.64 3266.15 56.82 3269 53.88C3272.17 50.61 3273.41 50 3276.88 50ZM638.5 733.54C640.15 733.83 642.51 734.73 643.75 735.54C644.99 736.34 646.64 738.01 647.42 739.25C648.2 740.49 651.83 757.92 655.49 778C659.14 798.08 665.22 830.02 669 849C672.77 867.98 678.62 896.33 682 912C685.37 927.67 691.3 954.23 695.16 971C699.02 987.77 705.49 1014.77 709.52 1031C713.56 1047.22 720.3 1073.33 724.49 1089C728.69 1104.67 734.82 1126.95 738.12 1138.5C741.43 1150.05 747.73 1171.42 752.13 1186C756.53 1200.58 766.35 1231.17 773.96 1254C781.57 1276.83 791.94 1306.75 797 1320.5C802.07 1334.25 810.38 1356.08 815.48 1369C820.58 1381.92 828.25 1400.83 832.52 1411C836.79 1421.17 844 1437.83 848.53 1448C853.06 1458.17 862.02 1477.53 868.43 1491C874.84 1504.47 885.77 1526.3 892.71 1539.5C899.65 1552.7 910.66 1572.84 917.17 1584.25C923.67 1595.66 933.78 1612.76 939.63 1622.25C945.47 1631.74 955.97 1648.05 962.95 1658.5C969.93 1668.95 978.72 1681.78 982.49 1687C986.26 1692.22 993.4 1701.9 998.36 1708.5C1003.32 1715.1 1011.9 1726.13 1017.43 1733C1022.96 1739.88 1031.96 1750.67 1037.43 1757C1042.9 1763.33 1053.9 1775.7 1061.88 1784.5C1069.86 1793.3 1091.04 1815.16 1108.95 1833.08C1126.85 1851 1149.6 1873.06 1159.5 1882.1C1169.4 1891.15 1184.7 1904.84 1193.5 1912.53C1202.3 1920.22 1217.38 1933.07 1227 1941.08C1236.63 1949.09 1252.38 1961.93 1262 1969.62C1271.63 1977.31 1287.15 1989.45 1296.5 1996.61C1305.85 2003.77 1322.72 2016.39 1334 2024.66C1345.28 2032.93 1364.63 2046.79 1377 2055.47C1389.38 2064.14 1410.75 2078.76 1424.5 2087.95C1438.25 2097.14 1457.6 2109.85 1467.5 2116.2C1477.4 2122.55 1495.63 2134.02 1508 2141.7C1520.38 2149.38 1542.2 2162.65 1556.5 2171.17C1570.8 2179.7 1595.55 2194.12 1611.5 2203.21C1627.45 2212.3 1649.95 2224.92 1661.5 2231.25C1673.05 2237.57 1692.17 2247.92 1704 2254.24C1715.83 2260.55 1741.03 2273.73 1760 2283.52C1778.97 2293.3 1818.13 2312.85 1847 2326.95C1875.88 2341.05 1911.88 2359.05 1927 2366.94C1942.13 2374.83 1963.5 2386.24 1974.5 2392.28C1985.5 2398.32 2005.08 2409.34 2018 2416.78C2030.92 2424.21 2050.72 2435.93 2062 2442.81C2073.28 2449.7 2092.18 2461.6 2104 2469.27C2115.82 2476.93 2134.95 2489.74 2146.5 2497.74C2158.05 2505.75 2176.28 2518.82 2187 2526.8C2197.72 2534.78 2213.93 2547.23 2223 2554.47C2232.07 2561.7 2245.35 2572.58 2252.5 2578.64C2259.65 2584.7 2272.7 2596.15 2281.5 2604.08C2290.3 2612.01 2306.5 2627.52 2317.5 2638.54C2328.5 2649.56 2342.72 2664.41 2349.1 2671.54C2355.48 2678.67 2365.76 2690.57 2371.96 2698C2378.15 2705.43 2388.28 2718.25 2394.47 2726.5C2400.65 2734.75 2410.11 2748.03 2415.48 2756C2420.85 2763.97 2429.93 2778.38 2435.66 2788C2441.4 2797.63 2450.54 2814.5 2455.99 2825.5C2462.97 2839.58 2468.32 2852.31 2474.06 2868.5C2478.55 2881.15 2482.96 2894.53 2483.86 2898.24C2484.76 2901.95 2485.84 2904.99 2486.25 2904.99C2486.66 2905 2487.73 2902.41 2488.62 2899.25C2489.51 2896.09 2494.72 2880.9 2500.2 2865.5C2507.9 2843.89 2512.18 2833.62 2518.93 2820.5C2523.75 2811.15 2531.98 2796.3 2537.23 2787.5C2542.48 2778.7 2551.16 2764.97 2556.53 2757C2561.89 2749.03 2571.35 2735.75 2577.55 2727.5C2583.75 2719.25 2594.64 2705.53 2601.76 2697C2608.89 2688.47 2620.26 2675.43 2627.05 2668C2633.83 2660.57 2647.3 2646.63 2656.98 2637C2666.67 2627.38 2681.77 2613.01 2690.54 2605.08C2699.32 2597.15 2712.35 2585.7 2719.5 2579.64C2726.65 2573.58 2739.93 2562.7 2749 2555.47C2758.07 2548.23 2774.28 2535.79 2785 2527.82C2795.72 2519.85 2812.15 2507.99 2821.5 2501.46C2830.85 2494.93 2847.5 2483.69 2858.5 2476.48C2869.5 2469.26 2887.95 2457.49 2899.5 2450.31C2911.05 2443.13 2929.72 2431.87 2941 2425.28C2952.28 2418.69 2971.85 2407.54 2984.5 2400.49C2997.15 2393.44 3017.63 2382.31 3030 2375.75C3042.38 2369.19 3070.28 2355.06 3092 2344.35C3113.72 2333.63 3149.5 2315.89 3171.5 2304.92C3193.5 2293.96 3226.13 2277.29 3244 2267.9C3261.88 2258.5 3289.32 2243.8 3305 2235.24C3320.68 2226.67 3347 2211.94 3363.5 2202.5C3380 2193.07 3404.3 2178.89 3417.5 2171C3430.7 2163.12 3453.2 2149.39 3467.5 2140.49C3481.8 2131.59 3501.38 2119.23 3511 2113C3520.63 2106.78 3538.4 2095.06 3550.5 2086.96C3562.6 2078.86 3582.63 2065.14 3595 2056.46C3607.38 2047.79 3626.72 2033.93 3638 2025.66C3649.28 2017.39 3666.15 2004.77 3675.5 1997.61C3684.85 1990.44 3701.5 1977.38 3712.5 1968.58C3723.5 1959.77 3739.47 1946.74 3748 1939.61C3756.53 1932.48 3770.47 1920.55 3779 1913.09C3787.53 1905.63 3802.6 1892.13 3812.5 1883.09C3822.4 1874.05 3845.15 1852 3863.05 1834.08C3880.96 1816.16 3902.14 1794.3 3910.12 1785.5C3918.1 1776.7 3929.1 1764.33 3934.57 1758C3940.04 1751.67 3949.04 1740.88 3954.57 1734C3960.1 1727.13 3968.68 1716.1 3973.64 1709.5C3978.6 1702.9 3985.58 1693.45 3989.15 1688.5C3992.73 1683.55 4001.51 1670.72 4008.66 1660C4015.81 1649.28 4025.86 1633.75 4031.01 1625.5C4036.15 1617.25 4046.27 1600.15 4053.51 1587.5C4060.75 1574.85 4072 1554.38 4078.52 1542C4085.03 1529.63 4094.38 1511.17 4099.28 1501C4104.19 1490.83 4112.6 1472.83 4117.98 1461C4123.36 1449.17 4131.23 1431.4 4135.47 1421.5C4139.71 1411.6 4148.27 1390.67 4154.5 1375C4160.72 1359.33 4169.95 1335.25 4175.01 1321.5C4180.07 1307.75 4190.43 1277.83 4198.04 1255C4205.65 1232.17 4215.47 1201.58 4219.87 1187C4224.27 1172.42 4230.57 1151.05 4233.88 1139.5C4237.18 1127.95 4243.31 1105.67 4247.51 1090C4251.7 1074.33 4258.44 1048.22 4262.48 1032C4266.51 1015.77 4272.98 988.77 4276.84 972C4280.7 955.23 4286.63 928.67 4290 913C4293.37 897.33 4299.01 870.1 4302.52 852.5C4306.03 834.9 4312.08 803.29 4315.95 782.25C4319.83 761.21 4323.41 743.21 4323.91 742.25C4324.41 741.29 4326.02 739.38 4327.49 738C4329.58 736.04 4331.22 735.5 4335.01 735.5C4338.38 735.5 4340.71 736.14 4342.68 737.61C4344.67 739.11 4348.64 746.27 4356.23 762.11C4362.13 774.43 4370.63 792.38 4375.13 802C4379.62 811.63 4388.68 831.42 4395.25 846C4401.82 860.58 4412.6 885.1 4419.21 900.5C4425.81 915.9 4435.86 939.98 4441.54 954C4447.21 968.02 4455.66 989.4 4460.31 1001.5C4464.95 1013.6 4472.59 1034.08 4477.28 1047C4481.97 1059.92 4489.7 1081.97 4494.45 1096C4499.21 1110.03 4507.11 1134.55 4512.02 1150.5C4516.92 1166.45 4523.45 1188.5 4526.51 1199.5C4529.58 1210.5 4534.98 1230.97 4538.5 1245C4542.03 1259.03 4547.14 1280.63 4549.86 1293C4552.58 1305.38 4556.18 1322.7 4557.86 1331.5C4559.54 1340.3 4562.27 1355.6 4563.91 1365.5C4565.56 1375.4 4568.03 1391.6 4569.4 1401.5C4570.77 1411.4 4572.58 1425.8 4573.43 1433.5C4574.29 1441.2 4575.66 1455.6 4576.49 1465.5C4577.31 1475.4 4578.44 1493.17 4578.99 1505C4579.54 1516.83 4579.99 1535.95 4579.98 1547.5C4579.98 1559.05 4579.53 1577.28 4578.99 1588C4578.44 1598.72 4577.3 1615.15 4576.46 1624.5C4575.61 1633.85 4573.6 1650.72 4571.99 1662C4570.38 1673.28 4567.47 1690.38 4565.54 1700C4563.6 1709.63 4560.25 1724.47 4558.08 1733C4555.92 1741.53 4552.06 1755.25 4549.49 1763.5C4546.93 1771.75 4542.46 1785.03 4539.57 1793C4536.67 1800.97 4531.48 1814.03 4528.03 1822C4524.58 1829.97 4518.21 1843.59 4513.88 1852.25C4509.55 1860.91 4499.86 1878.69 4492.36 1891.75C4484.86 1904.81 4473.32 1924.28 4466.71 1935C4460.1 1945.72 4448.33 1964.17 4440.55 1976C4432.77 1987.83 4421.51 2004.47 4415.53 2013C4409.54 2021.53 4398.76 2036.38 4391.57 2046C4384.39 2055.63 4372.93 2070.47 4366.11 2079C4359.29 2087.53 4347.32 2101.93 4339.5 2111C4331.69 2120.07 4319 2134.25 4311.29 2142.5C4303.59 2150.75 4288.34 2166.28 4277.39 2177C4266.44 2187.72 4251.64 2201.62 4244.49 2207.88C4237.35 2214.15 4225.88 2223.86 4219 2229.48C4212.13 2235.1 4199.07 2245.21 4190 2251.96C4180.93 2258.7 4165.85 2269.29 4156.5 2275.48C4147.15 2281.68 4132.75 2290.7 4124.5 2295.54C4116.25 2300.38 4101.4 2308.51 4091.5 2313.62C4081.6 2318.72 4066.53 2326.01 4058 2329.81C4049.47 2333.61 4034.85 2339.64 4025.5 2343.23C4016.15 2346.81 3992.75 2354.95 3973.5 2361.31C3954.25 2367.68 3928.15 2376.09 3915.5 2380.01C3902.85 2383.92 3879.45 2390.9 3863.5 2395.51C3847.55 2400.12 3824.15 2406.66 3811.5 2410.04C3798.85 2413.42 3776.8 2419.04 3762.5 2422.52C3748.2 2426.01 3726.38 2431.11 3714 2433.87C3701.63 2436.63 3678.9 2441.36 3663.5 2444.38C3648.1 2447.4 3623.13 2451.94 3608 2454.47C3592.88 2457 3569.03 2460.61 3555 2462.5C3540.97 2464.38 3514.43 2467.52 3496 2469.47C3477.57 2471.42 3450.35 2474.63 3435.5 2476.6C3420.65 2478.57 3396.8 2482.14 3382.5 2484.54C3368.2 2486.94 3347.28 2490.75 3336 2493C3324.72 2495.25 3308.53 2498.67 3300 2500.6C3291.47 2502.52 3274.82 2506.54 3263 2509.53C3251.18 2512.52 3234.3 2517.02 3225.5 2519.53C3216.7 2522.04 3200.95 2526.75 3190.5 2530C3180.05 2533.24 3163.85 2538.58 3154.5 2541.85C3145.15 2545.12 3131.88 2549.91 3125 2552.48C3118.13 2555.05 3105.75 2559.88 3097.5 2563.22C3089.25 2566.55 3076.43 2571.96 3069 2575.23C3061.57 2578.51 3046.95 2585.38 3036.5 2590.51C3026.05 2595.64 3011.2 2603.29 3003.5 2607.52C2995.8 2611.75 2982.97 2619.05 2975 2623.75C2967.03 2628.45 2953.07 2637.02 2944 2642.8C2934.93 2648.57 2920.3 2658.26 2911.5 2664.32C2902.7 2670.39 2886.95 2681.71 2876.5 2689.48C2866.05 2697.25 2848.5 2710.83 2837.5 2719.66C2826.5 2728.5 2810.97 2741.34 2803 2748.21C2795.03 2755.08 2783.1 2765.56 2776.5 2771.5C2769.9 2777.43 2754.15 2792.1 2741.5 2804.1C2728.85 2816.09 2713.24 2831.67 2706.82 2838.7C2700.39 2845.74 2692.51 2854.65 2689.3 2858.5C2686.09 2862.35 2680.07 2870 2675.91 2875.5C2671.75 2881 2664.73 2890.9 2660.31 2897.5C2655.89 2904.1 2648.77 2915.57 2644.48 2923C2640.19 2930.43 2633.43 2943.25 2629.46 2951.5C2625.49 2959.75 2619.75 2972.8 2616.72 2980.5C2613.68 2988.2 2609.1 3001.03 2606.54 3009C2603.97 3016.97 2600.09 3030.7 2597.92 3039.5C2595.74 3048.3 2592.88 3061.35 2591.56 3068.5C2590.24 3075.65 2588.23 3088.93 2587.1 3098C2585.97 3107.07 2584.59 3120.8 2584.03 3128.5C2583.47 3136.2 2583.01 3155.1 2583.01 3170.5C2583.02 3185.9 2583.47 3205.03 2584.02 3213C2584.57 3220.97 2585.71 3234.03 2586.55 3242C2587.39 3249.97 2589.21 3264.38 2590.61 3274C2592 3283.63 2594.72 3299.15 2596.65 3308.5C2598.57 3317.85 2602.14 3332.36 2604.58 3340.75C2607.01 3349.14 2611.31 3362.19 2614.13 3369.75C2616.95 3377.31 2621.91 3389.35 2625.15 3396.5C2628.39 3403.65 2634.03 3414.9 2637.67 3421.5C2641.31 3428.1 2647.43 3438.45 2651.26 3444.5C2655.1 3450.55 2662.08 3460.68 2666.78 3467C2671.48 3473.32 2678.74 3482.55 2682.91 3487.5C2687.08 3492.45 2696.12 3502.29 2703 3509.36C2709.87 3516.44 2720.45 3526.61 2726.5 3531.95C2732.55 3537.3 2742.28 3545.46 2748.13 3550.09C2753.98 3554.72 2764.89 3562.78 2772.37 3568C2779.86 3573.22 2793.98 3582.35 2803.74 3588.27C2813.51 3594.19 2832.53 3604.58 2846 3611.34C2859.47 3618.11 2879.05 3627.27 2889.5 3631.7C2899.95 3636.14 2917.72 3643.16 2929 3647.3C2940.28 3651.45 2958.28 3657.6 2969 3660.97C2979.72 3664.34 2997.61 3669.55 3029 3678L3057.25 3661.35C3072.79 3652.19 3097.88 3637.27 3113 3628.19C3128.13 3619.12 3144.95 3608.73 3150.39 3605.1C3155.82 3601.47 3161.9 3597.64 3163.89 3596.6C3167.3 3594.8 3168.42 3594.76 3184.5 3595.88C3193.85 3596.54 3209.38 3597.74 3219 3598.54C3228.63 3599.35 3246.63 3601.16 3259 3602.56C3271.38 3603.96 3289.15 3606.4 3298.5 3607.97C3307.85 3609.55 3320 3611.97 3325.5 3613.36C3331 3614.75 3338.88 3617.09 3343 3618.56C3347.13 3620.04 3352.3 3622.29 3354.5 3623.56C3356.7 3624.83 3359.45 3626.92 3360.61 3628.19C3361.77 3629.46 3363.24 3631.96 3363.86 3633.75C3364.79 3636.41 3364.68 3637.81 3363.25 3641.43C3361.84 3645.01 3358.01 3649.03 3343.51 3662.18C3333.62 3671.16 3321.25 3682.52 3316.01 3687.43C3310.78 3692.34 3290.75 3711.54 3271.5 3730.1C3252.25 3748.65 3221.62 3779.28 3203.43 3798.17C3185.25 3817.05 3166.35 3836.78 3161.43 3842C3156.52 3847.23 3143.5 3861.4 3132.5 3873.5C3121.5 3885.6 3105.95 3902.93 3097.95 3912C3089.95 3921.07 3076.64 3936.38 3068.37 3946C3060.1 3955.63 3045.08 3973.4 3034.98 3985.5C3024.89 3997.6 3006.02 4020.78 2993.05 4037C2980.08 4053.22 2960.65 4077.97 2949.88 4092C2939.1 4106.02 2921.98 4128.75 2911.83 4142.5C2901.67 4156.25 2885.49 4178.52 2875.87 4192C2866.24 4205.48 2851.84 4225.95 2843.86 4237.5C2835.87 4249.05 2820.79 4271.32 2810.33 4287C2799.87 4302.68 2784.79 4325.63 2776.81 4338C2768.83 4350.38 2754.44 4373.1 2744.83 4388.5C2735.23 4403.9 2718.35 4431.57 2707.33 4450C2696.31 4468.43 2680.32 4495.65 2671.8 4510.5C2663.28 4525.35 2649.56 4549.65 2641.32 4564.5C2633.07 4579.35 2621.12 4601.18 2614.76 4613C2608.4 4624.82 2596.6 4647.1 2588.54 4662.5C2580.48 4677.9 2562.93 4712.55 2549.55 4739.5C2536.18 4766.45 2519.95 4799.75 2513.5 4813.5C2507.04 4827.25 2500.81 4839.55 2499.63 4840.84C2498.46 4842.12 2495.93 4843.83 2494 4844.62C2491.5 4845.66 2489.78 4845.8 2488 4845.11C2486.63 4844.58 2483.25 4843.92 2480.5 4843.63C2476.72 4843.24 2474.85 4842.43 2472.85 4840.31C2471.4 4838.76 2464.93 4826.25 2458.49 4812.5C2452.04 4798.75 2435.82 4765.45 2422.45 4738.5C2409.07 4711.55 2391.52 4676.9 2383.46 4661.5C2375.4 4646.1 2363.6 4623.82 2357.24 4612C2350.88 4600.18 2338.93 4578.35 2330.68 4563.5C2322.44 4548.65 2308.72 4524.35 2300.2 4509.5C2291.68 4494.65 2275.69 4467.43 2264.67 4449C2253.65 4430.57 2236.77 4402.9 2227.17 4387.5C2217.56 4372.1 2203.17 4349.38 2195.19 4337C2187.21 4324.63 2172.13 4301.68 2161.67 4286C2151.21 4270.32 2136.13 4248.05 2128.14 4236.5C2120.16 4224.95 2105.76 4204.48 2096.13 4191C2086.51 4177.52 2070.33 4155.25 2060.17 4141.5C2050.02 4127.75 2032.9 4105.02 2022.12 4091C2011.35 4076.97 1991.92 4052.22 1978.95 4036C1965.98 4019.78 1947.11 3996.6 1937.02 3984.5C1926.92 3972.4 1911.9 3954.63 1903.63 3945C1895.36 3935.38 1882.05 3920.07 1874.05 3911C1866.05 3901.93 1850.5 3884.6 1839.5 3872.5C1828.5 3860.4 1815.48 3846.23 1810.57 3841C1805.65 3835.78 1786.75 3816.05 1768.57 3797.17C1750.38 3778.28 1719.75 3747.65 1700.5 3729.1C1681.25 3710.54 1661.22 3691.34 1655.99 3686.43C1650.75 3681.52 1638.38 3670.16 1628.49 3661.18C1613.99 3648.03 1610.16 3644.01 1608.75 3640.43C1607.32 3636.81 1607.21 3635.41 1608.14 3632.75C1608.76 3630.96 1610.23 3628.46 1611.39 3627.19C1612.55 3625.92 1615.3 3623.83 1617.5 3622.56C1619.7 3621.29 1624.88 3619.04 1629 3617.56C1633.13 3616.09 1641 3613.75 1646.5 3612.36C1652 3610.97 1664.15 3608.55 1673.5 3606.97C1682.85 3605.4 1700.63 3602.96 1713 3601.56C1725.38 3600.16 1743.38 3598.35 1753 3597.54C1762.63 3596.74 1778.15 3595.54 1787.5 3594.88C1803.58 3593.76 1804.7 3593.8 1808.11 3595.6C1810.1 3596.64 1816.18 3600.47 1821.61 3604.1C1827.05 3607.73 1843.88 3618.12 1859 3627.19C1874.13 3636.27 1899.21 3651.19 1943 3677L1963.25 3671.55C1974.39 3668.55 1992.28 3663.34 2003 3659.97C2013.72 3656.6 2031.72 3650.45 2043 3646.3C2054.28 3642.16 2072.05 3635.14 2082.5 3630.7C2092.95 3626.27 2112.53 3617.11 2126 3610.34C2139.47 3603.58 2158.49 3593.19 2168.26 3587.27C2178.02 3581.35 2192.14 3572.22 2199.63 3567C2207.11 3561.78 2218.02 3553.72 2223.87 3549.09C2229.72 3544.46 2239.45 3536.3 2245.5 3530.95C2251.55 3525.61 2262.13 3515.44 2269 3508.36C2275.88 3501.29 2284.92 3491.45 2289.09 3486.5C2293.26 3481.55 2300.52 3472.32 2305.22 3466C2309.92 3459.68 2316.9 3449.55 2320.74 3443.5C2324.57 3437.45 2330.69 3427.1 2334.33 3420.5C2337.97 3413.9 2343.61 3402.65 2346.85 3395.5C2350.09 3388.35 2355.05 3376.31 2357.87 3368.75C2360.69 3361.19 2364.99 3348.14 2367.42 3339.75C2369.86 3331.36 2373.43 3316.85 2375.35 3307.5C2377.28 3298.15 2380 3282.63 2381.39 3273C2382.79 3263.38 2384.61 3248.97 2385.45 3241C2386.29 3233.03 2387.43 3219.97 2387.98 3212C2388.53 3204.03 2388.98 3184.9 2388.99 3169.5C2388.99 3154.1 2388.53 3135.2 2387.97 3127.5C2387.41 3119.8 2386.03 3106.07 2384.9 3097C2383.77 3087.93 2381.76 3074.65 2380.44 3067.5C2379.12 3060.35 2376.26 3047.3 2374.08 3038.5C2371.91 3029.7 2368.03 3015.97 2365.46 3008C2362.9 3000.03 2358.32 2987.2 2355.28 2979.5C2352.25 2971.8 2346.51 2958.75 2342.54 2950.5C2338.57 2942.25 2331.81 2929.43 2327.52 2922C2323.23 2914.57 2316.11 2903.1 2311.69 2896.5C2307.27 2889.9 2300.25 2880 2296.09 2874.5C2291.93 2869 2285.91 2861.35 2282.7 2857.5C2279.49 2853.65 2271.61 2844.74 2265.18 2837.7C2258.76 2830.67 2243.15 2815.09 2230.5 2803.1C2217.85 2791.1 2202.1 2776.43 2195.5 2770.5C2188.9 2764.56 2176.97 2754.08 2169 2747.21C2161.03 2740.34 2145.5 2727.5 2134.5 2718.66C2123.5 2709.83 2105.95 2696.25 2095.5 2688.48C2085.05 2680.71 2069.3 2669.39 2060.5 2663.32C2051.7 2657.26 2037.08 2647.57 2028 2641.8C2018.92 2636.02 2004.97 2627.45 1997 2622.75C1989.03 2618.05 1976.2 2610.75 1968.5 2606.52C1960.8 2602.29 1945.95 2594.64 1935.5 2589.51C1925.05 2584.38 1910.42 2577.51 1903 2574.23C1895.58 2570.96 1882.75 2565.55 1874.5 2562.22C1866.25 2558.88 1853.88 2554.05 1847 2551.48C1840.13 2548.91 1826.85 2544.12 1817.5 2540.85C1808.15 2537.58 1791.95 2532.24 1781.5 2529C1771.05 2525.75 1755.3 2521.04 1746.5 2518.53C1737.7 2516.02 1720.83 2511.52 1709 2508.53C1697.17 2505.54 1680.53 2501.52 1672 2499.6C1663.47 2497.67 1647.28 2494.25 1636 2492C1624.72 2489.75 1603.8 2485.94 1589.5 2483.54C1575.2 2481.14 1551.35 2477.57 1536.5 2475.6C1521.65 2473.63 1494.42 2470.42 1476 2468.47C1457.58 2466.52 1431.03 2463.38 1417 2461.5C1402.97 2459.61 1379.13 2456 1364 2453.47C1348.88 2450.94 1323.9 2446.4 1308.5 2443.38C1293.1 2440.36 1270.38 2435.63 1258 2432.87C1245.63 2430.11 1223.8 2425.01 1209.5 2421.52C1195.2 2418.04 1173.15 2412.42 1160.5 2409.04C1147.85 2405.66 1124.45 2399.12 1108.5 2394.51C1092.55 2389.9 1069.15 2382.92 1056.5 2379.01C1043.85 2375.09 1017.75 2366.68 998.5 2360.31C979.25 2353.95 955.85 2345.81 946.5 2342.23C937.15 2338.64 922.52 2332.61 914 2328.81C905.48 2325.01 890.4 2317.72 880.5 2312.62C870.6 2307.51 855.75 2299.38 847.5 2294.54C839.25 2289.7 824.85 2280.68 815.5 2274.48C806.15 2268.29 791.08 2257.7 782 2250.96C772.92 2244.21 759.88 2234.1 753 2228.48C746.13 2222.86 734.65 2213.15 727.51 2206.88C720.36 2200.62 705.56 2186.72 694.61 2176C683.66 2165.28 668.41 2149.75 660.71 2141.5C653 2133.25 640.31 2119.07 632.5 2110C624.68 2100.93 612.71 2086.53 605.89 2078C599.07 2069.47 587.61 2054.63 580.43 2045C573.24 2035.38 562.46 2020.53 556.47 2012C550.49 2003.47 539.23 1986.83 531.45 1975C523.67 1963.17 511.9 1944.72 505.29 1934C498.68 1923.28 487.14 1903.81 479.64 1890.75C472.14 1877.69 462.45 1859.91 458.12 1851.25C453.79 1842.59 447.42 1828.97 443.97 1821C440.52 1813.03 435.33 1799.97 432.43 1792C429.54 1784.03 425.07 1770.75 422.51 1762.5C419.94 1754.25 416.08 1740.53 413.92 1732C411.75 1723.47 408.4 1708.63 406.46 1699C404.53 1689.38 401.62 1672.28 400.01 1661C398.4 1649.72 396.39 1632.85 395.54 1623.5C394.7 1614.15 393.56 1597.72 393.01 1587C392.47 1576.28 392.02 1558.05 392.02 1546.5C392.01 1534.95 392.46 1515.83 393.01 1504C393.56 1492.17 394.69 1474.4 395.51 1464.5C396.34 1454.6 397.71 1440.2 398.57 1432.5C399.42 1424.8 401.23 1410.4 402.6 1400.5C403.97 1390.6 406.44 1374.4 408.09 1364.5C409.73 1354.6 412.46 1339.3 414.14 1330.5C415.82 1321.7 419.42 1304.38 422.14 1292C424.86 1279.63 429.8 1258.7 433.11 1245.5C436.42 1232.3 441.61 1212.5 444.66 1201.5C447.7 1190.5 453.55 1170.47 457.65 1157C461.76 1143.53 468.07 1123.5 471.69 1112.5C475.31 1101.5 481.98 1081.92 486.52 1069C491.06 1056.08 498.46 1035.6 502.98 1023.5C507.5 1011.4 515.82 989.8 521.47 975.5C527.12 961.2 536.3 938.59 541.87 925.25C547.44 911.91 556.78 890.09 562.62 876.75C568.47 863.41 579.23 839.45 586.53 823.5C593.84 807.55 605.73 782.13 612.97 767C620.21 751.88 626.69 738.63 627.39 737.57C628.08 736.5 630.19 735.04 632.07 734.32C633.96 733.59 636.85 733.24 638.5 733.54ZM2458.23 3612.5C2451.93 3621.85 2441.74 3636.25 2435.59 3644.5C2429.43 3652.75 2418.74 3666.25 2411.82 3674.5C2404.9 3682.75 2393.44 3695.67 2386.37 3703.22C2379.29 3710.76 2367.88 3722.18 2361 3728.6C2354.13 3735.02 2342.88 3744.99 2336 3750.76C2329.13 3756.52 2318.1 3765.28 2311.5 3770.21C2304.9 3775.15 2293.88 3782.92 2287 3787.48C2280.13 3792.04 2269.1 3799 2262.5 3802.95C2255.9 3806.9 2240.15 3815.25 2227.5 3821.51C2214.85 3827.77 2197.07 3835.77 2188 3839.29C2178.93 3842.82 2169.03 3846.6 2166 3847.7L2160.5 3849.7C2178.32 3853 2189.35 3854.63 2196.5 3855.43C2203.65 3856.24 2215.57 3857.19 2223 3857.54C2230.43 3857.89 2243.25 3857.67 2251.5 3857.07C2259.75 3856.46 2271.22 3855.27 2277 3854.42C2282.78 3853.57 2292.68 3851.74 2299 3850.35C2305.32 3848.96 2318.38 3845.19 2328 3841.99C2337.63 3838.78 2350.22 3834.07 2356 3831.53C2361.78 3828.99 2371.9 3824.08 2378.5 3820.63C2385.1 3817.18 2396.35 3810.73 2403.5 3806.29C2410.65 3801.85 2423.7 3792.84 2432.5 3786.27C2441.3 3779.7 2455.03 3768.49 2463 3761.37C2470.97 3754.25 2478.63 3747.65 2480 3746.7C2481.38 3745.76 2484.3 3744.98 2486.5 3744.98C2489.05 3744.98 2491.64 3745.8 2493.66 3747.24C2495.4 3748.48 2504.62 3756.72 2514.16 3765.55C2523.7 3774.38 2537.13 3785.71 2544 3790.73C2550.88 3795.75 2562.8 3803.73 2570.5 3808.48C2578.2 3813.22 2590.13 3819.96 2597 3823.44C2603.88 3826.93 2614 3831.69 2619.5 3834.03C2625 3836.36 2636.7 3840.64 2645.5 3843.54C2654.3 3846.43 2666.68 3849.94 2673 3851.34C2679.32 3852.73 2689.22 3854.57 2695 3855.42C2700.78 3856.27 2712.25 3857.46 2720.5 3858.07C2728.75 3858.67 2741.57 3858.89 2749 3858.54C2756.43 3858.19 2768.35 3857.24 2775.5 3856.43C2782.65 3855.63 2793.68 3854.04 2800 3852.9C2806.32 3851.77 2811.28 3850.7 2811 3850.51C2810.72 3850.33 2804.65 3848.07 2797.5 3845.48C2790.35 3842.89 2778.31 3838.12 2770.75 3834.89C2763.19 3831.65 2750.59 3825.79 2742.75 3821.87C2734.91 3817.95 2724.45 3812.47 2719.5 3809.69C2714.55 3806.92 2704.2 3800.7 2696.5 3795.88C2688.8 3791.06 2676.35 3782.7 2668.84 3777.31C2661.32 3771.91 2648.5 3762.02 2640.34 3755.33C2632.18 3748.64 2619.34 3737.39 2611.8 3730.33C2604.27 3723.27 2592.4 3711.43 2585.44 3704C2578.47 3696.57 2567.29 3683.97 2560.6 3676C2553.91 3668.03 2544.36 3656.1 2539.38 3649.5C2534.41 3642.9 2527.67 3633.66 2524.42 3628.97C2521.16 3624.28 2514 3614.26 2508.5 3606.7C2503 3599.15 2495.97 3588.59 2492.87 3583.24C2489.78 3577.88 2486.8 3573.36 2486.25 3573.2C2485.69 3573.03 2481.74 3577.98 2477.47 3584.2C2473.19 3590.41 2464.53 3603.15 2458.23 3612.5ZM2467.1 3963.35C2463.47 3967.11 2456.22 3973.45 2451 3977.43C2445.78 3981.4 2436.1 3988.26 2429.5 3992.66C2422.9 3997.06 2411.65 4004.17 2404.5 4008.46C2397.35 4012.75 2383.63 4020.56 2374 4025.81C2364.38 4031.06 2343.79 4041.58 2328.25 4049.18L2300 4063C2322.11 4091.29 2334.14 4107.15 2341.01 4116.5C2347.87 4125.85 2361.15 4144.98 2370.52 4159C2379.89 4173.02 2393.21 4193.95 2400.13 4205.5C2407.05 4217.05 2416.38 4233.14 2420.85 4241.25C2425.33 4249.36 2433.89 4265.79 2439.87 4277.75C2445.85 4289.71 2454.13 4306.93 2458.26 4316C2462.4 4325.07 2470.12 4344.65 2475.41 4359.5C2480.71 4374.35 2485.6 4387.74 2486.27 4389.24C2487.43 4391.82 2487.85 4390.86 2493.38 4373.24C2496.61 4362.94 2501.96 4346.85 2505.27 4337.5C2509.7 4324.96 2515.47 4312.11 2527.26 4288.5C2536.05 4270.9 2547.77 4248.4 2553.29 4238.5C2558.81 4228.6 2567.8 4213.07 2573.28 4204C2578.76 4194.93 2591.01 4175.8 2600.51 4161.5C2610.01 4147.2 2623.74 4127.4 2631.01 4117.5C2638.29 4107.6 2648.64 4093.88 2654 4087C2659.37 4080.13 2665.61 4072.14 2667.88 4069.25L2672 4064C2629.76 4043.39 2608.95 4032.74 2598.5 4027.03C2588.05 4021.32 2573.88 4013.28 2567 4009.16C2560.13 4005.04 2547.09 3996.68 2538.03 3990.58C2525.11 3981.89 2518.63 3976.67 2508.03 3966.41C2499.19 3957.85 2493.09 3951.01 2490.42 3946.66C2488.18 3943 2486.07 3940 2485.73 3940C2485.39 3940 2482.55 3943.71 2479.41 3948.25C2476.27 3952.79 2470.73 3959.58 2467.1 3963.35ZM137.28 1722.42C138.96 1723.01 142.9 1726.42 146.02 1730C149.14 1733.58 157.45 1745.28 164.47 1756C171.5 1766.72 185.82 1788.1 196.3 1803.5C206.78 1818.9 223.22 1842.75 232.85 1856.5C242.47 1870.25 257.31 1891.17 265.83 1903C274.35 1914.83 292.44 1939.35 306.04 1957.5C319.63 1975.65 339.42 2001.53 350.02 2015C360.61 2028.47 377.2 2049.18 386.87 2061C396.54 2072.82 413.72 2093.3 425.05 2106.5C436.38 2119.7 452.34 2137.93 460.5 2147C468.67 2156.07 481.01 2169.56 487.93 2176.96C494.84 2184.37 509.05 2199.17 519.5 2209.85C529.95 2220.54 547.29 2237.66 558.04 2247.89C568.78 2258.13 583.63 2271.92 591.04 2278.56C598.44 2285.19 610.8 2295.99 618.5 2302.56C626.2 2309.12 640.15 2320.57 649.5 2327.99C658.85 2335.41 674.15 2347.05 683.5 2353.86C692.85 2360.67 708.15 2371.28 717.5 2377.45C726.85 2383.61 740.58 2392.29 748 2396.73C755.42 2401.17 768.7 2408.68 777.5 2413.43C786.3 2418.17 802.27 2426.38 813 2431.66C823.73 2436.95 840.83 2444.97 851 2449.49C861.17 2454.01 877.6 2460.98 887.5 2464.98C897.4 2468.97 913.15 2475.06 922.5 2478.5C931.85 2481.94 950.52 2488.37 964 2492.8C977.48 2497.22 996.38 2503.1 1006 2505.86C1015.63 2508.62 1032.28 2513.14 1043 2515.9C1053.72 2518.66 1069.7 2522.56 1078.5 2524.55C1087.3 2526.54 1104.17 2530.13 1116 2532.51C1127.83 2534.9 1148.53 2538.7 1162 2540.96C1175.47 2543.22 1197.97 2546.6 1212 2548.48C1226.03 2550.36 1248.75 2553.04 1262.5 2554.42C1276.25 2555.81 1300.1 2557.85 1315.5 2558.95C1330.9 2560.05 1354.3 2561.44 1367.5 2562.02C1380.7 2562.61 1420.75 2563.51 1456.5 2564.02C1492.25 2564.52 1529.15 2565.4 1538.5 2565.97C1547.85 2566.53 1564.5 2567.69 1575.5 2568.54C1586.5 2569.39 1603.83 2570.98 1614 2572.09C1624.17 2573.19 1641.95 2575.44 1653.5 2577.07C1665.05 2578.71 1681.03 2581.2 1689 2582.6C1696.97 2584.01 1711.15 2586.73 1720.5 2588.64C1729.85 2590.56 1743.8 2593.64 1751.5 2595.49C1759.2 2597.34 1772.14 2600.68 1780.25 2602.92C1788.36 2605.17 1802.76 2609.45 1812.25 2612.44C1821.74 2615.42 1837.83 2621 1848 2624.82C1858.17 2628.65 1873.03 2634.56 1881 2637.97C1888.97 2641.38 1903.6 2648.16 1913.5 2653.05C1923.4 2657.93 1938.03 2665.68 1946 2670.26C1953.97 2674.85 1965.45 2681.72 1971.5 2685.54C1977.55 2689.35 1988.13 2696.49 1995 2701.4C2001.88 2706.31 2013.8 2715.38 2021.5 2721.56C2029.2 2727.73 2041.58 2738.38 2049 2745.23C2056.43 2752.08 2070.82 2766.21 2081 2776.64C2091.18 2787.07 2104.04 2800.76 2109.59 2807.05C2115.15 2813.35 2123.64 2823.22 2128.46 2829C2133.29 2834.78 2142.5 2846.47 2148.92 2855C2155.35 2863.53 2165.13 2877.25 2170.66 2885.5C2176.18 2893.75 2184.4 2906.8 2188.92 2914.5C2193.45 2922.2 2201.11 2936.6 2205.96 2946.5C2210.81 2956.4 2217.03 2970.13 2219.78 2977C2222.53 2983.88 2226.82 2995.8 2229.32 3003.5C2231.82 3011.2 2234.98 3022 2236.35 3027.5C2237.72 3033 2239.76 3042.22 2240.89 3048C2242.02 3053.78 2243.74 3063.9 2244.72 3070.5C2246.15 3080.22 2246.48 3088.95 2246.45 3116.5C2246.41 3141.25 2245.93 3155.26 2244.65 3168C2243.69 3177.63 2241.77 3193.15 2240.39 3202.5C2239.01 3211.85 2236.32 3226.93 2234.43 3236C2232.54 3245.07 2229.21 3259.03 2227.04 3267C2224.87 3274.97 2220.54 3288.93 2217.42 3298C2214.31 3307.07 2209.09 3320.8 2205.83 3328.5C2202.57 3336.2 2195.74 3350.6 2190.64 3360.5C2185.55 3370.4 2177.36 3384.94 2172.44 3392.81C2167.52 3400.69 2158.74 3413.51 2152.92 3421.31C2147.1 3429.12 2137.84 3440.45 2132.35 3446.5C2126.87 3452.55 2117.68 3461.71 2111.94 3466.86C2106.2 3472.01 2096.92 3479.66 2091.33 3483.86C2085.74 3488.06 2076.51 3494.4 2070.83 3497.94C2065.15 3501.49 2054.65 3507.37 2047.5 3511.02C2040.35 3514.68 2028.54 3519.99 2021.25 3522.83C2013.96 3525.67 2002.04 3529.8 1994.75 3532C1987.46 3534.2 1975.42 3537.33 1968 3538.94C1960.58 3540.56 1948.2 3542.81 1940.5 3543.94C1932.8 3545.07 1921.55 3546.46 1915.5 3547.02C1909.45 3547.58 1895.05 3548.32 1883.5 3548.66C1870.46 3549.04 1856.62 3548.82 1847 3548.08C1838.47 3547.42 1825.2 3545.81 1817.5 3544.49C1809.8 3543.18 1798.55 3540.67 1792.5 3538.92C1786.45 3537.16 1777.67 3534.18 1773 3532.3C1768.33 3530.41 1761.13 3527.06 1757 3524.85C1752.88 3522.64 1745.67 3518.31 1741 3515.24C1735.78 3511.8 1727.87 3504.99 1720.48 3497.57C1712.89 3489.95 1706.14 3482 1702.15 3476C1698.67 3470.78 1693.66 3462 1691.01 3456.5C1688.35 3451 1684.77 3442.45 1683.04 3437.5C1681.31 3432.55 1678.76 3424 1677.37 3418.5C1675.97 3413 1673.93 3402.65 1672.81 3395.5C1671.29 3385.75 1670.66 3375.51 1670.26 3354.5C1669.97 3339.1 1670.02 3324.36 1670.37 3321.75C1670.84 3318.18 1671.93 3315.98 1674.75 3312.88C1676.81 3310.61 1679.63 3308.17 1681 3307.46C1682.38 3306.74 1693.17 3305.19 1705 3304.02C1716.83 3302.85 1735.28 3300.77 1746 3299.41C1756.72 3298.05 1774.95 3295.4 1786.5 3293.51C1798.05 3291.63 1815.38 3288.48 1825 3286.5C1834.63 3284.53 1852.17 3280.44 1864 3277.41C1875.83 3274.38 1894.16 3269 1904.75 3265.45C1915.34 3261.9 1930.41 3256.25 1938.25 3252.89C1946.09 3249.53 1955.65 3245.2 1959.5 3243.26C1963.35 3241.33 1970.1 3237.69 1974.5 3235.18C1978.9 3232.67 1986.33 3228.07 1991 3224.96C1995.67 3221.84 2002.88 3216.57 2007 3213.24C2011.13 3209.91 2018.44 3203.21 2023.25 3198.34C2028.06 3193.48 2034.72 3185.9 2038.03 3181.5C2041.35 3177.1 2046.96 3167.65 2050.51 3160.5C2054.06 3153.35 2058.05 3143.68 2059.39 3139C2060.72 3134.32 2062.52 3125.78 2063.38 3120C2064.24 3114.22 2065.24 3100.95 2065.61 3090.5C2066 3079.14 2065.8 3064.67 2065.11 3054.5C2064.48 3045.15 2063.11 3031.65 2062.07 3024.5C2061.02 3017.35 2058.97 3006.1 2057.5 2999.5C2056.03 2992.9 2052.59 2980.75 2049.85 2972.5C2047.12 2964.25 2041.72 2950.97 2037.87 2943C2034.02 2935.03 2028.55 2924.68 2025.72 2920C2022.89 2915.32 2016.51 2906.1 2011.55 2899.5C2006.59 2892.9 1996.45 2881.39 1989.02 2873.93C1981.58 2866.47 1971.67 2857.33 1967 2853.62C1962.33 2849.92 1953.33 2843.37 1947 2839.07C1940.67 2834.78 1931.45 2829.02 1926.5 2826.28C1921.55 2823.55 1913.22 2819.38 1908 2817.04C1902.78 2814.69 1892.65 2810.81 1885.5 2808.43C1878.35 2806.04 1866.88 2802.96 1860 2801.59C1853.13 2800.21 1842.78 2798.62 1837 2798.04C1831.22 2797.46 1821.33 2796.99 1815 2796.99C1808.67 2796.99 1798.78 2797.45 1793 2798.02C1787.22 2798.59 1778.22 2799.77 1773 2800.63C1767.78 2801.5 1757.2 2803.78 1749.5 2805.72C1741.8 2807.65 1730.33 2811.02 1724 2813.21C1717.67 2815.39 1678.53 2831.27 1637 2848.48C1595.47 2865.7 1526.4 2894.29 1483.5 2912.01C1440.6 2929.73 1360.72 2962.67 1306 2985.21C1251.28 3007.76 1199.97 3028.69 1192 3031.72C1184.03 3034.76 1169.85 3039.92 1160.5 3043.19C1151.15 3046.46 1134.05 3051.99 1122.5 3055.48C1110.95 3058.97 1091.6 3064.3 1079.5 3067.33C1067.4 3070.35 1049.63 3074.41 1040 3076.35C1030.38 3078.28 1015.52 3081 1007 3082.39C998.48 3083.78 986.1 3085.61 979.5 3086.45C972.9 3087.29 960.52 3088.64 952 3089.44C943.48 3090.25 925.7 3091.43 912.5 3092.08C898.55 3092.76 879.08 3092.98 866 3092.61C853.63 3092.26 837.2 3091.52 829.5 3090.97C821.8 3090.42 809.42 3089.3 802 3088.48C794.58 3087.65 781.98 3086.06 774 3084.92C766.02 3083.79 750.73 3081.13 740 3079.01C729.27 3076.89 712.4 3073.13 702.5 3070.65C692.6 3068.16 677.08 3063.89 668 3061.15C658.92 3058.41 644.3 3053.62 635.5 3050.5C626.7 3047.38 611.4 3041.53 601.5 3037.5C591.6 3033.48 578.33 3027.84 572 3024.98C565.67 3022.11 552.96 3015.99 543.75 3011.38C534.54 3006.77 520.81 2999.57 513.25 2995.38C505.69 2991.19 493.88 2984.37 487 2980.24C480.13 2976.11 467.3 2967.93 458.5 2962.06C449.7 2956.2 436.65 2947.16 429.5 2941.98C422.35 2936.79 408.85 2926.42 399.5 2918.93C390.15 2911.43 375.98 2899.51 368 2892.43C360.02 2885.35 347.03 2873.24 339.12 2865.53C331.2 2857.81 318.83 2845.2 311.61 2837.5C304.39 2829.8 292.89 2816.97 286.05 2809C279.2 2801.03 268.41 2787.97 262.06 2780C255.7 2772.03 245.1 2758.07 238.49 2749C231.88 2739.93 221.49 2725.07 215.4 2716C209.32 2706.93 200.27 2692.97 195.31 2685C190.35 2677.03 180.98 2661.28 174.5 2650C168.02 2638.72 158.18 2620.72 152.63 2610C147.09 2599.28 138.2 2581.5 132.87 2570.5C127.55 2559.5 120.28 2543.75 116.73 2535.5C113.18 2527.25 107.67 2513.75 104.49 2505.5C101.31 2497.25 96.05 2482.63 92.79 2473C89.53 2463.38 84.02 2445.6 80.55 2433.5C77.07 2421.4 72.4 2403.63 70.18 2394C67.95 2384.38 64.52 2368.18 62.54 2358C60.56 2347.82 57.39 2328.7 55.5 2315.5C53.61 2302.3 51.16 2281.6 50.06 2269.5C48.96 2257.4 47.6 2239.4 47.03 2229.5C46.46 2219.6 45.99 2194.18 46 2173C46 2151.82 46.46 2126.18 47.02 2116C47.58 2105.82 48.72 2089.18 49.54 2079C50.37 2068.82 51.95 2052.4 53.06 2042.5C54.17 2032.6 56.21 2016.4 57.58 2006.5C58.96 1996.6 61.66 1979.05 63.58 1967.5C65.51 1955.95 68.9 1937.28 71.12 1926C73.35 1914.72 77.4 1895.6 80.12 1883.5C82.84 1871.4 87.96 1850.25 91.5 1836.5C95.04 1822.75 100.37 1802.95 103.34 1792.5C106.32 1782.05 111.78 1763.6 115.48 1751.5C120.3 1735.72 122.97 1728.57 124.91 1726.22C126.42 1724.4 129.09 1722.58 130.92 1722.14C132.9 1721.65 135.44 1721.77 137.28 1722.42ZM4840.34 1723.13C4842.08 1723.61 4844.92 1725.47 4846.66 1727.26C4849.32 1729.99 4850.87 1733.97 4856.53 1752.5C4860.22 1764.6 4865.68 1783.05 4868.66 1793.5C4871.63 1803.95 4876.96 1823.75 4880.5 1837.5C4884.04 1851.25 4889.16 1872.4 4891.88 1884.5C4894.6 1896.6 4898.65 1915.72 4900.88 1927C4903.1 1938.28 4906.49 1956.95 4908.42 1968.5C4910.34 1980.05 4913.04 1997.6 4914.42 2007.5C4915.79 2017.4 4917.83 2033.6 4918.94 2043.5C4920.05 2053.4 4921.63 2069.82 4922.46 2080C4923.28 2090.18 4924.42 2106.82 4924.98 2117C4925.54 2127.18 4926 2152.82 4926 2174C4926.01 2195.18 4925.54 2220.6 4924.97 2230.5C4924.4 2240.4 4923.04 2258.4 4921.94 2270.5C4920.84 2282.6 4918.39 2303.3 4916.5 2316.5C4914.61 2329.7 4911.44 2348.82 4909.46 2359C4907.48 2369.18 4904.05 2385.38 4901.82 2395C4899.6 2404.63 4894.93 2422.4 4891.45 2434.5C4887.98 2446.6 4882.47 2464.38 4879.21 2474C4875.95 2483.63 4870.69 2498.25 4867.51 2506.5C4864.33 2514.75 4858.82 2528.25 4855.27 2536.5C4851.72 2544.75 4844.45 2560.5 4839.13 2571.5C4833.8 2582.5 4824.91 2600.28 4819.37 2611C4813.82 2621.72 4803.98 2639.72 4797.5 2651C4791.02 2662.28 4781.65 2678.03 4776.69 2686C4771.73 2693.97 4762.68 2707.93 4756.6 2717C4750.51 2726.07 4740.12 2740.93 4733.51 2750C4726.9 2759.07 4716.3 2773.03 4709.94 2781C4703.59 2788.97 4692.8 2802.03 4685.95 2810C4679.11 2817.97 4667.61 2830.8 4660.39 2838.5C4653.17 2846.2 4640.8 2858.81 4632.88 2866.53C4624.97 2874.24 4611.98 2886.35 4604 2893.43C4596.02 2900.51 4581.85 2912.43 4572.5 2919.93C4563.15 2927.42 4549.65 2937.79 4542.5 2942.98C4535.35 2948.16 4522.3 2957.2 4513.5 2963.06C4504.7 2968.93 4491.88 2977.11 4485 2981.24C4478.13 2985.37 4466.31 2992.19 4458.75 2996.38C4451.19 3000.57 4437.46 3007.77 4428.25 3012.38C4419.04 3016.99 4406.32 3023.11 4400 3025.98C4393.68 3028.84 4380.4 3034.48 4370.5 3038.5C4360.6 3042.53 4345.3 3048.38 4336.5 3051.5C4327.7 3054.62 4313.07 3059.41 4304 3062.15C4294.93 3064.89 4279.4 3069.16 4269.5 3071.65C4259.6 3074.13 4242.73 3077.89 4232 3080.01C4221.27 3082.13 4205.98 3084.79 4198 3085.92C4190.02 3087.06 4177.43 3088.65 4170 3089.48C4162.57 3090.3 4150.2 3091.42 4142.5 3091.97C4134.8 3092.52 4118.38 3093.26 4106 3093.61C4092.92 3093.98 4073.45 3093.76 4059.5 3093.08C4046.3 3092.43 4028.53 3091.25 4020 3090.44C4011.47 3089.64 3999.1 3088.29 3992.5 3087.45C3985.9 3086.61 3973.53 3084.78 3965 3083.39C3956.47 3082 3941.63 3079.28 3932 3077.35C3922.38 3075.41 3904.6 3071.35 3892.5 3068.33C3880.4 3065.3 3861.05 3059.97 3849.5 3056.48C3837.95 3052.99 3820.85 3047.46 3811.5 3044.19C3802.15 3040.92 3787.97 3035.76 3780 3032.72C3772.03 3029.69 3720.72 3008.76 3666 2986.21C3611.28 2963.67 3531.4 2930.73 3488.5 2913.01C3445.6 2895.29 3376.53 2866.7 3335 2849.48C3293.47 2832.27 3254.32 2816.39 3248 2814.21C3241.68 2812.02 3230.2 2808.65 3222.5 2806.72C3214.8 2804.78 3204.22 2802.5 3199 2801.63C3193.78 2800.77 3184.78 2799.59 3179 2799.02C3173.22 2798.45 3163.32 2797.99 3157 2797.99C3150.68 2797.99 3140.78 2798.46 3135 2799.04C3129.22 2799.62 3118.88 2801.21 3112 2802.59C3105.13 2803.96 3093.65 2807.04 3086.5 2809.43C3079.35 2811.81 3069.22 2815.69 3064 2818.04C3058.78 2820.38 3050.45 2824.55 3045.5 2827.28C3040.55 2830.02 3031.32 2835.78 3025 2840.07C3018.68 2844.37 3009.68 2850.92 3005 2854.62C3000.32 2858.33 2990.42 2867.47 2982.98 2874.93C2975.55 2882.39 2965.41 2893.9 2960.45 2900.5C2955.49 2907.1 2949.11 2916.32 2946.28 2921C2943.45 2925.68 2937.98 2936.03 2934.13 2944C2930.28 2951.97 2924.88 2965.25 2922.15 2973.5C2919.41 2981.75 2915.97 2993.9 2914.5 3000.5C2913.03 3007.1 2910.98 3018.35 2909.93 3025.5C2908.89 3032.65 2907.52 3046.15 2906.89 3055.5C2906.2 3065.67 2906 3080.14 2906.39 3091.5C2906.76 3101.95 2907.76 3115.22 2908.62 3121C2909.48 3126.78 2911.28 3135.32 2912.61 3140C2913.95 3144.68 2917.94 3154.35 2921.49 3161.5C2925.04 3168.65 2930.65 3178.1 2933.97 3182.5C2937.28 3186.9 2943.94 3194.48 2948.75 3199.34C2953.56 3204.21 2960.88 3210.91 2965 3214.24C2969.13 3217.57 2976.32 3222.84 2981 3225.96C2985.68 3229.07 2993.1 3233.67 2997.5 3236.18C3001.9 3238.69 3008.65 3242.33 3012.5 3244.26C3016.35 3246.2 3025.91 3250.53 3033.75 3253.89C3041.59 3257.25 3056.66 3262.9 3067.25 3266.45C3077.84 3270 3096.18 3275.38 3108 3278.41C3119.82 3281.44 3137.38 3285.53 3147 3287.5C3156.63 3289.48 3173.95 3292.63 3185.5 3294.51C3197.05 3296.4 3215.28 3299.05 3226 3300.41C3236.72 3301.77 3255.18 3303.85 3267 3305.02C3278.82 3306.19 3289.63 3307.74 3291 3308.46C3292.38 3309.17 3295.19 3311.61 3297.25 3313.88C3300.07 3316.98 3301.16 3319.18 3301.63 3322.75C3301.98 3325.36 3302.03 3340.1 3301.74 3355.5C3301.34 3376.51 3300.71 3386.75 3299.19 3396.5C3298.07 3403.65 3296.03 3414 3294.63 3419.5C3293.24 3425 3290.69 3433.55 3288.96 3438.5C3287.23 3443.45 3283.65 3452 3280.99 3457.5C3278.34 3463 3273.33 3471.78 3269.85 3477C3265.86 3483 3259.11 3490.95 3251.52 3498.57C3244.13 3505.99 3236.22 3512.8 3231 3516.24C3226.32 3519.31 3219.13 3523.64 3215 3525.85C3210.88 3528.06 3203.68 3531.41 3199 3533.3C3194.32 3535.18 3185.55 3538.16 3179.5 3539.92C3173.45 3541.67 3162.2 3544.18 3154.5 3545.49C3146.8 3546.81 3133.53 3548.42 3125 3549.08C3115.38 3549.82 3101.54 3550.04 3088.5 3549.66C3076.95 3549.32 3062.55 3548.58 3056.5 3548.02C3050.45 3547.46 3039.2 3546.07 3031.5 3544.94C3023.8 3543.81 3011.43 3541.56 3004 3539.94C2996.57 3538.33 2984.54 3535.2 2977.25 3533C2969.96 3530.8 2958.04 3526.67 2950.75 3523.83C2943.46 3520.99 2931.65 3515.68 2924.5 3512.02C2917.35 3508.37 2906.85 3502.49 2901.17 3498.94C2895.49 3495.4 2886.26 3489.06 2880.67 3484.86C2875.08 3480.66 2865.8 3473.01 2860.06 3467.86C2854.32 3462.71 2845.13 3453.55 2839.65 3447.5C2834.16 3441.45 2824.9 3430.12 2819.08 3422.31C2813.26 3414.51 2804.48 3401.69 2799.56 3393.81C2794.64 3385.94 2786.45 3371.4 2781.36 3361.5C2776.26 3351.6 2769.43 3337.2 2766.17 3329.5C2762.91 3321.8 2757.69 3308.07 2754.58 3299C2751.46 3289.93 2747.13 3275.97 2744.96 3268C2742.79 3260.03 2739.46 3246.07 2737.57 3237C2735.68 3227.93 2732.99 3212.85 2731.61 3203.5C2730.23 3194.15 2728.31 3178.63 2727.35 3169C2726.07 3156.26 2725.59 3142.25 2725.55 3117.5C2725.52 3089.95 2725.85 3081.22 2727.28 3071.5C2728.26 3064.9 2729.98 3054.78 2731.11 3049C2732.24 3043.22 2734.28 3034 2735.65 3028.5C2737.02 3023 2740.18 3012.2 2742.68 3004.5C2745.18 2996.8 2749.47 2984.88 2752.22 2978C2754.97 2971.13 2761.19 2957.4 2766.04 2947.5C2770.89 2937.6 2778.55 2923.2 2783.08 2915.5C2787.6 2907.8 2795.82 2894.75 2801.34 2886.5C2806.87 2878.25 2816.65 2864.53 2823.08 2856C2829.5 2847.47 2838.71 2835.78 2843.54 2830C2848.36 2824.22 2856.85 2814.35 2862.41 2808.05C2867.96 2801.76 2880.82 2788.07 2891 2777.64C2901.18 2767.21 2915.57 2753.08 2923 2746.23C2930.43 2739.38 2942.8 2728.73 2950.5 2722.56C2958.2 2716.38 2970.13 2707.31 2977 2702.4C2983.88 2697.49 2994.45 2690.35 3000.5 2686.54C3006.55 2682.72 3018.03 2675.85 3026 2671.26C3033.97 2666.68 3048.6 2658.93 3058.5 2654.05C3068.4 2649.16 3083.03 2642.38 3091 2638.97C3098.97 2635.56 3113.82 2629.65 3124 2625.82C3134.18 2622 3150.26 2616.42 3159.75 2613.44C3169.24 2610.45 3183.64 2606.17 3191.75 2603.92C3199.86 2601.68 3212.8 2598.34 3220.5 2596.49C3228.2 2594.64 3242.15 2591.56 3251.5 2589.64C3260.85 2587.73 3275.03 2585.01 3283 2583.6C3290.97 2582.2 3306.95 2579.71 3318.5 2578.07C3330.05 2576.44 3347.82 2574.19 3358 2573.09C3368.18 2571.98 3385.5 2570.39 3396.5 2569.54C3407.5 2568.69 3424.15 2567.53 3433.5 2566.97C3442.85 2566.4 3479.75 2565.52 3515.5 2565.02C3551.25 2564.51 3591.3 2563.61 3604.5 2563.02C3617.7 2562.44 3641.1 2561.05 3656.5 2559.95C3671.9 2558.85 3695.75 2556.81 3709.5 2555.42C3723.25 2554.04 3745.97 2551.36 3760 2549.48C3774.03 2547.6 3796.53 2544.22 3810 2541.96C3823.47 2539.7 3844.18 2535.9 3856 2533.51C3867.82 2531.13 3884.7 2527.54 3893.5 2525.55C3902.3 2523.56 3918.28 2519.66 3929 2516.9C3939.72 2514.14 3956.38 2509.62 3966 2506.86C3975.63 2504.1 3994.53 2498.22 4008 2493.8C4021.47 2489.37 4040.15 2482.94 4049.5 2479.5C4058.85 2476.06 4074.6 2469.97 4084.5 2465.98C4094.4 2461.98 4110.82 2455.01 4121 2450.49C4131.18 2445.97 4148.27 2437.95 4159 2432.66C4169.73 2427.38 4185.7 2419.17 4194.5 2414.43C4203.3 2409.68 4216.57 2402.17 4224 2397.73C4231.43 2393.29 4245.15 2384.61 4254.5 2378.45C4263.85 2372.28 4279.15 2361.67 4288.5 2354.86C4297.85 2348.05 4313.15 2336.41 4322.5 2328.99C4331.85 2321.57 4345.8 2310.12 4353.5 2303.56C4361.2 2296.99 4373.56 2286.19 4380.96 2279.56C4388.37 2272.92 4403.22 2259.13 4413.96 2248.89C4424.71 2238.66 4442.05 2221.54 4452.5 2210.85C4462.95 2200.17 4477.16 2185.37 4484.07 2177.96C4490.99 2170.56 4503.33 2157.07 4511.5 2148C4519.66 2138.93 4535.62 2120.7 4546.95 2107.5C4558.28 2094.3 4575.46 2073.82 4585.13 2062C4594.8 2050.18 4611.39 2029.47 4621.98 2016C4632.58 2002.53 4652.37 1976.65 4665.96 1958.5C4679.56 1940.35 4697.65 1915.83 4706.17 1904C4714.69 1892.17 4729.53 1871.25 4739.15 1857.5C4748.78 1843.75 4765.22 1819.9 4775.7 1804.5C4786.18 1789.1 4800.51 1767.72 4807.54 1757C4814.56 1746.28 4822.64 1734.62 4825.47 1731.09C4828.59 1727.23 4831.94 1724.2 4833.91 1723.46C4836.1 1722.64 4838.24 1722.53 4840.34 1723.13Z" />
</svg>