<svg xmlns="http://www.w3.org/2000/svg" viewBox="0 0 122 122" width="122" height="122">
	
	<path id="artifacts" fill-rule="evenodd" class="shp0" d="M59.92 -0.02C60.79 -0.04 64.09 2.89 67.25 6.48C70.41 10.06 73 13.22 73 13.5C73 13.78 72.1 15.24 71 16.75C69.38 18.96 69.24 19.75 70.25 20.79C70.94 21.51 72.17 22.06 73 22.01C73.83 21.97 76.3 23.12 78.5 24.57C80.7 26.01 84.19 28.84 86.27 30.85C88.34 32.86 90 34.95 89.97 35.5C89.94 36.05 90.62 37.17 91.48 38C92.35 38.83 93.32 40.85 93.64 42.5C93.96 44.15 94.79 46.17 95.48 47C96.18 47.83 97.01 50.08 97.34 52C97.66 53.92 98.86 56.4 100 57.5C101.14 58.6 102.05 60.29 102.03 61.25C102.01 62.21 100.88 63.67 99.5 64.5C98.13 65.33 97.02 66.79 97.04 67.75C97.07 68.71 96.51 70.01 95.79 70.63C95.08 71.25 94.16 73.17 93.75 74.88C93.31 76.72 90.16 80.97 79.12 92.5L72.06 92.75C66.56 92.94 65 93.33 65 94.5C65 95.55 66.06 96 68.5 96C70.42 96 72.31 96.56 72.69 97.25C73.07 97.94 72.84 98.61 72.19 98.75C71.53 98.89 71.02 99.56 71.04 100.25C71.07 100.94 70.36 102.17 69.46 103C68.56 103.83 67.18 105.85 66.39 107.5C65.6 109.15 64.99 110.95 65.02 111.5C65.06 112.05 64.37 113.17 63.5 114C62.63 114.83 61.93 116.96 61.96 118.75C61.99 120.99 61.53 122 60.5 122C59.67 122 58.77 121.33 58.5 120.5C58.23 119.67 58 117.65 58 116C58 114.22 57.39 112.8 56.5 112.5C55.67 112.22 55 111.1 55 110C55 108.9 52.99 105.86 50.53 103.25C48.08 100.64 46.05 97.94 46.03 97.25C46.01 96.43 47.55 96 50.5 96C53.83 96 55 95.61 55 94.5C55 93.33 53.67 93 49 93C43.75 93 42.48 92.59 38.83 89.75C36.54 87.96 33.61 84.7 32.31 82.5C31.02 80.3 29.52 77.6 28.99 76.5C28.45 75.4 27.58 73.83 27.06 73C26.54 72.17 25.87 70.26 25.56 68.75C25.17 66.83 24.1 65.7 22 65C20.35 64.45 18.77 63.33 18.5 62.5C18.23 61.67 19.58 59.09 21.51 56.75C23.84 53.92 25.24 51 25.69 48C26.06 45.52 27.42 41.92 28.71 40C30 38.08 31.05 36.16 31.03 35.75C31.01 35.34 34.49 32.06 38.75 28.47C44.26 23.83 47.3 21.95 49.25 21.97C50.76 21.99 52.27 21.44 52.61 20.75C52.94 20.06 51.7 18.07 46.5 13.14L52.42 6.57C55.67 2.96 59.05 -0.01 59.92 -0.02ZM58.83 38.17C58.92 39.73 58.44 42 57.75 43.21C57.06 44.43 53.89 48.03 50.71 51.21C45.89 56.03 44.34 57 41.46 57C39.05 57 38 57.46 38 58.5C38 59.33 38.79 59.99 39.75 59.98C40.71 59.97 42.85 60.62 44.5 61.43C46.15 62.24 49.53 65.07 52 67.7C54.48 70.34 57.07 73.51 57.75 74.75C58.44 75.99 59 77.67 59 78.5C59 79.33 59.67 80 60.5 80C61.33 80 62 79.33 62 78.5C62 77.67 63 75.54 64.23 73.75C65.46 71.96 67.59 69.25 68.98 67.73C70.37 66.2 72.06 64.97 72.75 64.98C73.44 64.99 74 64.55 74 64C74 63.45 74.67 63 75.5 63C76.33 63 77.22 62.33 77.5 61.5C77.78 60.67 79.13 60 80.5 60C82.06 60 83 59.43 83 58.5C83 57.46 81.61 56.85 78.5 56.5C75.09 56.12 73.02 55.1 69.95 52.25C67.46 49.94 65.73 47.35 65.45 45.5C65.2 43.85 64.31 41.83 63.46 41C62.61 40.17 61.98 38.51 62.06 37.31C62.14 36.1 61.76 34.88 61.21 34.59C60.66 34.29 59.87 34.34 59.44 34.69C59.02 35.05 58.74 36.61 58.83 38.17Z" />
</svg>