<svg xmlns="http://www.w3.org/2000/svg" viewBox="0 0 82 101" width="82" height="101">
	
	<path id="characters" fill-rule="evenodd" class="shp0" d="M40.95 0C42.12 -0.01 44.93 1.64 47.18 3.68C51.16 7.27 51.62 7.38 63.9 7.35C76.11 7.33 76.62 7.44 79.31 10.67C81.97 13.87 82.08 15.65 82.01 51.72C81.93 89.04 81.9 89.46 78.89 92.2C76.14 94.71 74.62 94.96 62.88 94.91C50.73 94.85 49.69 95.04 46.5 97.95C44.62 99.65 42.16 101.05 41.04 101.05C39.91 101.05 37.45 99.65 35.58 97.95C32.39 95.05 31.3 94.84 19.19 94.85C7.62 94.86 5.89 94.56 3.12 92.14C0.02 89.44 0.01 89.34 0 51.72C-0.01 15.7 0.11 13.87 2.77 10.67C5.45 7.44 5.96 7.33 18.17 7.35C30.44 7.38 30.91 7.27 34.8 3.7C37.01 1.68 39.77 0.01 40.95 0ZM31.2 12.86C31.35 13.49 33.63 15.52 36.26 17.36L41.04 20.71C48.44 15.52 50.6 13.47 50.62 12.8C50.63 12.13 48.63 9.81 46.18 7.65C43.73 5.48 41.38 3.7 40.96 3.69C40.54 3.68 38.11 5.48 35.56 7.69C33.01 9.89 31.05 12.22 31.2 12.86ZM21.92 44.57C21.93 52.33 21.93 52.33 28.41 57.24C33.89 61.39 35.84 62.15 41.04 62.15C46.23 62.15 48.18 61.39 53.66 57.24C60.1 52.37 60.15 52.28 60.21 44.73C60.27 37.38 60.09 36.97 54.75 32.57C49.65 28.35 48.61 28 41.04 28C33.55 28 32.39 28.38 27.39 32.4C22.09 36.66 21.92 37.05 21.92 44.57ZM21.76 72.55C20.54 73.81 18.51 76.75 17.26 79.09C16 81.43 15.15 84.99 15.38 87C15.78 90.63 15.82 90.65 25.34 91.01C31.36 91.23 36.03 90.78 37.97 89.79C40.48 88.5 41.6 88.5 44.11 89.79C46.05 90.78 50.71 91.23 56.74 91.01C66.25 90.65 66.29 90.63 66.7 87C66.92 84.99 66.08 81.43 64.82 79.09C63.56 76.75 61.53 73.81 60.32 72.55C59.1 71.29 55.49 69.24 52.3 67.99C49.11 66.74 43.89 65.75 40.7 65.8C37.5 65.85 32.44 66.87 29.43 68.07C26.43 69.27 22.98 71.29 21.76 72.55Z" />
</svg>