<svg xmlns="http://www.w3.org/2000/svg" viewBox="0 0 80 80" width="80" height="80">
	
	<path id="Path 0" fill-rule="evenodd" class="shp0" d="M40.5 5.08C41.05 5.08 42.74 6.86 44.25 9.04C46.71 12.59 46.85 13.18 45.53 14.75C44.71 15.71 44.04 17.29 44.03 18.25C44.01 19.21 46.42 23.04 49.38 26.75C52.33 30.46 55.82 34.48 59.5 37.88L65 34.09C68.03 32.01 70.66 29.45 70.85 28.4C71.05 27.36 71.95 25.71 72.85 24.75C73.76 23.79 75.29 22.78 76.25 22.5C77.55 22.13 78 22.58 77.99 24.25C77.98 25.49 75.72 32.58 72.96 40C70.2 47.42 67.45 54.63 66.85 56C66.26 57.38 65.43 59.17 65.02 60C64.61 60.83 61.84 62.69 58.88 64.14C55.92 65.59 51.59 67.62 49.26 68.64C46.93 69.66 45.02 70.84 45.01 71.25C45.01 71.66 42.98 72 40.5 72C38.02 72 35.99 71.66 35.99 71.25C35.98 70.84 34.07 69.66 31.74 68.64C29.41 67.62 25.08 65.59 22.12 64.14C19.16 62.69 16.39 60.83 15.98 60C15.57 59.17 14.74 57.38 14.15 56C13.55 54.63 10.83 47.42 8.1 40C5.37 32.58 2.99 25.6 2.82 24.5C2.58 22.98 2.98 22.58 4.5 22.84C5.6 23.03 7.29 23.93 8.26 24.84C9.22 25.75 10.12 27.36 10.26 28.41C10.39 29.46 12.97 32.02 21.5 37.88L23.87 35.69C25.18 34.48 28.67 30.46 31.62 26.75C34.58 23.04 36.99 19.21 36.97 18.25C36.96 17.29 36.29 15.71 35.47 14.75C34.15 13.18 34.29 12.59 36.75 9.04C38.26 6.86 39.95 5.08 40.5 5.08ZM37.25 47.49L34.5 49.98L40.5 55.5L46.5 49.81C43.21 47.25 41.77 45.6 41.16 44.5C40.56 43.4 40.05 43.06 40.03 43.75C40.01 44.44 38.76 46.12 37.25 47.49Z" />
</svg>