<svg xmlns="http://www.w3.org/2000/svg" viewBox="0 0 5000 5000" width="80" height="80">
	<style>
		
		.cryo { fill: #a3e3ef } 
	</style>
	<path id="Path 0" fill-rule="evenodd" class="cryo" d="M2520.02 3C2524.07 3 2525.55 3.51 2527.94 5.75C2529.95 7.62 2534.22 16 2541.32 32C2547.06 44.93 2558.5 70.13 2566.75 88C2575 105.88 2588.15 134 2595.97 150.5C2603.8 167 2623.57 207.5 2639.9 240.5C2656.24 273.5 2678.31 317.38 2688.95 338C2699.58 358.63 2715.04 388.32 2723.29 404C2731.55 419.68 2747.75 450.05 2759.3 471.5C2770.84 492.95 2788.61 525.58 2798.78 544C2808.95 562.42 2824.47 590.33 2833.26 606C2842.06 621.67 2859.16 651.83 2871.27 673C2883.37 694.17 2898.91 721.17 2905.79 733C2912.67 744.83 2927.29 769.8 2938.29 788.5C2949.29 807.2 2970.98 843.65 2986.49 869.5C3002.01 895.35 3025.86 934.73 3039.5 957C3053.15 979.27 3079.48 1021.8 3098.02 1051.5C3116.57 1081.2 3144.18 1125.08 3159.39 1149C3183.62 1187.14 3187.03 1192.99 3187.05 1196.5C3187.06 1198.98 3186.3 1201.55 3185.03 1203.25C3183.92 1204.76 3181.65 1206.67 3180 1207.5C3178.35 1208.33 3175.88 1209 3174.5 1209C3173.13 1209 3164.24 1206.73 3154.75 1203.94C3145.26 1201.16 3127.38 1195.71 3115 1191.83C3102.63 1187.94 3084.18 1181.85 3074 1178.29C3063.82 1174.73 3048.75 1169.09 3040.5 1165.77C3032.25 1162.45 3021.22 1157.74 3016 1155.31C3010.78 1152.88 3002.68 1148.65 2998 1145.92C2993.32 1143.18 2988.49 1140.28 2987.25 1139.47C2985.05 1138.04 2984.73 1138.37 2973.67 1153.25C2967.43 1161.64 2955.01 1178.85 2946.06 1191.5C2937.11 1204.15 2919.14 1230.47 2906.12 1250C2893.1 1269.53 2874.31 1298.55 2864.36 1314.5C2854.42 1330.45 2840.32 1353.63 2833.04 1366C2825.75 1378.38 2814.72 1397.5 2808.54 1408.5C2802.35 1419.5 2792.64 1437.05 2786.97 1447.5C2781.3 1457.95 2767.6 1484.5 2756.54 1506.5C2745.47 1528.5 2730.41 1559.55 2723.08 1575.5C2715.74 1591.45 2704.44 1616.88 2697.97 1632C2691.49 1647.13 2681.02 1672.55 2674.69 1688.5C2668.36 1704.45 2659.05 1728.75 2654 1742.5C2648.94 1756.25 2639.47 1783.47 2632.95 1803C2626.42 1822.53 2617.51 1850.42 2613.14 1865C2608.78 1879.58 2602.42 1901.63 2599.02 1914C2595.63 1926.38 2590.22 1946.85 2587.01 1959.5C2583.8 1972.15 2579.3 1990.6 2577.03 2000.5C2574.75 2010.4 2570.91 2027.72 2568.5 2039C2566.09 2050.28 2562.07 2070.19 2559.56 2083.25C2557.05 2096.31 2553.22 2117.46 2551.05 2130.25C2548.87 2143.04 2545.48 2164.53 2543.51 2178C2541.54 2191.47 2538.36 2215.1 2536.44 2230.5C2534.52 2245.9 2532.66 2263.9 2532.31 2270.5C2531.69 2282.34 2531.64 2282.54 2528.44 2285.75C2525.63 2288.57 2524.52 2289 2520.1 2289C2515.74 2289 2514.48 2288.53 2511.43 2285.75C2509.47 2283.96 2507.5 2281.15 2507.05 2279.5C2506.6 2277.85 2506.45 2275.38 2506.7 2274C2506.96 2272.63 2505.76 2259.35 2504.04 2244.5C2502.31 2229.65 2499.12 2204.9 2496.93 2189.5C2494.74 2174.1 2490.94 2149.46 2488.48 2134.75C2486.01 2120.04 2481.95 2097.31 2479.45 2084.25C2476.96 2071.19 2472.65 2049.93 2469.88 2037C2467.12 2024.08 2462.19 2002.25 2458.92 1988.5C2455.66 1974.75 2450.26 1953.15 2446.92 1940.5C2443.58 1927.85 2437.7 1906.47 2433.84 1893C2429.99 1879.53 2423.97 1859.28 2420.48 1848C2416.98 1836.72 2410.45 1816.47 2405.95 1803C2401.46 1789.53 2394.06 1768.15 2389.5 1755.5C2384.95 1742.85 2378.2 1724.63 2374.52 1715C2370.83 1705.38 2364.2 1688.5 2359.78 1677.5C2355.35 1666.5 2347.12 1646.7 2341.49 1633.5C2335.85 1620.3 2326.74 1599.6 2321.24 1587.5C2315.75 1575.4 2305.49 1553.58 2298.44 1539C2291.4 1524.42 2279.13 1499.9 2271.18 1484.5C2263.23 1469.1 2251.56 1447.05 2245.24 1435.5C2238.92 1423.95 2228.35 1405.05 2221.75 1393.5C2215.15 1381.95 2203.12 1361.47 2195.02 1348C2186.91 1334.53 2174.31 1314.05 2167 1302.5C2159.7 1290.95 2145.51 1269.13 2135.48 1254C2125.45 1238.88 2111.27 1217.95 2103.98 1207.5C2096.68 1197.05 2082.56 1177.3 2072.61 1163.62C2062.65 1149.94 2054.28 1138.61 2054 1138.45C2053.72 1138.28 2050.35 1140.17 2046.5 1142.64C2042.65 1145.11 2033.65 1149.98 2026.5 1153.46C2019.35 1156.94 2006.08 1162.72 1997 1166.3C1987.92 1169.89 1972.85 1175.5 1963.5 1178.78C1954.15 1182.06 1937.05 1187.7 1925.5 1191.32C1913.95 1194.94 1896.06 1200.4 1885.75 1203.45C1875.44 1206.5 1865.2 1209 1863 1209C1860.2 1209 1858.1 1208.25 1856 1206.5C1854.35 1205.13 1852.51 1202.31 1851.9 1200.25C1851.04 1197.31 1851.11 1195.74 1852.22 1193C1853 1191.08 1864.23 1172.85 1877.18 1152.5C1890.13 1132.15 1908.5 1103.13 1918.01 1088C1927.53 1072.88 1945.65 1043.85 1958.3 1023.5C1970.94 1003.15 1994.2 965.35 2009.98 939.5C2025.76 913.65 2050.38 872.92 2064.68 849C2078.98 825.08 2100.73 788.4 2113 767.5C2125.27 746.6 2150.25 703.4 2168.5 671.5C2186.76 639.6 2211.83 595.27 2224.21 573C2236.6 550.73 2254.82 517.65 2264.71 499.5C2274.59 481.35 2290.12 452.55 2299.21 435.5C2308.3 418.45 2323.52 389.65 2333.04 371.5C2342.55 353.35 2365.93 307.45 2384.99 269.5C2404.04 231.55 2426.54 186.1 2434.98 168.5C2443.41 150.9 2455.7 125.03 2462.27 111C2468.85 96.97 2482.08 68.18 2491.67 47C2504.07 19.62 2509.97 7.71 2512.07 5.75C2514.48 3.51 2515.97 3 2520.02 3ZM2487.94 838C2479.9 847.63 2466.86 862.7 2458.96 871.5C2451.06 880.3 2432.65 899.43 2418.05 914.01C2403.45 928.59 2384.97 946.41 2377 953.6C2369.03 960.79 2355.53 972.66 2347 979.96C2338.47 987.27 2324.86 998.59 2316.75 1005.12L2302 1017C2310.58 1032.89 2319.64 1050.55 2327.66 1066.5C2335.69 1082.45 2346.96 1105.63 2352.72 1118C2358.48 1130.38 2367.59 1150.63 2372.97 1163C2378.35 1175.38 2387.36 1196.97 2392.99 1211C2398.63 1225.03 2407.41 1247.75 2412.51 1261.5C2417.61 1275.25 2425.24 1296.63 2429.45 1309C2433.67 1321.38 2440.5 1342.3 2444.63 1355.5C2448.76 1368.7 2455.3 1390.53 2459.15 1404C2463 1417.47 2469.9 1443.35 2474.5 1461.5C2479.09 1479.65 2485.33 1505.75 2488.36 1519.5C2491.39 1533.25 2496.13 1555.97 2498.88 1570C2501.63 1584.03 2506.39 1610.58 2509.45 1629C2512.51 1647.42 2515.04 1663.63 2515.07 1665C2515.13 1667.3 2515.21 1667.34 2516.01 1665.5C2516.5 1664.4 2518.29 1655.4 2520 1645.5C2521.71 1635.6 2525.36 1616.03 2528.12 1602C2530.88 1587.97 2535.84 1564.35 2539.16 1549.5C2542.47 1534.65 2547.81 1511.92 2551.02 1499C2554.23 1486.08 2559.85 1464.47 2563.51 1451C2567.17 1437.53 2573.75 1414.58 2578.14 1400C2582.52 1385.42 2589.75 1362.47 2594.19 1349C2598.63 1335.53 2605.53 1315.28 2609.53 1304C2613.54 1292.72 2619.59 1276.08 2622.99 1267C2626.38 1257.92 2633.58 1239.47 2638.98 1226C2644.38 1212.53 2652.26 1193.4 2656.49 1183.5C2660.72 1173.6 2668.03 1156.95 2672.74 1146.5C2677.44 1136.05 2687.54 1114.45 2695.18 1098.5C2702.81 1082.55 2715.12 1057.91 2722.53 1043.75C2729.94 1029.59 2736.02 1017.66 2736.04 1017.25C2736.06 1016.84 2733.25 1014.25 2729.8 1011.5C2726.34 1008.75 2716.32 1000.49 2707.51 993.15C2698.7 985.81 2684.07 973.24 2675 965.21C2665.93 957.18 2644.74 936.87 2627.93 920.06C2611.11 903.25 2592.16 883.65 2585.82 876.5C2579.48 869.35 2568.1 856.08 2560.53 847C2552.96 837.92 2541.16 823.08 2534.31 814C2527.45 804.92 2521.54 797.39 2521.16 797.26C2520.78 797.12 2516.44 802.3 2511.51 808.76C2506.59 815.22 2495.98 828.38 2487.94 838ZM369.5 1243.07C370.6 1243.04 377.35 1243.67 384.5 1244.47C391.65 1245.26 414.15 1247.5 434.5 1249.43C454.85 1251.37 487.93 1254.31 508 1255.97C528.08 1257.62 560.25 1260.09 579.5 1261.46C598.75 1262.83 633.63 1265.08 657 1266.47C680.38 1267.86 718.17 1269.89 741 1270.98C763.83 1272.07 800.95 1273.64 823.5 1274.47C846.05 1275.3 880.02 1276.42 899 1276.97C917.98 1277.51 961.85 1278.48 996.5 1279.11C1037.04 1279.84 1110.83 1280.05 1203.5 1279.68C1282.7 1279.37 1365.95 1278.65 1388.5 1278.08C1411.05 1277.51 1446.6 1276.57 1467.5 1276C1488.4 1275.42 1525.3 1274.28 1549.5 1273.46C1573.7 1272.64 1609.47 1271.32 1629 1270.52C1648.53 1269.72 1677.61 1268.49 1693.63 1267.78C1720.87 1266.58 1722.99 1266.61 1726.38 1268.25C1728.43 1269.24 1730.7 1271.41 1731.63 1273.25C1732.73 1275.47 1733.08 1277.93 1732.72 1281C1732.21 1285.23 1731.37 1286.29 1718.84 1298.5C1711.5 1305.66 1699.42 1317.13 1691.99 1324C1684.55 1330.88 1671.5 1342.63 1662.99 1350.12C1654.47 1357.61 1640.08 1369.68 1631 1376.94C1621.92 1384.21 1608.88 1393.9 1602 1398.49C1595.13 1403.08 1586.35 1408.49 1582.5 1410.52C1578.65 1412.55 1575.65 1414.73 1575.82 1415.36C1576 1415.99 1578.19 1421.22 1580.69 1427C1583.19 1432.78 1589.4 1446.72 1594.5 1458C1599.6 1469.28 1607.69 1486.83 1612.48 1497C1617.27 1507.17 1629.18 1531.47 1638.96 1551C1648.73 1570.53 1662.02 1596.4 1668.5 1608.5C1674.98 1620.6 1685.69 1640.17 1692.31 1652C1698.92 1663.83 1710.4 1683.85 1717.82 1696.5C1725.24 1709.15 1739.43 1732.55 1749.35 1748.5C1759.28 1764.45 1777.16 1792.13 1789.08 1810C1801.01 1827.88 1818.31 1853.08 1827.53 1866C1836.76 1878.92 1851.54 1899.17 1860.39 1911C1869.24 1922.83 1884.08 1942.17 1893.38 1954C1902.68 1965.83 1920.06 1987.2 1931.99 2001.5C1943.92 2015.8 1960.39 2035.14 1968.59 2044.47C1976.79 2053.81 1991.15 2069.78 2000.5 2079.97C2009.85 2090.15 2027.66 2109.06 2040.09 2121.99C2052.51 2134.92 2073.66 2156.12 2087.09 2169.09C2100.51 2182.07 2118.03 2198.72 2126.02 2206.09C2134 2213.47 2148.4 2226.5 2158.02 2235.05C2167.63 2243.6 2181.8 2256.01 2189.5 2262.63C2197.2 2269.25 2213.63 2282.97 2226 2293.11C2238.38 2303.25 2258.4 2319.23 2270.5 2328.62C2282.6 2338.01 2300.49 2351.61 2310.25 2358.84C2320.01 2366.08 2330.14 2373.06 2332.75 2374.36C2335.36 2375.66 2338.37 2378.03 2339.42 2379.61C2340.52 2381.26 2341.35 2384.22 2341.35 2386.5C2341.35 2388.7 2340.64 2391.63 2339.77 2393C2338.91 2394.38 2336.58 2396.29 2334.6 2397.25C2332.62 2398.21 2329.31 2399 2327.25 2399C2324.93 2399.01 2322.17 2398.1 2320 2396.61C2318.07 2395.29 2303.68 2388.71 2288 2381.98C2272.32 2375.25 2245.55 2364.22 2228.5 2357.46C2211.45 2350.7 2184.45 2340.46 2168.5 2334.7C2152.55 2328.94 2125.1 2319.48 2107.5 2313.68C2089.9 2307.88 2064.25 2299.77 2050.5 2295.66C2036.75 2291.56 2015.6 2285.48 2003.5 2282.16C1991.4 2278.84 1968.9 2272.98 1953.5 2269.13C1938.1 2265.28 1912.22 2259.2 1896 2255.62C1879.78 2252.04 1855.92 2247.04 1843 2244.52C1830.08 2241.99 1806.45 2237.71 1790.5 2235C1774.55 2232.28 1752.28 2228.72 1741 2227.07C1729.72 2225.43 1709.7 2222.72 1696.5 2221.06C1683.3 2219.4 1661.92 2216.93 1649 2215.57C1636.08 2214.2 1614.47 2212.17 1601 2211.06C1587.53 2209.94 1565.92 2208.36 1553 2207.54C1540.08 2206.73 1517.35 2205.5 1502.5 2204.8C1486.47 2204.05 1447.27 2203.54 1406 2203.54C1365.59 2203.55 1325.2 2204.07 1309.5 2204.8C1294.65 2205.49 1271.25 2206.73 1257.5 2207.56C1243.75 2208.39 1223.95 2209.74 1213.5 2210.55C1203.05 2211.37 1184.83 2212.93 1173 2214.02C1161.17 2215.11 1142.95 2216.92 1132.5 2218.03C1122.05 2219.15 1112.6 2220.25 1111.5 2220.48C1109.61 2220.88 1109.52 2221.58 1109.83 2232.7C1110.02 2239.19 1109.66 2250.13 1109.03 2257C1108.41 2263.88 1106.76 2277.15 1105.38 2286.5C1103.99 2295.85 1101.06 2312.72 1098.85 2324C1096.65 2335.28 1092.6 2354.4 1089.87 2366.5C1087.13 2378.6 1083.12 2395.59 1080.95 2404.25C1078.78 2412.91 1076.44 2420.88 1075.75 2421.95C1075.06 2423.03 1073.26 2424.61 1071.75 2425.45C1070.24 2426.3 1067.2 2427 1065 2427C1061.83 2427 1060.31 2426.32 1057.7 2423.75C1055.64 2421.73 1048.22 2408.59 1038.06 2389C1029.08 2371.68 1014.97 2344.68 1006.71 2329C998.46 2313.32 981.14 2280.7 968.23 2256.5C955.32 2232.3 932.37 2189.78 917.23 2162C902.09 2134.22 879.81 2093.72 867.71 2072C855.62 2050.28 836.03 2015.4 824.19 1994.5C812.34 1973.6 794.47 1942.33 784.46 1925C774.46 1907.67 756.24 1876.4 743.97 1855.5C731.71 1834.6 709.9 1797.92 695.52 1774C681.13 1750.08 661.48 1717.67 651.84 1702C642.21 1686.33 626.44 1660.9 616.81 1645.5C607.18 1630.1 591.28 1604.9 581.48 1589.5C571.68 1574.1 554.44 1547.33 543.17 1530C531.9 1512.67 511.43 1481.63 497.67 1461C483.92 1440.38 464.34 1411.35 454.17 1396.5C444 1381.65 425.09 1354.42 412.16 1336C399.22 1317.58 382.78 1294.4 375.63 1284.5C368.47 1274.6 361.56 1264.92 360.28 1263C358.72 1260.67 357.95 1258.08 357.97 1255.25C357.99 1252.23 358.73 1250.11 360.52 1247.91C361.9 1246.2 364.04 1244.43 365.27 1243.97C366.5 1243.51 368.4 1243.1 369.5 1243.07ZM1321 1578.51C1309.72 1582.76 1287.9 1590.43 1272.5 1595.54C1257.1 1600.65 1235.72 1607.32 1225 1610.37C1214.28 1613.41 1197.17 1617.96 1187 1620.48C1176.83 1623 1159.05 1627.04 1147.5 1629.47C1135.95 1631.9 1116.83 1635.47 1105 1637.4C1093.17 1639.33 1075.63 1641.89 1066 1643.1C1056.38 1644.31 1048.39 1645.45 1048.25 1645.65C1048.11 1645.84 1050.76 1652.86 1054.12 1661.25C1057.49 1669.64 1063.06 1684.15 1066.49 1693.5C1069.93 1702.85 1075.92 1720.17 1079.81 1732C1083.69 1743.83 1089.11 1761.38 1091.86 1771C1094.6 1780.63 1098.44 1794.58 1100.39 1802C1102.34 1809.42 1105.71 1823.15 1107.89 1832.5C1110.07 1841.85 1113.87 1859.63 1116.34 1872C1118.8 1884.38 1122.46 1904.85 1124.47 1917.5C1126.48 1930.15 1128.32 1941.51 1128.56 1942.75C1128.98 1944.89 1129.56 1945.02 1140.25 1945.49C1146.44 1945.76 1160.95 1946.46 1172.5 1947.04C1184.05 1947.62 1205.2 1948.99 1219.5 1950.08C1233.8 1951.18 1254.28 1952.96 1265 1954.05C1275.72 1955.13 1293.95 1957.17 1305.5 1958.58C1317.05 1959.98 1335.72 1962.47 1347 1964.1C1358.28 1965.74 1379.65 1969.12 1394.5 1971.62C1409.35 1974.12 1432.75 1978.39 1446.5 1981.12C1460.25 1983.85 1481.63 1988.36 1494 1991.14C1506.38 1993.92 1526.4 1998.65 1538.5 2001.65C1550.6 2004.65 1570.17 2009.76 1582 2013C1593.83 2016.24 1613.63 2021.89 1626 2025.54C1638.38 2029.19 1662.22 2036.69 1679 2042.21C1695.78 2047.72 1720.08 2056.04 1733 2060.68C1745.92 2065.32 1765.84 2072.69 1777.25 2077.06C1788.66 2081.43 1798.22 2085 1798.5 2085C1798.78 2085 1790.34 2077.69 1779.75 2068.76C1769.16 2059.83 1752.4 2045.37 1742.5 2036.63C1732.6 2027.89 1713.94 2011.01 1701.02 1999.12C1688.11 1987.23 1663.33 1963.33 1645.95 1946C1628.58 1928.67 1607.42 1907.07 1598.93 1897.99C1590.44 1888.92 1576.79 1874.07 1568.59 1864.99C1560.39 1855.92 1545.54 1839.02 1535.59 1827.44C1525.64 1815.85 1510.73 1798.08 1502.45 1787.94C1494.17 1777.8 1481.07 1761.4 1473.34 1751.5C1465.62 1741.6 1452.78 1724.72 1444.81 1714C1436.85 1703.28 1423.65 1685.05 1415.47 1673.5C1407.3 1661.95 1391.55 1638.78 1380.47 1622C1369.4 1605.22 1357.22 1586.44 1353.42 1580.26C1349.61 1574.08 1346.05 1569.03 1345.5 1569.04C1344.95 1569.05 1343.83 1569.45 1343 1569.92C1342.17 1570.39 1332.28 1574.26 1321 1578.51ZM4667.75 1243.13C4669.54 1243.06 4672.35 1243.67 4674 1244.5C4675.65 1245.33 4677.9 1247.46 4679 1249.25C4680.09 1251.04 4680.98 1253.85 4680.95 1255.5C4680.93 1257.15 4680.15 1259.88 4679.21 1261.57C4678.27 1263.25 4666.89 1279.45 4653.93 1297.57C4640.96 1315.68 4621.12 1343.78 4609.84 1360C4598.56 1376.22 4578.5 1405.47 4565.26 1425C4552.02 1444.53 4529.53 1478.28 4515.27 1500C4501.02 1521.72 4481.7 1551.42 4472.34 1566C4462.99 1580.58 4446.12 1607.13 4434.85 1625C4423.58 1642.88 4404.67 1673.25 4392.83 1692.5C4380.99 1711.75 4364.1 1739.42 4355.29 1754C4346.49 1768.58 4331.51 1793.55 4322 1809.5C4312.5 1825.45 4294.72 1855.6 4282.51 1876.5C4270.29 1897.4 4249.49 1933.4 4236.28 1956.5C4223.08 1979.6 4203.04 2014.92 4191.76 2035C4180.48 2055.07 4160.24 2091.53 4146.78 2116C4133.32 2140.47 4114.86 2174.22 4105.77 2191C4096.68 2207.78 4078.68 2241.3 4065.77 2265.5C4052.86 2289.7 4031.37 2330.43 4018.02 2356C4004.66 2381.57 3991.36 2407 3988.46 2412.5C3985.55 2418 3982.35 2423.3 3981.34 2424.29C3980.33 2425.27 3977.47 2426.34 3975 2426.66C3971.85 2427.07 3969.52 2426.76 3967.25 2425.63C3965.46 2424.73 3963.38 2422.76 3962.63 2421.25C3961.87 2419.74 3958.97 2409.05 3956.18 2397.5C3953.39 2385.95 3949.31 2368.4 3947.12 2358.5C3944.93 2348.6 3941.78 2333.53 3940.13 2325C3938.47 2316.47 3936.2 2304.1 3935.1 2297.5C3933.99 2290.9 3932.33 2279.88 3931.4 2273C3930.48 2266.13 3929.45 2251.51 3928.5 2220.52L3909 2218.37C3898.28 2217.18 3879.15 2215.26 3866.5 2214.1C3853.85 2212.94 3835.18 2211.34 3825 2210.54C3814.82 2209.74 3795.03 2208.4 3781 2207.56C3766.97 2206.71 3745.15 2205.55 3732.5 2204.98C3719.85 2204.41 3686.1 2203.67 3657.5 2203.34C3625.69 2202.97 3590.94 2203.18 3568 2203.89C3547.38 2204.53 3522.18 2205.49 3512 2206.03C3501.82 2206.57 3483.38 2207.7 3471 2208.54C3458.63 2209.38 3436.13 2211.19 3421 2212.57C3405.88 2213.94 3381.57 2216.42 3367 2218.07C3352.43 2219.73 3326.32 2223.1 3309 2225.56C3291.68 2228.02 3265.35 2232.08 3250.5 2234.59C3235.65 2237.09 3210.9 2241.61 3195.5 2244.64C3180.1 2247.66 3158.5 2252.1 3147.5 2254.5C3136.5 2256.9 3117.82 2261.17 3106 2264C3094.18 2266.83 3074.15 2271.85 3061.5 2275.15C3048.85 2278.45 3025.45 2284.9 3009.5 2289.49C2993.55 2294.07 2967.68 2301.9 2952 2306.87C2936.32 2311.84 2912.03 2319.92 2898 2324.83C2883.97 2329.74 2863.72 2337.01 2853 2340.99C2842.28 2344.98 2821.8 2352.86 2807.5 2358.52C2793.2 2364.17 2768.68 2374.28 2753 2380.98C2737.32 2387.68 2722.47 2394.47 2720 2396.06C2716.76 2398.14 2714.24 2398.96 2711 2398.97C2708.23 2398.99 2705.25 2398.23 2703.25 2397C2701.46 2395.9 2699.28 2393.31 2698.4 2391.25C2697.43 2388.95 2697.05 2386.34 2697.44 2384.5C2697.79 2382.85 2698.73 2380.49 2699.54 2379.25C2700.34 2378.01 2703.25 2375.88 2706 2374.5C2708.75 2373.13 2723.71 2362.45 2739.25 2350.78C2754.79 2339.11 2779.65 2319.82 2794.5 2307.91C2809.35 2296 2831.18 2278.02 2843 2267.95C2854.82 2257.88 2872.36 2242.63 2881.97 2234.07C2891.58 2225.51 2905.98 2212.43 2913.96 2205C2921.94 2197.57 2939.28 2181.09 2952.49 2168.36C2965.69 2155.63 2988.25 2132.91 3002.61 2117.86C3016.97 2102.81 3034.3 2084.41 3041.11 2076.97C3047.93 2069.53 3061.39 2054.46 3071.04 2043.47C3080.68 2032.49 3097.38 2012.92 3108.13 2000C3118.89 1987.08 3135.49 1966.6 3145.01 1954.5C3154.53 1942.4 3170.06 1922.15 3179.51 1909.5C3188.96 1896.85 3202.31 1878.63 3209.19 1869C3216.06 1859.38 3228.9 1840.92 3237.73 1828C3246.55 1815.08 3260.72 1793.7 3269.22 1780.5C3277.71 1767.3 3290.06 1747.72 3296.66 1737C3303.26 1726.28 3314.74 1707.15 3322.16 1694.5C3329.59 1681.85 3341.31 1661.38 3348.21 1649C3355.12 1636.63 3365.8 1617.05 3371.96 1605.5C3378.11 1593.95 3392 1566.72 3402.83 1545C3413.65 1523.28 3426.77 1496.28 3431.98 1485C3437.19 1473.72 3446.45 1453.25 3463.68 1414.5L3454.58 1409.5C3449.58 1406.75 3441.89 1402.06 3437.49 1399.08C3433.1 1396.1 3424.32 1389.73 3418 1384.93C3411.68 1380.12 3400.66 1371.31 3393.53 1365.34C3386.39 1359.38 3371.54 1346.34 3360.53 1336.36C3349.51 1326.38 3333.3 1311.38 3324.5 1303.04C3315.7 1294.69 3307.95 1286.88 3307.29 1285.68C3306.62 1284.48 3306.06 1281.7 3306.04 1279.5C3306.02 1277.3 3306.83 1274.15 3307.84 1272.5C3308.85 1270.85 3310.94 1268.83 3312.48 1268C3314.95 1266.68 3318.82 1266.65 3344.89 1267.79C3361.18 1268.5 3390.25 1269.73 3409.5 1270.51C3428.75 1271.3 3464.97 1272.63 3490 1273.47C3515.03 1274.31 3551.03 1275.44 3570 1275.98C3588.97 1276.52 3627.68 1277.53 3656 1278.23C3689.22 1279.05 3768.21 1279.5 3878.5 1279.5C3992.24 1279.5 4065.07 1279.07 4096 1278.22C4121.57 1277.52 4162.52 1276.28 4187 1275.46C4211.48 1274.64 4247.02 1273.29 4266 1272.46C4284.98 1271.63 4317.15 1270.06 4337.5 1268.98C4357.85 1267.89 4389.13 1266.08 4407 1264.97C4424.88 1263.85 4454.57 1261.82 4473 1260.46C4491.43 1259.1 4520.23 1256.85 4537 1255.46C4553.77 1254.07 4583.93 1251.35 4604 1249.42C4624.07 1247.49 4645.9 1245.32 4652.5 1244.58C4659.1 1243.85 4665.96 1243.19 4667.75 1243.13ZM3667.68 1608C3660.02 1619.83 3647.43 1638.72 3639.69 1650C3631.95 1661.28 3619.78 1678.6 3612.66 1688.5C3605.53 1698.4 3592.04 1716.63 3582.68 1729C3573.32 1741.38 3559.56 1759.15 3552.11 1768.5C3544.65 1777.85 3530.84 1794.72 3521.43 1806C3512.01 1817.28 3497.79 1833.92 3489.82 1843C3481.85 1852.08 3469.79 1865.58 3463.02 1873C3456.25 1880.42 3438.88 1898.88 3424.42 1914C3409.96 1929.13 3388.77 1950.53 3377.32 1961.57C3365.87 1972.61 3351.55 1986.3 3345.5 1991.99C3339.45 1997.69 3325.72 2010.26 3315 2019.95C3304.28 2029.63 3286.05 2045.64 3274.5 2055.53C3262.95 2065.42 3250.49 2075.98 3246.82 2079C3243.14 2082.03 3240.22 2084.63 3240.32 2084.78C3240.42 2084.93 3249.28 2081.72 3260 2077.64C3270.72 2073.56 3287.82 2067.18 3298 2063.47C3308.18 2059.76 3328.43 2052.71 3343 2047.8C3357.57 2042.89 3379.4 2035.79 3391.5 2032.03C3403.6 2028.27 3424.07 2022.18 3437 2018.5C3449.93 2014.82 3472.65 2008.72 3487.5 2004.94C3502.35 2001.16 3523.28 1996.05 3534 1993.59C3544.72 1991.12 3563.18 1987.08 3575 1984.6C3586.82 1982.12 3607.75 1978.06 3621.5 1975.58C3635.25 1973.1 3653.47 1969.96 3662 1968.59C3670.53 1967.23 3687.18 1964.76 3699 1963.1C3710.82 1961.44 3728.15 1959.17 3737.5 1958.04C3746.85 1956.92 3763.28 1955.12 3774 1954.03C3784.72 1952.95 3805.2 1951.17 3819.5 1950.07C3833.8 1948.96 3854.95 1947.6 3866.5 1947.02C3878.05 1946.45 3892.56 1945.76 3898.75 1945.49C3904.94 1945.22 3910 1944.66 3909.99 1944.25C3909.99 1943.84 3911.79 1932.47 3914 1919C3916.21 1905.53 3919.85 1885.28 3922.09 1874C3924.32 1862.72 3928.17 1844.72 3930.63 1834C3933.09 1823.28 3937.75 1804.6 3940.99 1792.5C3944.22 1780.4 3949.8 1761.05 3953.38 1749.5C3956.96 1737.95 3961.76 1723.1 3964.04 1716.5C3966.32 1709.9 3970.79 1697.53 3973.97 1689C3977.15 1680.47 3982.29 1667.2 3985.39 1659.5C3988.49 1651.8 3990.91 1645.45 3990.76 1645.38C3990.62 1645.32 3984.2 1644.5 3976.5 1643.57C3968.8 1642.64 3953.72 1640.53 3943 1638.88C3932.28 1637.23 3912.47 1633.68 3899 1630.99C3885.53 1628.3 3863.47 1623.34 3850 1619.96C3836.53 1616.58 3815.82 1610.95 3804 1607.45C3792.18 1603.96 3771.25 1597.29 3757.5 1592.64C3743.75 1587.99 3724.18 1580.94 3714 1576.99C3703.82 1573.04 3694.82 1569.6 3694 1569.36C3692.98 1569.07 3690.75 1571.75 3687.05 1577.71C3684.05 1582.55 3675.33 1596.17 3667.68 1608ZM2137.15 1835.98C2140.55 1835.96 2145.1 1837.68 2158 1843.86C2167.07 1848.21 2183.5 1855.7 2194.5 1860.51C2205.5 1865.31 2226.2 1873.94 2240.5 1879.69C2254.8 1885.43 2281.35 1895.69 2299.5 1902.49C2317.65 1909.28 2347.35 1920.06 2365.5 1926.43C2383.65 1932.81 2400.41 1938.92 2402.75 1940.01C2405.1 1941.11 2407.63 1943.23 2408.41 1944.75C2409.19 1946.26 2434.42 2046.28 2464.48 2167C2494.54 2287.72 2519.31 2386.28 2519.51 2386C2519.72 2385.72 2544.47 2286.72 2574.51 2166C2604.55 2045.28 2629.78 1945.49 2630.57 1944.25C2631.36 1943.01 2633.24 1941.36 2634.75 1940.58C2636.26 1939.8 2648.97 1935.12 2663 1930.18C2677.03 1925.25 2700.2 1916.92 2714.5 1911.69C2728.8 1906.45 2748.15 1899.25 2757.5 1895.68C2766.85 1892.12 2784.63 1885.14 2797 1880.19C2809.38 1875.24 2827.6 1867.72 2837.5 1863.48C2847.4 1859.24 2864.95 1851.32 2876.5 1845.88C2891.46 1838.83 2898.58 1835.99 2901.25 1836C2903.31 1836 2906.24 1836.83 2907.75 1837.85C2909.26 1838.87 2911.03 1841.01 2911.69 1842.6C2912.49 1844.56 2913.04 1856.73 2913.37 1880C2913.65 1899.76 2914.52 1921.12 2915.4 1930C2916.25 1938.53 2917.66 1951.8 2918.53 1959.5C2919.41 1967.2 2921.68 1984.53 2923.58 1998C2925.49 2011.47 2929.1 2034.65 2931.6 2049.5C2934.11 2064.35 2937.92 2085.95 2940.08 2097.5C2943.27 2114.62 2943.81 2119.19 2943 2122.25C2942.15 2125.45 2925.42 2142 2828.75 2235.29C2766.46 2295.39 2693.13 2366.16 2665.78 2392.54C2638.44 2418.92 2616.39 2440.62 2616.78 2440.76C2617.18 2440.91 2699.18 2417.65 2799 2389.09C2898.82 2360.52 2996.25 2332.61 3015.5 2327.06C3034.75 2321.51 3051.74 2316.98 3053.25 2316.99C3054.76 2316.99 3057.01 2317.53 3058.25 2318.18C3059.49 2318.83 3071.53 2328.83 3085 2340.39C3098.47 2351.95 3119.85 2370.01 3132.5 2380.53C3145.15 2391.04 3164.5 2406.84 3175.5 2415.64C3186.5 2424.44 3204.05 2438.17 3214.5 2446.16C3224.95 2454.15 3239.8 2465.18 3247.5 2470.67C3255.2 2476.16 3265.55 2483.35 3270.5 2486.65C3275.45 2489.95 3280.53 2493.97 3281.78 2495.58C3283.26 2497.47 3284.06 2499.82 3284.03 2502.25C3284.02 2504.31 3283.32 2507.35 3282.5 2509C3281.51 2510.99 3278.72 2513.23 3274.25 2515.64C3270.54 2517.64 3262.32 2522.23 3256 2525.85C3249.68 2529.47 3235.72 2538.3 3225 2545.47C3214.28 2552.64 3199.04 2563.23 3191.13 2569.01C3183.23 2574.78 3168.11 2586.25 3157.52 2594.5C3146.93 2602.75 3128.65 2617.41 3116.88 2627.09C3105.12 2636.76 3087.51 2651.49 3077.75 2659.84C3067.99 2668.18 3058.88 2675.45 3057.5 2676C3056.13 2676.55 3053.99 2677.01 3052.75 2677.01C3051.51 2677.02 2952.63 2648.93 2833 2614.59C2713.38 2580.25 2615.41 2552.23 2615.29 2552.33C2615.18 2552.42 2631.38 2568.25 2651.3 2587.5C2671.22 2606.75 2744.66 2677.64 2814.51 2745.03C2903.47 2830.87 2941.92 2868.6 2942.91 2871.03C2944.2 2874.22 2943.97 2876.29 2940.15 2896.5C2937.87 2908.6 2933.98 2930.43 2931.52 2945C2929.06 2959.57 2925.49 2982.53 2923.58 2996C2921.68 3009.47 2919.41 3026.8 2918.53 3034.5C2917.66 3042.2 2916.25 3055.47 2915.41 3064C2914.53 3072.76 2913.65 3094.28 2913.37 3113.5C2913.04 3136.35 2912.48 3148.45 2911.69 3150.41C2911.03 3152.01 2909.26 3154.37 2907.75 3155.66C2905.95 3157.19 2903.7 3158.01 2901.25 3158.03C2898.61 3158.05 2892.77 3155.8 2881.5 3150.44C2872.7 3146.26 2856.72 3138.99 2846 3134.3C2835.28 3129.6 2816.15 3121.58 2803.5 3116.46C2790.85 3111.35 2770.82 3103.48 2759 3098.97C2747.18 3094.45 2728.95 3087.62 2718.5 3083.77C2708.05 3079.93 2685.55 3071.85 2668.5 3065.82C2651.45 3059.79 2636.15 3054.05 2634.5 3053.05C2632.85 3052.05 2630.78 3049.72 2629.91 3047.87C2629.03 3046.01 2603.83 2946.26 2573.91 2826.2C2539.8 2689.33 2519.23 2608.57 2518.78 2609.7C2518.38 2610.69 2493.74 2709.26 2464.03 2828.75C2434.31 2948.24 2409.38 3047.24 2408.63 3048.75C2407.88 3050.26 2406.19 3052.2 2404.88 3053.07C2403.57 3053.93 2396.2 3056.79 2388.5 3059.42C2380.8 3062.05 2356.72 3070.65 2335 3078.52C2313.28 3086.4 2283.35 3097.57 2268.5 3103.34C2253.65 3109.12 2232.28 3117.66 2221 3122.31C2209.72 3126.97 2194.43 3133.47 2187 3136.76C2179.57 3140.06 2166.3 3146.19 2157.5 3150.4C2147.55 3155.15 2140.27 3158.03 2138.25 3158.02C2136.46 3158.01 2133.65 3157.32 2132 3156.5C2130.35 3155.68 2128.32 3153.65 2127.5 3152C2126.29 3149.58 2126 3144.33 2126 3125C2126 3111.8 2125.54 3094.14 2124.97 3085.75C2124.41 3077.36 2123.25 3063.53 2122.41 3055C2121.57 3046.47 2119.54 3028.93 2117.91 3016C2116.27 3003.07 2113.15 2981.25 2110.98 2967.5C2108.8 2953.75 2104.23 2927.2 2094.6 2874.5L2097.05 2869.88C2098.87 2866.46 2141.37 2824.89 2261.15 2709.38C2350.06 2623.65 2422.51 2553.38 2422.15 2553.24C2421.79 2553.09 2339.82 2576.35 2240 2604.92C2140.18 2633.48 2042.75 2661.39 2023.5 2666.94C2004.25 2672.49 1987.49 2677.02 1986.25 2677.01C1985.01 2677.01 1982.54 2676.37 1980.75 2675.59C1978.96 2674.81 1971.65 2669.11 1964.5 2662.92C1957.35 2656.72 1942.5 2644.16 1931.5 2635C1920.5 2625.84 1903.85 2612.28 1894.5 2604.87C1885.15 2597.45 1870.3 2585.99 1861.5 2579.4C1852.7 2572.8 1840.1 2563.55 1833.5 2558.83C1826.9 2554.11 1815.65 2546.44 1808.5 2541.78C1801.35 2537.13 1791.9 2531.15 1787.5 2528.5C1783.1 2525.85 1774.81 2521.16 1769.08 2518.09C1763.35 2515.01 1757.82 2511.38 1756.79 2510C1755.62 2508.43 1754.93 2505.83 1754.93 2503C1754.93 2499.83 1755.6 2497.65 1757.22 2495.6C1758.47 2494.01 1766.47 2487.93 1775 2482.1C1783.53 2476.27 1801.3 2463.4 1814.5 2453.5C1827.7 2443.59 1848.4 2427.58 1860.5 2417.91C1872.6 2408.24 1892.17 2392.3 1904 2382.48C1915.83 2372.66 1937.42 2354.43 1952 2341.97C1966.58 2329.52 1979.51 2318.8 1980.75 2318.16C1981.99 2317.52 1984.24 2317.01 1985.75 2317.02C1987.26 2317.03 2031.47 2329.37 2084 2344.46C2136.53 2359.54 2233.95 2387.45 2300.5 2406.47C2367.05 2425.5 2421.78 2440.93 2422.13 2440.78C2422.48 2440.63 2349.72 2370.07 2260.44 2284C2120.19 2148.78 2097.88 2126.89 2096.4 2123C2094.71 2118.58 2094.74 2118.21 2097.93 2101.5C2099.71 2092.15 2102.71 2075.72 2104.59 2065C2106.46 2054.28 2109.78 2034.03 2111.96 2020C2114.13 2005.97 2117.28 1983.47 2118.95 1970C2120.61 1956.53 2122.7 1937.63 2123.58 1928C2124.46 1918.38 2125.43 1895.2 2126.28 1842.5L2129.54 1839.25C2132.21 1836.59 2133.59 1836 2137.15 1835.98ZM1066.25 2567.06C1069.14 2567.01 1070.81 2567.74 1073.53 2570.25C1076.92 2573.37 1077.29 2574.42 1082.5 2596C1085.48 2608.38 1089.72 2626.6 1091.9 2636.5C1094.08 2646.4 1097.44 2662.6 1099.35 2672.5C1101.27 2682.4 1103.8 2696.8 1104.97 2704.5C1106.15 2712.2 1107.75 2724.57 1108.54 2732C1109.33 2739.43 1109.98 2751.8 1109.99 2773.5L1125.75 2775.24C1134.41 2776.19 1153.2 2778.09 1167.5 2779.46C1181.8 2780.83 1202.28 2782.62 1213 2783.45C1223.72 2784.29 1243.53 2785.64 1257 2786.45C1270.47 2787.27 1293.2 2788.51 1307.5 2789.2C1323.17 2789.95 1362.3 2790.45 1406 2790.45C1450.08 2790.45 1488.69 2789.96 1504.5 2789.19C1518.8 2788.49 1541.08 2787.26 1554 2786.44C1566.92 2785.63 1585.83 2784.29 1596 2783.47C1606.17 2782.64 1625.75 2780.84 1639.5 2779.46C1653.25 2778.08 1675.3 2775.63 1688.5 2774.01C1701.7 2772.39 1723.53 2769.47 1737 2767.52C1750.47 2765.57 1773.65 2761.92 1788.5 2759.41C1803.35 2756.91 1828.1 2752.39 1843.5 2749.36C1858.9 2746.34 1880.5 2741.9 1891.5 2739.5C1902.5 2737.1 1921.17 2732.84 1933 2730.01C1944.83 2727.19 1964.63 2722.23 1977 2718.99C1989.38 2715.74 2010.53 2709.95 2024 2706.12C2037.47 2702.28 2058.18 2696.15 2070 2692.49C2081.82 2688.83 2102.97 2682 2117 2677.32C2131.03 2672.64 2152.85 2665.06 2165.5 2660.48C2178.15 2655.91 2197.5 2648.71 2208.5 2644.5C2219.5 2640.28 2239.53 2632.32 2253 2626.81C2266.47 2621.3 2286.28 2612.95 2297 2608.26C2307.72 2603.58 2318.07 2598.67 2320 2597.37C2322.15 2595.91 2324.94 2594.99 2327.25 2595C2329.31 2595 2332.66 2595.79 2334.69 2596.75C2337.35 2598.01 2338.88 2599.69 2340.19 2602.75C2341.61 2606.09 2341.8 2607.8 2341.05 2610.75C2340.53 2612.81 2339.3 2615.24 2338.3 2616.13C2337.31 2617.03 2334.7 2618.67 2332.5 2619.77C2330.3 2620.88 2321.3 2627.08 2312.5 2633.55C2303.7 2640.03 2289.75 2650.51 2281.5 2656.85C2273.25 2663.19 2258.85 2674.47 2249.5 2681.92C2240.15 2689.37 2223.05 2703.33 2211.5 2712.95C2199.95 2722.57 2181.72 2738.13 2171 2747.53C2160.28 2756.93 2143.85 2771.61 2134.5 2780.15C2125.15 2788.68 2105.6 2807.11 2091.06 2821.09C2076.51 2835.06 2051.71 2860 2035.93 2876.5C2020.16 2893 2001.94 2912.35 1995.44 2919.5C1988.94 2926.65 1975.94 2941.28 1966.55 2952C1957.15 2962.72 1942.7 2979.6 1934.44 2989.5C1926.17 2999.4 1913.1 3015.38 1905.39 3025C1897.69 3034.63 1884.62 3051.28 1876.37 3062C1868.11 3072.72 1854.6 3090.72 1846.34 3102C1838.09 3113.28 1825.81 3130.38 1819.06 3140C1812.3 3149.63 1799.7 3168.07 1791.04 3181C1782.38 3193.93 1768.86 3214.63 1760.98 3227C1753.1 3239.38 1738.02 3263.9 1727.48 3281.5C1716.94 3299.1 1702.01 3324.75 1694.31 3338.5C1686.6 3352.25 1674.66 3374.07 1667.77 3387C1660.87 3399.93 1647.3 3426.36 1637.62 3445.75C1627.93 3465.14 1615.22 3491.24 1609.37 3503.75C1603.53 3516.26 1594.92 3535.05 1590.24 3545.5C1585.56 3555.95 1580.22 3567.99 1575 3580L1582.25 3583.59C1586.24 3585.56 1595.13 3590.92 1602 3595.51C1608.88 3600.1 1620.8 3608.9 1628.5 3615.06C1636.2 3621.22 1648.35 3631.3 1655.5 3637.45C1662.65 3643.61 1676.15 3655.63 1685.5 3664.17C1694.85 3672.7 1709.18 3686.17 1717.36 3694.09C1731.44 3707.75 1732.24 3708.73 1732.73 3713C1733.08 3716.05 1732.73 3718.55 1731.63 3720.75C1730.7 3722.6 1728.44 3724.76 1726.38 3725.75C1722.92 3727.42 1720.78 3727.42 1681.13 3725.72C1658.23 3724.75 1622.85 3723.3 1602.5 3722.51C1582.15 3721.71 1543.67 3720.38 1517 3719.55C1490.33 3718.72 1449.6 3717.57 1426.5 3717C1403.4 3716.43 1359.08 3715.53 1328 3714.99C1296.92 3714.46 1220.65 3714.02 1158.5 3714.02C1096.35 3714.02 1021.88 3714.46 993 3715C964.13 3715.54 923.63 3716.44 903 3717.01C882.38 3717.58 847.27 3718.72 825 3719.54C802.73 3720.37 769.88 3721.71 752 3722.53C734.13 3723.36 703.3 3724.93 683.5 3726.04C663.7 3727.14 630.63 3729.16 610 3730.53C589.38 3731.89 557.88 3734.14 540 3735.53C522.13 3736.92 494.68 3739.17 479 3740.53C463.32 3741.9 432.27 3744.83 410 3747.04C387.73 3749.26 368.38 3750.85 367 3750.57C365.63 3750.3 363.04 3748.48 361.25 3746.54C358.67 3743.73 357.99 3742.12 357.96 3738.75C357.93 3734.77 359.61 3732.14 384.29 3697.5C398.79 3677.15 422.04 3644.07 435.95 3624C449.86 3603.93 478.19 3562.07 498.9 3531C519.61 3499.93 546.27 3459.43 558.13 3441C569.99 3422.57 586.81 3396.25 595.5 3382.5C604.19 3368.75 619.41 3344.45 629.31 3328.5C639.22 3312.55 657.88 3282.18 670.79 3261C683.69 3239.82 703.49 3206.97 714.78 3188C726.06 3169.03 745.29 3136.4 757.5 3115.5C769.71 3094.6 792.43 3055.22 807.98 3028C823.53 3000.78 849.64 2954.43 866.01 2925C882.37 2895.57 905.2 2854.18 916.74 2833C928.28 2811.82 944.25 2782.35 952.23 2767.5C960.21 2752.65 976.41 2722.28 988.22 2700C1000.04 2677.72 1019.52 2640.6 1031.52 2617.5C1043.52 2594.4 1054.4 2574.01 1055.7 2572.18C1057 2570.35 1059.06 2568.47 1060.28 2567.99C1061.5 2567.52 1064.19 2567.1 1066.25 2567.06ZM1777.5 2916.84C1767.6 2920.66 1751.17 2926.82 1741 2930.53C1730.83 2934.24 1709.22 2941.73 1693 2947.18C1676.78 2952.63 1651.13 2960.85 1636 2965.44C1620.88 2970.04 1598.6 2976.51 1586.5 2979.83C1574.4 2983.15 1554.6 2988.35 1542.5 2991.38C1530.4 2994.4 1511.72 2998.9 1501 3001.38C1490.28 3003.85 1468 3008.58 1451.5 3011.9C1435 3015.21 1410.92 3019.72 1398 3021.93C1385.08 3024.14 1363.7 3027.51 1350.5 3029.42C1337.3 3031.33 1317.28 3034.03 1306 3035.43C1294.72 3036.82 1274.03 3039.09 1260 3040.46C1245.97 3041.83 1225.28 3043.63 1214 3044.45C1202.72 3045.27 1184.72 3046.4 1174 3046.95C1163.28 3047.5 1148.76 3048.18 1141.75 3048.47L1129 3049C1128.19 3054.04 1126.15 3066.53 1123.94 3080C1121.73 3093.47 1118.11 3113.5 1115.89 3124.5C1113.67 3135.5 1110.07 3152.15 1107.89 3161.5C1105.71 3170.85 1102.11 3185.47 1099.88 3194C1097.65 3202.53 1093.82 3216.47 1091.36 3225C1088.9 3233.53 1083.7 3250.18 1079.81 3262C1075.92 3273.82 1069.93 3291.15 1066.49 3300.5C1063.06 3309.85 1057.5 3324.25 1054.15 3332.5C1050.79 3340.75 1048.03 3347.84 1048.02 3348.25C1048.01 3348.66 1050.81 3349.26 1054.25 3349.57C1057.69 3349.88 1069.95 3351.46 1081.5 3353.09C1093.05 3354.71 1110.15 3357.41 1119.5 3359.09C1128.85 3360.76 1145.72 3364.16 1157 3366.63C1168.28 3369.11 1183.58 3372.66 1191 3374.52C1198.42 3376.38 1214.17 3380.66 1226 3384.02C1237.83 3387.38 1259.42 3394.1 1274 3398.96C1288.58 3403.81 1310.17 3411.48 1322 3415.99C1333.83 3420.5 1344.17 3424.39 1345 3424.62C1346.04 3424.91 1349.12 3420.81 1355 3411.3C1359.67 3403.74 1372.33 3384.27 1383.11 3368.03C1393.9 3351.79 1408.93 3329.72 1416.52 3319C1424.11 3308.28 1438.89 3288.03 1449.38 3274C1459.87 3259.97 1478.2 3236.35 1490.11 3221.5C1502.01 3206.65 1518.23 3186.87 1526.13 3177.54C1534.03 3168.22 1548.12 3152.02 1557.43 3141.54C1566.74 3131.07 1582.94 3113.28 1593.43 3102.02C1603.92 3090.76 1625.33 3068.68 1641 3052.96C1656.67 3037.23 1677.62 3016.75 1687.54 3007.44C1697.45 2998.12 1713.88 2983.01 1724.04 2973.86C1734.19 2964.71 1749.7 2951.02 1758.5 2943.44C1767.3 2935.86 1780.11 2925.01 1786.97 2919.33C1793.84 2913.65 1798.75 2909 1797.89 2909C1797.03 2909 1796.15 2909.2 1795.92 2909.45C1795.69 2909.69 1787.4 2913.02 1777.5 2916.84ZM3973 2567.01C3974.93 2567.01 3977.96 2567.91 3979.75 2569C3982.17 2570.49 3984.62 2574.12 3989.38 2583.25C3992.88 2589.99 4006.22 2615.53 4019.02 2640C4031.82 2664.47 4053.08 2704.75 4066.28 2729.5C4079.47 2754.25 4098.82 2790.25 4109.27 2809.5C4119.72 2828.75 4135.7 2858 4144.78 2874.5C4153.86 2891 4169.71 2919.57 4180 2938C4190.29 2956.43 4207.38 2986.8 4217.98 3005.5C4228.58 3024.2 4246.49 3055.47 4257.79 3075C4269.08 3094.53 4287.31 3125.8 4298.3 3144.5C4309.29 3163.2 4328.41 3195.38 4340.8 3216C4353.18 3236.63 4374.8 3272.18 4388.83 3295C4402.87 3317.82 4423.57 3351.13 4434.82 3369C4446.08 3386.88 4463.96 3415 4474.56 3431.5C4485.16 3448 4504.11 3477.12 4516.67 3496.21C4529.23 3515.31 4549.47 3545.68 4561.66 3563.71C4573.85 3581.75 4592.69 3609.32 4603.54 3625C4614.39 3640.68 4635.46 3670.57 4650.38 3691.44C4665.3 3712.31 4678.34 3730.99 4679.37 3732.94C4680.72 3735.51 4681.08 3737.61 4680.64 3740.5C4680.27 3742.97 4678.98 3745.55 4677.27 3747.26C4675.75 3748.77 4673.38 3750.25 4672 3750.54C4670.63 3750.84 4651.27 3749.26 4629 3747.04C4606.73 3744.83 4575.68 3741.9 4560 3740.54C4544.32 3739.18 4516.88 3736.94 4499 3735.55C4481.13 3734.16 4449.63 3731.91 4429 3730.54C4408.38 3729.17 4375.07 3727.14 4355 3726.02C4334.93 3724.91 4304.1 3723.34 4286.5 3722.52C4268.9 3721.71 4236.27 3720.37 4214 3719.55C4191.73 3718.72 4156.63 3717.58 4136 3717.01C4115.38 3716.44 4074.88 3715.54 4046 3715C4017.13 3714.46 3942.88 3714.01 3881 3714.01C3819.13 3714.01 3742.63 3714.45 3711 3714.99C3679.38 3715.53 3634.6 3716.44 3611.5 3717.01C3588.4 3717.58 3548.13 3718.72 3522 3719.53C3495.88 3720.35 3451.1 3721.93 3422.5 3723.04C3393.9 3724.15 3361.72 3725.49 3351 3726.01C3340.28 3726.54 3327.34 3726.98 3322.25 3726.99C3313.57 3727 3312.81 3726.83 3309.9 3724.25C3307.45 3722.08 3306.67 3720.44 3306.23 3716.5C3305.79 3712.62 3306.09 3710.81 3307.58 3708.39C3308.64 3706.68 3316.25 3698.86 3324.5 3691.01C3332.75 3683.16 3347.82 3669.18 3358 3659.95C3368.18 3650.71 3383.25 3637.45 3391.5 3630.49C3399.75 3623.52 3411.68 3613.88 3418 3609.08C3424.32 3604.27 3433.1 3597.91 3437.5 3594.94C3441.9 3591.98 3449.59 3587.29 3463.69 3579.5L3450.05 3549C3442.54 3532.22 3432.39 3509.95 3427.49 3499.5C3422.58 3489.05 3412.21 3467.68 3404.44 3452C3396.67 3436.32 3385.46 3414.28 3379.52 3403C3373.59 3391.72 3364.44 3374.63 3359.19 3365C3353.94 3355.38 3343.49 3336.7 3335.96 3323.5C3328.43 3310.3 3317.42 3291.4 3311.48 3281.5C3305.55 3271.6 3295.5 3255.18 3289.17 3245C3282.83 3234.82 3271.37 3216.82 3263.69 3205C3256.02 3193.18 3243.88 3174.95 3236.71 3164.5C3229.54 3154.05 3217.12 3136.28 3209.1 3125C3201.08 3113.72 3186.24 3093.47 3176.11 3080C3165.98 3066.53 3151.81 3048.07 3144.62 3039C3137.42 3029.93 3125.68 3015.33 3118.52 3006.57C3111.36 2997.8 3096 2979.58 3084.4 2966.07C3072.79 2952.55 3055.52 2932.95 3046.03 2922.5C3036.53 2912.05 3016.26 2890.45 3000.99 2874.5C2985.71 2858.55 2960.46 2833.3 2944.86 2818.39C2929.26 2803.49 2910.41 2785.71 2902.96 2778.89C2895.52 2772.08 2880.67 2758.8 2869.96 2749.38C2859.26 2739.97 2839.2 2722.87 2825.4 2711.38C2811.59 2699.9 2792.01 2683.98 2781.9 2676C2771.78 2668.03 2751.69 2652.62 2737.25 2641.75C2722.81 2630.89 2708.75 2620.88 2706 2619.5C2703.25 2618.13 2700.32 2615.99 2699.49 2614.75C2698.66 2613.51 2697.72 2611.15 2697.4 2609.5C2697.06 2607.73 2697.47 2604.96 2698.41 2602.75C2699.29 2600.69 2701.46 2598.1 2703.25 2597C2705.24 2595.78 2708.24 2595.01 2711 2595.02C2714.14 2595.03 2716.56 2595.77 2719 2597.47C2720.93 2598.82 2734.65 2605.16 2749.5 2611.56C2764.35 2617.96 2790.45 2628.73 2807.5 2635.5C2824.55 2642.27 2851.1 2652.4 2866.5 2658.01C2881.9 2663.63 2908.45 2672.85 2925.5 2678.52C2942.55 2684.18 2969.32 2692.66 2985 2697.36C3000.68 2702.07 3024.3 2708.88 3037.5 2712.5C3050.7 2716.12 3074.1 2722.18 3089.5 2725.97C3104.9 2729.77 3127.63 2735.13 3140 2737.9C3152.38 2740.66 3173.75 2745.16 3187.5 2747.9C3201.25 2750.64 3224.2 2754.92 3238.5 2757.4C3252.8 2759.89 3274.85 2763.5 3287.5 2765.44C3300.15 2767.37 3322.88 2770.53 3338 2772.46C3353.13 2774.39 3376.07 2777.08 3389 2778.44C3401.93 2779.8 3423.53 2781.83 3437 2782.94C3450.47 2784.06 3472.07 2785.64 3485 2786.45C3497.93 2787.26 3520.2 2788.49 3534.5 2789.19C3550.49 2789.98 3588.42 2790.46 3633 2790.45C3676.19 2790.44 3716.01 2789.93 3731.5 2789.19C3745.8 2788.5 3768.53 2787.27 3782 2786.45C3795.47 2785.64 3815.28 2784.29 3826 2783.45C3836.72 2782.62 3857.65 2780.78 3872.5 2779.37C3887.35 2777.96 3906.03 2776.06 3928.5 2773.5L3929.16 2753C3929.53 2741.72 3930.76 2725.75 3931.9 2717.5C3933.03 2709.25 3935.34 2694.85 3937.02 2685.5C3938.7 2676.15 3942.34 2657.93 3945.11 2645C3947.87 2632.07 3952.58 2611.38 3955.57 2599C3958.57 2586.63 3961.57 2575.18 3962.26 2573.56C3962.94 2571.94 3964.85 2569.81 3966.5 2568.81C3968.15 2567.82 3971.07 2567.01 3973 2567.01ZM3260.99 2926.92C3268.42 2933.2 3283.26 2946.02 3293.96 2955.42C3304.67 2964.81 3319.52 2978.08 3326.96 2984.89C3334.41 2991.71 3352.88 3009.13 3368 3023.6C3383.13 3038.07 3407.7 3062.65 3422.62 3078.21C3437.54 3093.77 3456.89 3114.38 3465.62 3124C3474.35 3133.63 3487.38 3148.26 3494.57 3156.5C3501.76 3164.75 3513.67 3178.7 3521.03 3187.5C3528.4 3196.3 3542.5 3213.63 3552.38 3226C3562.25 3238.38 3579.41 3260.65 3590.52 3275.5C3601.62 3290.35 3617.8 3312.63 3626.47 3325C3635.14 3337.38 3647.76 3355.82 3654.52 3366C3661.27 3376.18 3672.13 3392.9 3678.65 3403.17C3685.17 3413.45 3690.95 3422.62 3691.5 3423.57C3692.41 3425.14 3693.7 3424.83 3706 3420.04C3713.43 3417.16 3726.7 3412.2 3735.5 3409.02C3744.3 3405.84 3760.72 3400.22 3772 3396.54C3783.28 3392.86 3800.82 3387.44 3811 3384.5C3821.18 3381.56 3836.7 3377.34 3845.5 3375.13C3854.3 3372.91 3868.7 3369.49 3877.5 3367.51C3886.3 3365.54 3902.95 3362.17 3914.5 3360.03C3926.05 3357.89 3945.18 3354.79 3957 3353.15C3968.82 3351.5 3981.31 3349.89 3984.75 3349.58C3989.09 3349.18 3990.88 3348.62 3990.62 3347.75C3990.41 3347.06 3986.75 3337.72 3982.48 3327C3978.22 3316.28 3971.68 3298.95 3967.95 3288.5C3964.22 3278.05 3958.41 3260.72 3955.04 3250C3951.67 3239.28 3946.01 3219.93 3942.48 3207C3938.94 3194.07 3933.82 3173.82 3931.1 3162C3928.38 3150.18 3924.32 3131.28 3922.08 3120C3919.84 3108.72 3916.43 3089.82 3914.49 3078C3912.56 3066.18 3910.76 3054.81 3910.49 3052.75L3910 3049C3891.01 3048.22 3876.28 3047.53 3865 3046.96C3853.72 3046.4 3832.8 3045.03 3818.5 3043.93C3804.2 3042.83 3783.5 3041.02 3772.5 3039.91C3761.5 3038.8 3740.13 3036.33 3725 3034.42C3709.88 3032.51 3688.72 3029.59 3678 3027.95C3667.28 3026.3 3649.28 3023.35 3638 3021.41C3626.72 3019.46 3608.28 3016.07 3597 3013.87C3585.72 3011.68 3565.25 3007.41 3551.5 3004.38C3537.75 3001.35 3513.9 2995.72 3498.5 2991.88C3483.1 2988.03 3459.93 2981.94 3447 2978.34C3434.07 2974.75 3412.7 2968.51 3399.5 2964.48C3386.3 2960.45 3365.38 2953.79 3353 2949.69C3340.63 2945.59 3320.38 2938.62 3308 2934.2C3295.63 2929.78 3275.49 2922.3 3263.25 2917.58C3251.01 2912.86 3240.66 2909 3240.25 2908.99C3239.84 2908.99 3241.3 2910.45 3243.49 2912.24C3245.69 2914.03 3253.57 2920.64 3260.99 2926.92ZM2518.33 2705C2520.74 2705.01 2523.87 2705.85 2525.75 2707C2527.54 2708.1 2529.62 2710.01 2530.38 2711.25C2531.23 2712.62 2531.99 2717.81 2532.33 2724.5C2532.64 2730.55 2534.69 2749.68 2536.88 2767C2539.08 2784.32 2542.71 2810.65 2544.95 2825.5C2547.19 2840.35 2550.83 2862.85 2553.05 2875.5C2555.27 2888.15 2560.02 2913.13 2563.6 2931C2567.18 2948.88 2572.6 2974.3 2575.63 2987.5C2578.67 3000.7 2584.07 3022.97 2587.64 3037C2591.2 3051.03 2597.06 3073.07 2600.65 3086C2604.25 3098.93 2610.54 3120.53 2614.63 3134C2618.72 3147.47 2627.18 3173.8 2633.44 3192.5C2639.7 3211.2 2648.96 3237.75 2654.01 3251.5C2659.07 3265.25 2668.28 3289.32 2674.48 3305C2680.69 3320.68 2690.28 3344.07 2695.79 3357C2701.31 3369.93 2710.09 3389.95 2715.3 3401.5C2720.51 3413.05 2730.03 3433.53 2736.44 3447C2742.86 3460.47 2754.56 3484.1 2762.44 3499.5C2770.31 3514.9 2781.37 3536.05 2787 3546.5C2792.64 3556.95 2802.44 3574.72 2808.78 3586C2815.13 3597.28 2826.85 3617.53 2834.82 3631C2842.79 3644.47 2856.32 3666.75 2864.89 3680.5C2873.46 3694.25 2890.64 3720.8 2903.05 3739.5C2915.47 3758.2 2931.64 3782.05 2938.98 3792.5C2946.31 3802.95 2959.51 3821.4 2968.29 3833.5C2977.08 3845.6 2984.43 3855.61 2984.63 3855.75C2984.84 3855.89 2988.26 3853.93 2992.25 3851.41C2996.24 3848.88 3005.35 3843.98 3012.5 3840.51C3019.65 3837.03 3032.93 3831.27 3042 3827.69C3051.07 3824.11 3066.15 3818.5 3075.5 3815.22C3084.85 3811.94 3101.95 3806.3 3113.5 3802.68C3125.05 3799.06 3143.05 3793.57 3153.5 3790.47C3168.62 3786 3173.42 3784.96 3177 3785.38C3179.82 3785.72 3182.35 3786.77 3183.79 3788.21C3185.05 3789.47 3186.49 3792.07 3186.99 3794C3187.62 3796.43 3187.5 3798.57 3186.61 3801C3185.9 3802.93 3172.27 3824.97 3156.33 3850C3140.39 3875.03 3113.16 3918.22 3095.83 3946C3078.49 3973.78 3053.29 4014.5 3039.81 4036.5C3026.34 4058.5 3001.8 4099 2985.29 4126.5C2968.77 4154 2945.59 4192.93 2933.78 4213C2921.96 4233.07 2902.16 4267.05 2889.78 4288.5C2877.39 4309.95 2857.59 4344.6 2845.78 4365.5C2833.96 4386.4 2815.07 4420.15 2803.8 4440.5C2792.53 4460.85 2774.3 4494.15 2763.29 4514.5C2752.29 4534.85 2736.96 4563.43 2729.23 4578C2721.5 4592.57 2707.69 4618.9 2698.53 4636.5C2689.37 4654.1 2666.48 4699.32 2647.65 4737C2628.82 4774.68 2606.74 4819.45 2598.58 4836.5C2590.43 4853.55 2576.76 4882.57 2568.21 4901C2559.66 4919.43 2547.62 4945.75 2541.45 4959.5C2535.28 4973.25 2528.95 4985.95 2527.37 4987.71C2524.84 4990.54 2523.88 4990.93 2519.25 4990.96C2515.15 4990.99 2513.4 4990.48 2511.25 4988.65C2509.42 4987.08 2505.37 4979.34 2499.11 4965.4C2493.94 4953.91 2483.31 4930.55 2475.48 4913.5C2467.64 4896.45 2455.27 4869.9 2447.99 4854.5C2440.7 4839.1 2423.98 4804.45 2410.83 4777.5C2397.68 4750.55 2375.29 4705.77 2361.07 4678C2346.86 4650.23 2326.56 4611.07 2315.98 4591C2305.39 4570.93 2291.78 4545.27 2285.72 4534C2279.67 4522.73 2266.61 4498.65 2256.71 4480.5C2246.81 4462.35 2229.94 4431.75 2219.22 4412.5C2208.51 4393.25 2187.93 4356.8 2173.5 4331.5C2159.07 4306.2 2137.03 4267.95 2124.51 4246.5C2112 4225.05 2091.61 4190.4 2079.2 4169.5C2066.79 4148.6 2046.97 4115.52 2035.16 4096C2023.36 4076.47 2002.22 4041.82 1988.19 4019C1974.17 3996.18 1950.31 3957.7 1935.17 3933.5C1920.04 3909.3 1895.13 3869.81 1879.83 3845.75C1854.78 3806.37 1852 3801.58 1851.97 3797.75C1851.94 3795 1852.65 3792.53 1853.97 3790.75C1855.08 3789.24 1857.35 3787.32 1859 3786.5C1860.65 3785.68 1863.13 3785 1864.5 3785C1865.88 3785 1881.06 3789.25 1898.25 3794.44C1915.44 3799.63 1939.4 3807.21 1951.5 3811.29C1963.6 3815.37 1979.8 3821.09 1987.5 3824.01C1995.2 3826.92 2008.25 3832.32 2016.5 3836C2024.75 3839.69 2035.33 3844.93 2040 3847.64C2044.67 3850.36 2049.74 3853.35 2054 3856L2062.68 3844.25C2067.45 3837.79 2077.94 3823.28 2085.98 3812C2094.02 3800.72 2106.48 3782.95 2113.68 3772.5C2120.87 3762.05 2133.7 3742.93 2142.19 3730C2150.68 3717.07 2163.26 3697.5 2170.16 3686.5C2177.05 3675.5 2187.19 3659.07 2192.68 3650C2198.17 3640.93 2208.53 3623.38 2215.71 3611C2222.89 3598.63 2234.82 3577.47 2242.23 3564C2249.65 3550.53 2262.36 3526.68 2270.49 3511C2278.62 3495.32 2291.11 3470.35 2298.25 3455.5C2305.39 3440.65 2315.73 3418.6 2321.23 3406.5C2326.73 3394.4 2335.86 3373.7 2341.52 3360.5C2347.18 3347.3 2357.44 3322.32 2364.32 3305C2371.21 3287.68 2381.56 3260.45 2387.32 3244.5C2393.09 3228.55 2401.41 3204.7 2405.82 3191.5C2410.22 3178.3 2416.82 3157.82 2420.49 3146C2424.15 3134.18 2430.06 3114.38 2433.62 3102C2437.17 3089.63 2442.99 3068.47 2446.53 3055C2450.08 3041.53 2455.65 3019.25 2458.92 3005.5C2462.18 2991.75 2467.12 2969.93 2469.88 2957C2472.65 2944.07 2476.96 2922.81 2479.45 2909.75C2481.95 2896.69 2486.02 2873.96 2488.48 2859.25C2490.95 2844.54 2494.75 2819.9 2496.94 2804.5C2499.12 2789.1 2502.3 2764.57 2504.01 2750C2505.71 2735.43 2506.84 2721.93 2506.51 2720C2506.18 2718.07 2506.35 2715.15 2506.89 2713.5C2507.43 2711.85 2509.29 2709.26 2511.02 2707.75C2513.38 2705.69 2515.22 2705 2518.33 2705ZM2511.36 3388.5C2508.35 3403.9 2503.4 3427.75 2500.38 3441.5C2497.35 3455.25 2491.49 3480 2487.37 3496.5C2483.24 3513 2476.95 3537.07 2473.38 3550C2469.81 3562.93 2463.28 3585.43 2458.86 3600C2454.45 3614.57 2446.87 3638.43 2442.01 3653C2437.16 3667.57 2429.26 3690.3 2424.47 3703.5C2419.67 3716.7 2411.82 3737.63 2407.01 3750C2402.2 3762.38 2394.88 3780.6 2390.75 3790.5C2386.61 3800.4 2379.3 3817.5 2374.5 3828.5C2369.7 3839.5 2361.49 3857.72 2356.25 3869C2351.02 3880.28 2339.42 3904.13 2330.47 3922C2321.52 3939.88 2311.46 3959.68 2308.12 3966L2302.04 3977.5C2305.5 3979.81 2312.54 3985.43 2319.93 3991.49C2327.32 3997.55 2339.91 4008.13 2347.91 4015C2355.91 4021.88 2368.09 4032.65 2374.98 4038.95C2381.86 4045.25 2395.98 4058.75 2406.34 4068.95C2416.7 4079.15 2431.84 4094.7 2439.99 4103.5C2448.13 4112.3 2460.79 4126.48 2468.11 4135C2475.42 4143.52 2485.71 4155.92 2490.96 4162.54C2496.21 4169.16 2504.32 4179.64 2509 4185.83C2513.68 4192.02 2517.72 4197.04 2518 4196.98C2518.28 4196.92 2522.32 4191.85 2527 4185.72C2531.68 4179.59 2542.06 4166.68 2550.08 4157.03C2558.11 4147.39 2571.12 4132.3 2579 4123.5C2586.88 4114.7 2605.74 4095.11 2620.91 4079.96C2636.09 4064.81 2655.25 4046.35 2663.5 4038.93C2671.75 4031.52 2684.8 4020.05 2692.5 4013.45C2700.2 4006.85 2713.14 3996.17 2721.25 3989.72C2729.36 3983.28 2736 3977.55 2736 3977C2736 3976.45 2730.52 3965.54 2723.83 3952.75C2717.13 3939.96 2707.4 3920.72 2702.21 3910C2697.02 3899.28 2688.5 3881.28 2683.28 3870C2678.06 3858.72 2669.06 3838.47 2663.28 3825C2657.5 3811.53 2648.37 3789.47 2642.99 3776C2637.61 3762.53 2629.08 3740.25 2624.03 3726.5C2618.98 3712.75 2610.64 3688.9 2605.49 3673.5C2600.34 3658.1 2592.48 3633.35 2588.02 3618.5C2583.56 3603.65 2576.97 3580.7 2573.38 3567.5C2569.79 3554.3 2564.63 3534.5 2561.91 3523.5C2559.18 3512.5 2554.29 3491.57 2551.04 3477C2547.78 3462.43 2542.87 3439.03 2540.12 3425C2537.37 3410.97 2532.62 3384.54 2529.56 3366.25C2526.5 3347.96 2524 3331.88 2524 3330.5C2524 3329.13 2523.64 3328 2523.19 3328C2522.75 3328 2521.14 3335.31 2519.61 3344.25C2518.08 3353.19 2514.37 3373.1 2511.36 3388.5Z" />
</svg>