<svg xmlns="http://www.w3.org/2000/svg" viewBox="0 0 5000 5000" width="80" height="80">
	<style>
		
		.electro { fill: #dfbbff } 
	</style>
	<path id="Path 0" class="electro" d="M2579.5 32.69C2576.2 32.85 2569 33.45 2563.5 34.02C2558 34.58 2550.35 35.89 2546.5 36.93C2542.65 37.97 2529.71 40.55 2517.75 42.66C2505.78 44.77 2495.99 46.95 2495.97 47.5C2495.96 48.05 2505.75 52.05 2517.72 56.39C2530.95 61.19 2547.35 68.12 2559.5 74.05C2570.5 79.41 2598.4 92.44 2621.5 102.99C2644.6 113.54 2677.45 129.07 2694.5 137.5C2711.55 145.92 2735.85 158.54 2748.5 165.53C2761.15 172.53 2780.72 183.45 2792 189.79C2803.28 196.13 2827.13 209.86 2845 220.3C2862.88 230.74 2890.78 247.39 2907 257.31C2923.22 267.22 2947.53 282.32 2961 290.87C2974.47 299.41 3003.5 318.42 3025.5 333.11C3047.5 347.8 3075.85 367.13 3088.5 376.07C3101.15 385.01 3122.3 400.23 3135.5 409.9C3148.7 419.57 3169.4 435.1 3181.5 444.42C3193.6 453.73 3211.38 467.65 3221 475.35C3230.63 483.05 3248.85 497.98 3261.5 508.54C3274.15 519.09 3291.93 534.23 3301 542.19C3310.07 550.15 3323.35 561.97 3330.5 568.47C3337.65 574.96 3355.36 591.57 3369.86 605.39C3384.36 619.2 3405.74 640.41 3417.36 652.52C3428.99 664.63 3445.66 682.41 3454.42 692.02C3463.18 701.63 3477.13 717.4 3485.42 727.06C3493.71 736.72 3506.62 752.25 3514.1 761.56C3521.59 770.88 3533.99 786.83 3541.68 797C3549.36 807.17 3559.94 821.58 3565.19 829C3570.44 836.42 3581.13 852.17 3588.95 864C3596.77 875.83 3608.68 894.73 3615.42 906C3622.15 917.27 3631.96 934.38 3637.21 944C3642.47 953.63 3650.42 968.81 3654.88 977.75C3659.35 986.69 3666.42 1001.54 3670.6 1010.75C3674.78 1019.96 3681.14 1034.7 3684.73 1043.5C3688.32 1052.3 3694.15 1067.38 3697.7 1077C3701.24 1086.63 3706.58 1102.26 3709.57 1111.75C3712.56 1121.24 3717.01 1136.31 3719.46 1145.25C3721.92 1154.19 3725.48 1168.25 3727.38 1176.5C3729.29 1184.75 3732.2 1198.47 3733.86 1207C3735.52 1215.53 3738.25 1231.5 3739.93 1242.5C3741.62 1253.5 3744.11 1271.28 3745.47 1282C3746.83 1292.72 3748.63 1308.25 3749.46 1316.5C3750.3 1324.75 3751.64 1340.05 3752.44 1350.5C3753.25 1360.95 3754.43 1381.2 3755.08 1395.5C3755.82 1411.75 3756.04 1435.94 3755.66 1460C3755.32 1481.17 3754.37 1507.72 3753.53 1519C3752.7 1530.28 3751.31 1546.25 3750.45 1554.5C3749.59 1562.75 3747.99 1576.25 3746.9 1584.5C3745.8 1592.75 3743.34 1608.72 3741.43 1620C3739.52 1631.28 3735.92 1649.72 3733.43 1661C3730.93 1672.28 3726.86 1689.15 3724.38 1698.5C3721.9 1707.85 3717.89 1722.03 3715.48 1730C3713.07 1737.97 3708.56 1751.92 3705.45 1761C3702.35 1770.08 3696.52 1785.83 3692.51 1796C3688.51 1806.17 3682.87 1819.9 3680 1826.5C3677.12 1833.1 3670.18 1847.95 3664.56 1859.5C3658.95 1871.05 3649.71 1888.83 3644.03 1899C3638.35 1909.17 3629.43 1924.47 3624.2 1933C3618.98 1941.53 3609.54 1956.15 3603.24 1965.5C3596.93 1974.85 3584.67 1991.95 3576 2003.5C3567.32 2015.05 3555.16 2030.58 3548.96 2038C3542.77 2045.42 3533.16 2056.65 3527.6 2062.95C3522.05 2069.24 3509.58 2082.74 3499.91 2092.95C3490.23 2103.15 3473.35 2119.89 3462.41 2130.15C3451.46 2140.41 3436.2 2154.3 3428.5 2161.03C3420.8 2167.76 3405.95 2180.11 3395.5 2188.48C3385.05 2196.86 3370.43 2208.14 3363 2213.56C3355.57 2218.98 3342.3 2228.21 3333.5 2234.07C3324.7 2239.94 3310.75 2248.79 3302.5 2253.74C3294.25 2258.69 3279.4 2267.06 3269.5 2272.34C3259.6 2277.62 3243.18 2285.73 3233 2290.35C3222.82 2294.98 3207.07 2301.71 3198 2305.31C3188.93 2308.92 3174.07 2314.39 3165 2317.47C3155.93 2320.56 3141.75 2325.07 3133.5 2327.49C3125.25 2329.91 3110.4 2333.92 3100.5 2336.38C3090.6 2338.85 3075.97 2342.22 3068 2343.88C3060.03 2345.53 3045.4 2348.24 3035.5 2349.91C3025.6 2351.57 3009.18 2354.05 2999 2355.42C2988.82 2356.79 2970.6 2358.81 2958.5 2359.91C2946.4 2361.01 2928.85 2362.37 2919.5 2362.92C2910.15 2363.48 2895.75 2364.21 2887.5 2364.54C2879.25 2364.88 2863.05 2364.66 2851.5 2364.06C2839.95 2363.46 2824.43 2362.29 2817 2361.46C2809.57 2360.63 2795.18 2358.58 2785 2356.89C2774.82 2355.21 2759.53 2352.3 2751 2350.42C2742.47 2348.54 2727.4 2344.77 2717.5 2342.04C2707.6 2339.31 2691.4 2334.4 2681.5 2331.12C2671.6 2327.84 2655.63 2322.14 2646 2318.44C2636.38 2314.74 2622.2 2309.03 2614.5 2305.76C2606.8 2302.48 2591.95 2295.78 2581.5 2290.87C2571.05 2285.95 2553.72 2277.27 2543 2271.57C2532.28 2265.87 2516.3 2257.06 2507.5 2251.98C2498.7 2246.9 2484.97 2238.68 2477 2233.71C2469.03 2228.73 2454.4 2219.24 2444.5 2212.6C2434.6 2205.96 2419.07 2195.12 2410 2188.51C2400.93 2181.9 2386.97 2171.29 2379 2164.93C2371.03 2158.57 2360.9 2150.31 2356.5 2146.57C2352.1 2142.84 2340.9 2132.75 2331.62 2124.14C2322.34 2115.54 2308.31 2101.53 2300.45 2093C2292.59 2084.47 2282.4 2073 2277.8 2067.5C2273.21 2062 2265.37 2052.1 2260.39 2045.5C2255.4 2038.9 2247.26 2027.42 2242.3 2020C2237.34 2012.58 2229.58 2000.2 2225.05 1992.5C2220.52 1984.8 2212.84 1970.4 2208 1960.5C2203.15 1950.6 2196.26 1935.08 2192.69 1926C2189.11 1916.92 2184.32 1903.65 2182.04 1896.5C2179.76 1889.35 2176.39 1877.65 2174.54 1870.5C2172.69 1863.35 2170.04 1851.88 2168.65 1845C2167.26 1838.13 2165.21 1826.2 2164.1 1818.5C2162.99 1810.8 2161.52 1798.65 2160.83 1791.5C2160.13 1784.35 2159.56 1764.78 2159.54 1748C2159.53 1730.7 2160.08 1711.44 2160.81 1703.5C2161.52 1695.8 2163.22 1681.63 2164.59 1672C2165.95 1662.38 2168.42 1647.75 2170.07 1639.5C2171.73 1631.25 2174.92 1617.3 2177.17 1608.5C2179.41 1599.7 2183.16 1586.65 2185.5 1579.5C2187.83 1572.35 2191.87 1561.1 2194.47 1554.5C2197.07 1547.9 2202.64 1535.53 2206.85 1527C2211.06 1518.47 2218.1 1505.51 2222.5 1498.19C2226.9 1490.88 2234.55 1479.34 2239.5 1472.55C2244.45 1465.76 2253.06 1454.88 2258.63 1448.36C2264.2 1441.84 2274.55 1430.9 2281.63 1424.07C2288.71 1417.23 2299.23 1407.78 2305.01 1403.07C2310.79 1398.35 2320.69 1390.83 2327.01 1386.34C2333.33 1381.85 2344.57 1374.49 2352 1369.98C2359.43 1365.47 2375.63 1356.75 2388 1350.61C2400.38 1344.46 2415.22 1337.36 2421 1334.82C2426.78 1332.29 2441.18 1327.21 2453 1323.54C2464.82 1319.86 2480.13 1315.28 2487 1313.34C2493.88 1311.41 2505.35 1308.5 2512.5 1306.88C2519.65 1305.25 2535.18 1302.18 2547 1300.04C2558.82 1297.9 2574.8 1295.24 2582.5 1294.13C2590.2 1293.02 2602.35 1291.83 2609.5 1291.5C2616.65 1291.16 2627.68 1290.43 2634 1289.88C2640.32 1289.33 2645.84 1288.68 2646.25 1288.44C2646.66 1288.2 2643.74 1284.31 2639.75 1279.81C2635.76 1275.3 2626.88 1265.67 2620 1258.41C2610.67 1248.55 2602.55 1241.36 2588 1230.08C2577.28 1221.76 2558.82 1208.05 2547 1199.61C2535.18 1191.16 2517.18 1178.64 2507 1171.78C2496.82 1164.91 2480.18 1154.12 2470 1147.79C2459.82 1141.46 2442.5 1131.11 2431.5 1124.8C2420.5 1118.48 2404.07 1109.33 2395 1104.46C2385.93 1099.59 2366.8 1089.89 2352.5 1082.9C2338.2 1075.91 2317.5 1066.26 2306.5 1061.46C2295.5 1056.65 2278.18 1049.38 2268 1045.28C2257.82 1041.19 2239.15 1034.1 2226.5 1029.52C2213.85 1024.94 2194.95 1018.49 2184.5 1015.18C2174.05 1011.88 2157.63 1006.92 2148 1004.16C2138.38 1001.41 2124.43 997.56 2117 995.61C2109.57 993.66 2096.53 990.45 2088 988.49C2079.47 986.52 2063.72 983.12 2053 980.93C2042.28 978.73 2025.63 975.61 2016 973.99C2006.38 972.37 1990.85 969.94 1981.5 968.58C1972.15 967.22 1953.92 964.96 1941 963.56C1928.08 962.16 1908.28 960.33 1897 959.5C1885.72 958.67 1860.75 957.47 1841.5 956.83C1814.79 955.93 1798.33 955.93 1772 956.83C1753.03 957.47 1728.28 958.68 1717 959.51C1705.72 960.35 1687.5 961.95 1676.5 963.08C1665.5 964.21 1646.6 966.47 1634.5 968.11C1622.4 969.75 1603.5 972.63 1592.5 974.52C1581.5 976.4 1562.38 980 1550 982.52C1537.63 985.03 1517.38 989.51 1505 992.45C1492.63 995.4 1473.28 1000.34 1462 1003.43C1450.72 1006.53 1431.15 1012.24 1418.5 1016.13C1405.85 1020.02 1385.83 1026.57 1374 1030.69C1362.17 1034.81 1344.17 1041.32 1334 1045.16C1323.83 1049 1306.95 1055.66 1296.5 1059.96C1286.05 1064.26 1269.63 1071.26 1260 1075.52C1250.38 1079.78 1234.63 1086.97 1225 1091.5C1215.38 1096.03 1200.53 1103.23 1192 1107.5C1183.47 1111.77 1166.83 1120.44 1155 1126.78C1143.17 1133.11 1123.15 1144.24 1110.5 1151.5C1097.85 1158.77 1079.85 1169.43 1070.5 1175.18C1061.15 1180.94 1046.3 1190.29 1037.5 1195.96C1028.7 1201.63 1013.85 1211.47 1004.5 1217.82C995.15 1224.17 979.63 1234.99 970 1241.86C960.38 1248.74 943.73 1260.95 933 1269.01C922.27 1277.06 904.27 1291.01 893 1300.01C881.73 1309 864.63 1322.97 855 1331.05C845.38 1339.13 831.2 1351.25 823.5 1357.98C815.8 1364.71 799.6 1379.27 787.5 1390.34C775.4 1401.41 751.17 1424.64 733.65 1441.98C716.13 1459.32 692.89 1482.95 682.01 1494.5C671.13 1506.05 650.63 1528.55 636.45 1544.5C622.27 1560.45 605.72 1579.35 599.67 1586.5C593.62 1593.65 587.51 1601.19 586.09 1603.27C584.66 1605.34 583.37 1606.91 583.21 1606.77C583.04 1606.62 583.4 1599.08 583.99 1590C584.59 1580.92 585.98 1563.6 587.09 1551.5C588.19 1539.4 590.66 1516.9 592.57 1501.5C594.48 1486.1 597.39 1464.72 599.04 1454C600.68 1443.28 604.08 1423.25 606.59 1409.5C609.1 1395.75 613.17 1375.05 615.64 1363.5C618.1 1351.95 622.8 1331.47 626.09 1318C629.37 1304.53 634.32 1285.17 637.09 1275C639.86 1264.83 645.23 1246.15 649.03 1233.5C652.82 1220.85 660.4 1197.22 665.86 1181C671.33 1164.78 678.82 1143.4 682.5 1133.5C686.18 1123.6 693.71 1104.25 699.23 1090.5C704.74 1076.75 713.08 1056.72 717.75 1046C722.43 1035.28 730.41 1017.5 735.5 1006.5C740.58 995.5 751.16 973.67 759 958C766.84 942.33 778.22 920.27 784.28 909C790.35 897.73 802.27 876.35 810.78 861.5C819.29 846.65 832.35 824.6 839.8 812.5C847.24 800.4 860.06 780.15 868.27 767.5C876.48 754.85 889.53 735.27 897.27 724C905.01 712.73 919.15 692.7 928.69 679.5C938.22 666.3 952.72 646.73 960.9 636C969.08 625.27 980.33 610.88 985.9 604C991.46 597.13 999.18 587.67 1003.04 583C1006.9 578.33 1013.3 570.32 1017.28 565.21C1021.25 560.1 1024.16 555.6 1023.75 555.21C1023.34 554.82 1012.99 558.03 1000.75 562.34C988.51 566.65 974.67 572.09 970 574.43C965.33 576.77 957.23 581.33 952 584.56C946.77 587.8 936.2 594.96 928.5 600.47C920.79 605.99 907.97 615.7 900 622.05C892.02 628.41 879.2 639.01 871.5 645.62C863.8 652.22 849.65 664.8 840.04 673.56C830.44 682.33 811.82 700.08 798.67 713C785.51 725.92 765.19 746.63 753.51 759C741.84 771.38 725.17 789.38 716.48 799C707.79 808.63 691.4 827.3 680.06 840.5C668.73 853.7 651.55 874.17 641.89 886C632.23 897.83 616.08 918.08 606 931C595.91 943.92 580.62 963.95 572 975.5C563.39 987.05 548.47 1007.52 538.85 1021C529.23 1034.47 514.16 1056.08 505.37 1069C496.57 1081.92 483.06 1102.17 475.35 1114C467.64 1125.83 453.9 1147.42 444.82 1162C435.75 1176.58 423.36 1196.83 417.29 1207C411.23 1217.17 400.21 1236.08 392.8 1249C385.38 1261.92 373.92 1282.4 367.31 1294.5C360.7 1306.6 349.29 1327.97 341.95 1342C334.61 1356.03 321.77 1381.45 313.41 1398.5C305.06 1415.55 292.73 1441.42 286.02 1456C279.3 1470.58 268.73 1494.2 262.52 1508.5C256.3 1522.8 247.07 1544.63 242 1557C236.92 1569.38 228.6 1590.3 223.5 1603.5C218.4 1616.7 211.43 1635.15 208 1644.5C204.57 1653.85 197.6 1673.42 192.51 1688C187.41 1702.58 179.17 1727.33 174.18 1743C169.19 1758.67 162.36 1780.72 159 1792C155.65 1803.28 149.8 1823.75 146.02 1837.5C142.23 1851.25 135.98 1875.1 132.13 1890.5C128.28 1905.9 123.32 1926.38 121.11 1936C118.9 1945.63 115.02 1963.17 112.49 1975C109.97 1986.83 105.65 2008.42 102.91 2023C100.16 2037.58 95.93 2061.43 93.52 2076C91.1 2090.57 87.54 2113.75 85.59 2127.5C83.65 2141.25 81.37 2157.9 80.54 2164.5C79.7 2171.1 77.91 2186.4 76.55 2198.5C75.2 2210.6 72.95 2233.1 71.57 2248.5C70.19 2263.9 68.15 2290.22 67.04 2307C65.93 2323.78 64.54 2346.72 63.94 2358C63.35 2369.28 62.61 2409.32 62.3 2447C61.95 2490.4 62.17 2527.59 62.9 2548.5C63.53 2566.65 64.72 2593.43 65.54 2608C66.36 2622.57 67.93 2646.2 69.03 2660.5C70.13 2674.8 72.39 2700.22 74.06 2717C75.73 2733.78 78.89 2761.9 81.09 2779.5C83.29 2797.1 86.66 2822.07 88.57 2835C90.47 2847.93 94.03 2870.43 96.47 2885C98.91 2899.57 103.2 2923.65 106 2938.5C108.8 2953.35 113.12 2975.18 115.6 2987C118.08 2998.82 122.14 3017.5 124.62 3028.5C127.09 3039.5 131.98 3060.2 135.47 3074.5C138.96 3088.8 144.82 3111.75 148.49 3125.5C152.17 3139.25 158.48 3161.97 162.52 3176C166.56 3190.03 173.08 3211.85 177 3224.5C180.92 3237.15 187.08 3256.5 190.69 3267.5C194.29 3278.5 201.51 3299.65 206.71 3314.5C211.92 3329.35 220.24 3352.3 225.2 3365.5C230.17 3378.7 238.72 3400.75 244.21 3414.5C249.7 3428.25 259.5 3451.88 265.98 3467C272.47 3482.13 281.15 3501.93 285.27 3511C289.39 3520.07 298.24 3538.97 304.94 3553C311.63 3567.03 323.11 3589.97 330.45 3604C337.79 3618.03 347.72 3636.47 352.51 3645C357.29 3653.53 364.84 3666.57 369.28 3674C373.72 3681.43 381.04 3693.13 385.55 3700C390.06 3706.88 396.28 3715.76 399.37 3719.75C402.47 3723.74 405.45 3727 406 3727C406.55 3727 414.76 3736.02 424.25 3747.04C433.74 3758.07 441.79 3766.73 442.15 3766.29C442.51 3765.86 440.81 3755.15 438.37 3742.5C435.27 3726.39 433.5 3713.8 432.47 3700.5C431.67 3690.05 429.18 3663.95 426.94 3642.5C424.71 3621.05 422.03 3594.72 420.99 3584C419.95 3573.28 418.41 3555.28 417.58 3544C416.75 3532.72 415.5 3509.32 414.8 3492C414 3472.08 413.53 3423.55 413.52 3360C413.51 3294.12 413.94 3248.99 414.79 3229C415.5 3212.22 416.74 3186.13 417.55 3171C418.36 3155.88 419.92 3130.68 421.03 3115C422.14 3099.32 424.17 3073.9 425.56 3058.5C426.94 3043.1 429.43 3018.13 431.09 3003C432.75 2987.88 435.67 2963.57 437.57 2949C439.48 2934.43 442.87 2910.57 445.1 2896C447.33 2881.43 451.15 2858.25 453.59 2844.5C456.03 2830.75 459.86 2810.28 462.1 2799C464.33 2787.72 468.4 2768.38 471.13 2756C473.86 2743.63 478.34 2724.28 481.08 2713C483.82 2701.72 488.55 2683.28 491.59 2672C494.63 2660.72 500.02 2641.71 503.56 2629.75C507.1 2617.79 513.2 2598.21 517.11 2586.25C521.02 2574.29 527.96 2554.15 532.53 2541.5C537.09 2528.85 545.08 2507.93 550.28 2495C555.48 2482.07 563.71 2462.5 568.57 2451.5C573.43 2440.5 583.55 2419.13 591.06 2404C598.57 2388.88 608.66 2369.3 613.49 2360.5C618.32 2351.7 627.94 2335.05 634.86 2323.5C641.79 2311.95 653.33 2293.72 660.5 2283C667.67 2272.28 678.25 2257.03 684.02 2249.13C689.78 2241.22 699.92 2227.94 706.55 2219.63C713.17 2211.31 723.23 2199.1 728.89 2192.5C734.56 2185.9 746.46 2172.69 755.35 2163.14C764.23 2153.59 778.02 2139.6 786 2132.07C793.98 2124.53 806.58 2113.04 814 2106.54C821.42 2100.04 837.17 2086.97 849 2077.49C860.83 2068.01 878.85 2054.01 889.05 2046.38C899.25 2038.75 916.02 2026.65 926.31 2019.5C936.6 2012.35 952.55 2001.64 961.76 1995.7C970.97 1989.76 985.48 1980.71 994 1975.58C1002.52 1970.45 1017.38 1961.85 1027 1956.46C1036.63 1951.07 1053.95 1941.89 1065.5 1936.04C1077.05 1930.2 1094.83 1921.66 1105 1917.05C1115.17 1912.45 1133.85 1904.54 1146.5 1899.47C1159.15 1894.4 1178.95 1887.02 1190.5 1883.07C1202.05 1879.12 1219.83 1873.46 1230 1870.5C1240.17 1867.53 1254.8 1863.53 1262.5 1861.61C1270.2 1859.68 1282.8 1856.71 1290.5 1855C1298.2 1853.29 1313.05 1850.37 1323.5 1848.51C1333.95 1846.66 1349.25 1844.22 1357.5 1843.1C1365.75 1841.98 1379.03 1840.39 1387 1839.56C1394.97 1838.74 1408.7 1837.5 1417.5 1836.8C1426.94 1836.06 1450.72 1835.54 1475.5 1835.54C1499.81 1835.55 1524.45 1836.08 1534 1836.81C1543.08 1837.5 1557.25 1838.75 1565.5 1839.59C1573.75 1840.43 1587.25 1842 1595.5 1843.09C1603.75 1844.18 1618.6 1846.44 1628.5 1848.1C1638.4 1849.76 1655.28 1852.93 1666 1855.13C1676.72 1857.34 1696.75 1862 1710.5 1865.49C1724.25 1868.97 1745.17 1874.76 1757 1878.35C1768.83 1881.94 1786.6 1887.66 1796.5 1891.05C1806.4 1894.44 1822.15 1900.15 1831.5 1903.73C1840.85 1907.32 1854.58 1912.85 1862 1916.01C1869.42 1919.18 1882.7 1925.13 1891.5 1929.23C1900.3 1933.34 1914.92 1940.66 1924 1945.5C1933.08 1950.34 1946.58 1957.91 1954 1962.3C1961.42 1966.7 1975.15 1975.34 1984.5 1981.5C1993.85 1987.66 2008.93 1998.28 2018 2005.1C2027.08 2011.92 2039.9 2021.99 2046.5 2027.47C2053.1 2032.96 2065.03 2043.36 2073 2050.59C2080.97 2057.82 2095.82 2072.24 2106 2082.63C2116.18 2093.02 2129.62 2107.37 2135.89 2114.51C2142.15 2121.66 2152.09 2133.35 2157.98 2140.5C2163.87 2147.65 2174.98 2161.82 2182.67 2172C2190.36 2182.18 2200.95 2196.57 2206.2 2204C2211.45 2211.43 2220.92 2225.38 2227.26 2235C2233.59 2244.63 2242.25 2258.57 2246.51 2266C2250.76 2273.43 2257.34 2285.69 2261.12 2293.25C2264.91 2300.81 2270.75 2313.41 2274.11 2321.25C2277.47 2329.09 2282.67 2342.03 2285.67 2350C2288.67 2357.97 2293.58 2372.38 2296.58 2382C2299.58 2391.63 2304.25 2408.28 2306.96 2419C2309.67 2429.72 2313.24 2445.03 2314.88 2453C2316.53 2460.97 2319.02 2474.25 2320.41 2482.5C2321.8 2490.75 2324.07 2506.28 2325.44 2517C2326.82 2527.72 2328.62 2544.15 2329.44 2553.5C2330.27 2562.85 2331.46 2579.72 2332.09 2591C2332.82 2603.99 2333.04 2628.9 2332.71 2659C2332.38 2688.59 2331.58 2713.85 2330.6 2726C2329.73 2736.72 2328.32 2752.03 2327.46 2760C2326.61 2767.97 2324.78 2782.6 2323.39 2792.5C2322.01 2802.4 2319.31 2818.82 2317.38 2829C2315.46 2839.18 2311.25 2857.85 2308.03 2870.5C2304.82 2883.15 2299.27 2902.28 2295.71 2913C2292.15 2923.72 2286.44 2939.47 2283.01 2948C2279.59 2956.53 2272.87 2971.6 2268.08 2981.5C2263.3 2991.4 2255.64 3006.03 2251.06 3014C2246.49 3021.97 2239.03 3034.13 2234.49 3041C2229.94 3047.88 2222.7 3058.22 2218.38 3064C2214.06 3069.78 2206.78 3079 2202.2 3084.5C2197.61 3090 2188.38 3100.31 2181.68 3107.42C2174.98 3114.53 2163.2 3125.96 2155.5 3132.82C2147.8 3139.68 2135.88 3149.66 2129 3155C2122.13 3160.33 2110.88 3168.53 2104 3173.22C2097.13 3177.91 2085.88 3185.11 2079 3189.22C2072.13 3193.33 2060.43 3199.89 2053 3203.78C2045.58 3207.68 2033.88 3213.42 2027 3216.54C2020.13 3219.66 2007.3 3225.04 1998.5 3228.49C1989.7 3231.95 1975.53 3237.07 1967 3239.87C1958.47 3242.67 1945.65 3246.55 1938.5 3248.5C1931.35 3250.44 1920.33 3253.12 1914 3254.45C1907.67 3255.78 1896.2 3257.79 1888.5 3258.92C1880.8 3260.05 1869.1 3261.43 1862.5 3261.98C1855.9 3262.53 1842.85 3262.98 1833.5 3262.98C1824.15 3262.98 1811.1 3262.52 1804.5 3261.97C1797.9 3261.41 1787.55 3260.25 1781.5 3259.39C1775.45 3258.53 1765.1 3256.73 1758.5 3255.39C1751.9 3254.05 1741.78 3251.64 1736 3250.04C1730.22 3248.43 1721.45 3245.79 1716.5 3244.17C1711.55 3242.55 1702.1 3239.1 1695.5 3236.5C1688.9 3233.91 1676.3 3228.28 1667.5 3224C1658.7 3219.72 1644.3 3211.88 1635.5 3206.58C1626.7 3201.28 1614.01 3193.02 1607.3 3188.22C1600.59 3183.43 1590.24 3175.61 1584.3 3170.86C1578.36 3166.11 1568.1 3157.3 1561.5 3151.28C1554.9 3145.26 1538.43 3128.9 1524.9 3114.92C1511.37 3100.94 1497.27 3086.13 1493.55 3082C1489.84 3077.88 1482.65 3069.32 1477.58 3063C1472.51 3056.68 1465.17 3047 1461.27 3041.5C1457.37 3036 1447.92 3021.6 1440.26 3009.5C1432.6 2997.4 1423.25 2982.78 1419.48 2977C1413.72 2968.18 1412.5 2966.82 1411.85 2968.5C1411.43 2969.6 1409.94 2977.03 1408.54 2985C1407.14 2992.97 1403.77 3013.45 1401.06 3030.5C1398.34 3047.55 1395.2 3068.03 1394.07 3076C1392.95 3083.97 1391.35 3096.13 1390.53 3103C1389.71 3109.88 1388.37 3123.82 1387.55 3134C1386.72 3144.18 1385.48 3162.18 1384.78 3174C1384.01 3187.16 1383.53 3218.77 1383.55 3255.5C1383.57 3302.72 1383.95 3320.29 1385.3 3338C1386.25 3350.38 1387.95 3369.5 1389.07 3380.5C1390.19 3391.5 1392.22 3409.05 1393.59 3419.5C1394.95 3429.95 1397.43 3446.82 1399.09 3457C1400.75 3467.18 1403.92 3484.72 1406.13 3496C1408.34 3507.28 1412.16 3525.28 1414.62 3536C1417.07 3546.72 1420.67 3561.57 1422.62 3569C1424.56 3576.43 1427.94 3588.8 1430.13 3596.5C1432.32 3604.2 1436.62 3618.6 1439.69 3628.5C1442.75 3638.4 1449.08 3657.3 1453.76 3670.5C1458.44 3683.7 1466.41 3704.85 1471.48 3717.5C1476.55 3730.15 1484.69 3749.5 1489.56 3760.5C1494.43 3771.5 1505.03 3793.78 1513.12 3810C1521.21 3826.22 1532.98 3848.72 1539.28 3860C1545.57 3871.28 1555.36 3888.15 1561.02 3897.5C1566.69 3906.85 1576.25 3922.15 1582.27 3931.5C1588.3 3940.85 1598.88 3956.6 1605.78 3966.5C1612.68 3976.4 1624.02 3992.15 1630.97 4001.5C1637.93 4010.85 1649.92 4026.38 1657.61 4036C1665.31 4045.63 1677.18 4060.03 1683.99 4068C1690.8 4075.97 1700.4 4087 1705.33 4092.5C1710.26 4098 1724.09 4112.85 1736.06 4125.5C1748.03 4138.15 1768.1 4158.24 1780.66 4170.14C1793.22 4182.04 1810.27 4197.79 1818.55 4205.14C1826.83 4212.49 1841.45 4225.06 1851.05 4233.08C1860.65 4241.11 1875.25 4252.98 1883.5 4259.48C1891.75 4265.98 1906.15 4277 1915.5 4283.98C1924.85 4290.96 1941.05 4302.68 1951.5 4310.02C1961.95 4317.37 1979.5 4329.29 1990.5 4336.51C2001.5 4343.74 2020.4 4355.74 2032.5 4363.17C2044.6 4370.61 2064.4 4382.35 2076.5 4389.26C2088.6 4396.16 2106.6 4406.16 2116.5 4411.47C2126.4 4416.78 2146.43 4427.07 2161 4434.35C2175.57 4441.63 2195.6 4451.34 2205.5 4455.93C2215.4 4460.52 2234.19 4468.94 2247.25 4474.64C2260.31 4480.34 2285.06 4490.58 2302.25 4497.41C2319.44 4504.23 2344.07 4513.63 2357 4518.3C2369.93 4522.97 2390.63 4530.18 2403 4534.31C2415.38 4538.44 2435.18 4544.82 2447 4548.49C2458.82 4552.16 2481.1 4558.73 2496.5 4563.1C2511.9 4567.47 2539.57 4574.82 2558 4579.45C2576.43 4584.07 2609.5 4591.68 2631.5 4596.37C2653.5 4601.05 2678.59 4606.26 2687.25 4607.94C2695.91 4609.62 2704.46 4611.03 2706.25 4611.07C2708.04 4611.11 2710.34 4611.45 2711.36 4611.82C2712.74 4612.32 2708.94 4614.57 2696.86 4620.39C2687.86 4624.73 2673.07 4631.64 2664 4635.74C2654.93 4639.84 2634.22 4648.71 2618 4655.45C2601.78 4662.19 2577.93 4671.66 2565 4676.49C2552.07 4681.32 2531.6 4688.61 2519.5 4692.69C2507.4 4696.77 2489.85 4702.52 2480.5 4705.47C2471.15 4708.42 2455.63 4713.09 2446 4715.85C2436.38 4718.62 2419.05 4723.37 2407.5 4726.41C2395.95 4729.46 2376.6 4734.24 2364.5 4737.03C2352.4 4739.83 2330.57 4744.53 2316 4747.47C2301.43 4750.42 2278.7 4754.66 2265.5 4756.89C2252.3 4759.12 2232.05 4762.29 2220.5 4763.93C2208.95 4765.58 2189.82 4768.06 2178 4769.45C2166.18 4770.83 2146.82 4772.86 2135 4773.94C2123.18 4775.02 2103.6 4776.59 2091.5 4777.43C2079.4 4778.26 2058.47 4779.48 2045 4780.15C2031.53 4780.81 1995.53 4781.36 1965 4781.37C1934.47 4781.37 1897.8 4780.82 1883.5 4780.15C1869.2 4779.48 1847.38 4778.26 1835 4777.46C1822.63 4776.65 1804.4 4775.3 1794.5 4774.47C1784.6 4773.63 1767.5 4772.04 1756.5 4770.94C1745.5 4769.84 1725.47 4767.59 1712 4765.95C1698.53 4764.31 1674.9 4761.17 1659.5 4758.96C1644.1 4756.76 1630.15 4754.49 1628.5 4753.93C1626.85 4753.37 1616.61 4751.58 1605.75 4749.95C1594.89 4748.33 1584.88 4747 1583.5 4747C1582.13 4747 1581.02 4747.34 1581.05 4747.75C1581.07 4748.16 1589.64 4755.93 1600.08 4765C1610.52 4774.07 1623.21 4784.12 1628.28 4787.31C1633.35 4790.51 1644.03 4796.43 1652 4800.47C1659.97 4804.51 1674.38 4811.17 1684 4815.28C1693.63 4819.4 1708.92 4825.56 1718 4828.99C1727.08 4832.41 1741.47 4837.65 1750 4840.62C1758.53 4843.6 1774.72 4848.93 1786 4852.47C1797.28 4856 1815.05 4861.36 1825.5 4864.36C1835.95 4867.37 1854.85 4872.55 1867.5 4875.87C1880.15 4879.19 1901.97 4884.6 1916 4887.89C1930.03 4891.18 1952.19 4896.15 1965.25 4898.94C1978.31 4901.72 2000.81 4906.23 2015.25 4908.95C2029.69 4911.67 2052.3 4915.7 2065.5 4917.9C2078.7 4920.1 2100.07 4923.49 2113 4925.43C2125.93 4927.37 2150.68 4930.75 2168 4932.93C2185.32 4935.12 2208.05 4937.82 2218.5 4938.94C2228.95 4940.06 2249.88 4942.08 2265 4943.45C2280.13 4944.81 2302.18 4946.62 2314 4947.46C2325.82 4948.31 2348.1 4949.66 2363.5 4950.48C2378.9 4951.29 2404.78 4952.42 2421 4952.98C2437.22 4953.53 2476.15 4953.99 2507.5 4953.99C2538.85 4953.99 2577.55 4953.54 2593.5 4952.98C2609.45 4952.43 2635.32 4951.29 2651 4950.46C2666.68 4949.62 2691.43 4948.04 2706 4946.94C2720.57 4945.84 2742.18 4944.04 2754 4942.93C2765.82 4941.82 2787.43 4939.57 2802 4937.94C2816.57 4936.3 2840.43 4933.37 2855 4931.42C2869.57 4929.48 2892.97 4926.11 2907 4923.94C2921.03 4921.77 2945.32 4917.72 2961 4914.93C2976.68 4912.14 3003.9 4906.94 3021.5 4903.37C3039.1 4899.79 3065.2 4894.19 3079.5 4890.91C3093.8 4887.63 3118.55 4881.63 3134.5 4877.57C3150.45 4873.51 3174.07 4867.24 3187 4863.63C3199.93 4860.03 3218.15 4854.79 3227.5 4851.99C3236.85 4849.2 3255.97 4843.28 3270 4838.84C3284.03 4834.4 3306.3 4827.03 3319.5 4822.47C3332.7 4817.9 3354.75 4810.02 3368.5 4804.96C3382.25 4799.9 3406.78 4790.45 3423 4783.96C3439.22 4777.47 3463.53 4767.45 3477 4761.69C3490.47 4755.92 3511.4 4746.71 3523.5 4741.22C3535.6 4735.72 3556.07 4726.2 3569 4720.06C3581.93 4713.92 3606.45 4701.78 3623.5 4693.08C3640.55 4684.38 3663.05 4672.64 3673.5 4666.99C3683.95 4661.34 3701.72 4651.53 3713 4645.19C3724.28 4638.85 3742.72 4628.27 3754 4621.67C3765.28 4615.07 3783.95 4603.84 3795.5 4596.72C3807.05 4589.59 3824.38 4578.76 3834 4572.64C3843.63 4566.52 3862.97 4553.83 3877 4544.45C3891.03 4535.07 3911.5 4521.07 3922.5 4513.35C3933.5 4505.63 3947.68 4495.55 3954 4490.96C3960.32 4486.37 3971.57 4478.13 3979 4472.65C3986.43 4467.17 4000.15 4456.81 4009.5 4449.64C4018.85 4442.47 4037.3 4427.99 4050.5 4417.46C4063.7 4406.94 4083.32 4390.94 4094.1 4381.91C4104.88 4372.89 4123.11 4357.35 4134.6 4347.38C4146.1 4337.41 4164.05 4321.49 4174.5 4311.99C4184.95 4302.49 4204.07 4284.7 4217 4272.46C4229.93 4260.22 4256.27 4234.3 4275.54 4214.85C4294.8 4195.41 4319.33 4170.05 4330.04 4158.49C4340.74 4146.94 4355.15 4131.19 4362.06 4123.49C4368.96 4115.8 4380.9 4102.3 4388.59 4093.5C4396.27 4084.7 4410.43 4068.05 4420.05 4056.5C4429.67 4044.95 4443.87 4027.63 4451.59 4018C4459.32 4008.38 4473.26 3990.6 4482.58 3978.5C4491.89 3966.4 4506.07 3947.5 4514.07 3936.5C4522.07 3925.5 4533.36 3909.75 4539.15 3901.5C4544.94 3893.25 4556.42 3876.38 4564.67 3864C4572.91 3851.63 4584.99 3832.95 4591.5 3822.5C4598.02 3812.05 4608.51 3794.5 4614.82 3783.5C4621.13 3772.5 4629.97 3756.07 4634.45 3747C4638.93 3737.93 4643.45 3727.35 4644.48 3723.5C4645.51 3719.65 4649.88 3706.6 4654.19 3694.5C4659.07 3680.76 4661.67 3672.12 4661.09 3671.5C4660.5 3670.86 4653.45 3676.22 4641.33 3686.56C4630.29 3695.98 4616.09 3706.89 4607 3712.96C4598.48 3718.64 4573.5 3736.15 4551.5 3751.86C4529.5 3767.57 4498.68 3789.01 4483 3799.51C4467.32 3810 4436.05 3829.64 4413.5 3843.15C4390.95 3856.67 4362.38 3873.59 4350 3880.75C4337.63 3887.92 4316.25 3900.06 4302.5 3907.75C4288.75 3915.43 4265.8 3928.02 4251.5 3935.73C4237.2 3943.44 4211.32 3957.07 4194 3966.03C4176.68 3974.98 4151.93 3987.46 4139 3993.76C4126.07 4000.05 4104.02 4010.61 4090 4017.21C4075.97 4023.82 4054.15 4033.85 4041.5 4039.5C4028.85 4045.15 4010.63 4053.15 4001 4057.28C3991.38 4061.41 3973.6 4068.85 3961.5 4073.82C3949.4 4078.79 3928.25 4087.2 3914.5 4092.51C3900.75 4097.82 3879.04 4105.95 3866.25 4110.58C3853.46 4115.21 3830.96 4123.02 3816.25 4127.94C3801.54 4132.86 3778.47 4140.24 3765 4144.35C3751.53 4148.45 3729.93 4154.75 3717 4158.35C3704.07 4161.95 3682.7 4167.58 3669.5 4170.86C3656.3 4174.14 3634.03 4179.32 3620 4182.37C3605.97 4185.42 3583.47 4189.93 3570 4192.38C3556.53 4194.83 3536.28 4198.2 3525 4199.87C3513.72 4201.54 3497.3 4203.81 3488.5 4204.92C3479.7 4206.03 3465.75 4207.61 3457.5 4208.45C3449.25 4209.28 3433.05 4210.66 3421.5 4211.51C3409.95 4212.36 3386.55 4213.44 3369.5 4213.91C3352.45 4214.39 3325.22 4214.39 3309 4213.93C3292.78 4213.47 3270.5 4212.37 3259.5 4211.5C3248.5 4210.63 3233.65 4209.26 3226.5 4208.45C3219.35 4207.65 3205.4 4205.84 3195.5 4204.43C3185.6 4203.03 3169.18 4200.31 3159 4198.4C3148.82 4196.49 3133.53 4193.32 3125 4191.35C3116.47 4189.38 3101.18 4185.54 3091 4182.83C3080.82 4180.12 3061.25 4174.15 3047.5 4169.56C3033.75 4164.98 3010.57 4156.51 2996 4150.73C2981.43 4144.95 2961.18 4136.61 2951 4132.21C2940.82 4127.8 2924.63 4120.52 2915 4116.04C2905.38 4111.56 2887.15 4102.59 2874.5 4096.11C2861.85 4089.63 2845.2 4080.82 2837.5 4076.52C2829.8 4072.23 2814.72 4063.44 2804 4057C2793.28 4050.55 2778.43 4041.33 2771 4036.51C2763.57 4031.69 2751.65 4023.67 2744.5 4018.68C2737.35 4013.7 2724.3 4004.23 2715.5 3997.64C2706.7 3991.05 2693.88 3981.13 2687 3975.59C2680.13 3970.04 2669.1 3960.84 2662.5 3955.15C2655.9 3949.45 2642.18 3936.98 2632 3927.44C2621.82 3917.89 2606.01 3902.08 2596.85 3892.29C2587.69 3882.51 2576.26 3870 2571.46 3864.5C2566.66 3859 2556.77 3847.07 2549.5 3838C2542.22 3828.93 2531.21 3814.53 2525.03 3806C2518.84 3797.47 2509.17 3783.53 2503.54 3775C2497.9 3766.47 2489.47 3753.2 2484.81 3745.5C2480.15 3737.8 2472.81 3725.2 2468.51 3717.5C2464.2 3709.8 2455 3692.03 2448.07 3678C2441.13 3663.97 2431.91 3644.18 2427.57 3634C2423.23 3623.82 2416.44 3606.95 2412.47 3596.5C2408.5 3586.05 2401.86 3567.15 2397.7 3554.5C2393.54 3541.85 2388.11 3524.3 2385.62 3515.5C2383.14 3506.7 2379.07 3491.4 2376.59 3481.5C2374.11 3471.6 2370.51 3456.3 2368.59 3447.5C2366.67 3438.7 2363.49 3422.72 2361.52 3412C2359.55 3401.28 2356.62 3383.28 2355.01 3372C2353.41 3360.72 2351.4 3344.53 2350.56 3336C2349.71 3327.47 2348.57 3313.75 2348.02 3305.5C2347.48 3297.25 2347.02 3276.21 2347.02 3258.75C2347.01 3241.29 2347.47 3220.14 2348.04 3211.75C2348.61 3203.36 2349.98 3188.4 2351.07 3178.5C2352.17 3168.6 2354.42 3152.18 2356.09 3142C2357.75 3131.82 2360.68 3116.3 2362.59 3107.5C2364.5 3098.7 2368.09 3083.63 2370.57 3074C2373.06 3064.38 2377.14 3049.75 2379.65 3041.5C2382.16 3033.25 2386.93 3018.63 2390.24 3009C2393.55 2999.38 2400.41 2981.15 2405.49 2968.5C2410.56 2955.85 2417.79 2938.53 2421.56 2930C2425.32 2921.47 2434.54 2902.13 2442.04 2887C2449.55 2871.88 2458.87 2853.88 2462.75 2847C2466.64 2840.13 2475.19 2826.4 2481.76 2816.5C2488.33 2806.6 2498.78 2791.97 2504.98 2784C2511.19 2776.03 2520.14 2765.01 2524.88 2759.52C2529.62 2754.03 2539.64 2743.01 2547.14 2735.02C2554.64 2727.03 2567.92 2713.9 2576.64 2705.84C2585.36 2697.77 2596.55 2687.71 2601.5 2683.47C2606.45 2679.23 2616.8 2670.7 2624.5 2664.51C2632.2 2658.32 2646.38 2647.52 2656 2640.5C2665.63 2633.49 2681.82 2622.24 2692 2615.51C2702.18 2608.77 2719.5 2597.86 2730.5 2591.26C2741.5 2584.66 2757.7 2575.32 2766.5 2570.49C2775.3 2565.66 2793.97 2556.03 2808 2549.08C2822.03 2542.13 2840.47 2533.36 2849 2529.6C2857.53 2525.84 2871.7 2519.85 2880.5 2516.3C2889.3 2512.75 2903.47 2507.37 2912 2504.34C2920.53 2501.31 2934.93 2496.59 2944 2493.86C2953.07 2491.12 2967.47 2487.15 2976 2485.02C2984.53 2482.9 2996 2480.24 3001.5 2479.12C3007 2478 3018.47 2475.94 3027 2474.55C3035.53 2473.15 3048.57 2471.35 3056 2470.53C3063.43 2469.71 3078.95 2468.56 3090.5 2467.97C3102.05 2467.39 3118.03 2467.17 3126 2467.5C3133.97 2467.82 3146.35 2468.55 3153.5 2469.11C3160.65 2469.68 3173.03 2471.04 3181 2472.14C3188.97 2473.25 3202.03 2475.47 3210 2477.09C3217.97 2478.71 3229.68 2481.4 3236 2483.08C3242.32 2484.76 3254.47 2488.41 3263 2491.19C3271.53 2493.97 3283.9 2498.4 3290.5 2501.02C3297.1 2503.65 3308.57 2508.59 3316 2511.99C3323.43 2515.39 3335.35 2521.35 3342.5 2525.23C3349.65 2529.11 3362.13 2536.38 3370.24 2541.39C3378.35 2546.4 3390.5 2554.41 3397.24 2559.19C3403.98 2563.97 3415.8 2572.91 3423.5 2579.07C3431.2 2585.23 3443.13 2595.32 3450 2601.5C3456.88 2607.68 3469.03 2619.45 3477 2627.64C3484.97 2635.84 3496.37 2648.61 3502.33 2656.02C3508.28 2663.44 3517.11 2675.35 3521.94 2682.5C3526.77 2689.65 3533.31 2700 3536.48 2705.5C3539.65 2711 3544.38 2719.78 3547.01 2725C3549.63 2730.22 3553.89 2739.45 3556.48 2745.5C3559.07 2751.55 3563.41 2763.03 3566.12 2771C3568.84 2778.97 3572.81 2792.47 3574.94 2801C3577.07 2809.53 3579.76 2822.13 3580.92 2829C3582.08 2835.88 3583.76 2848.25 3584.64 2856.5C3585.68 2866.09 3586.27 2880.51 3586.28 2896.5C3586.29 2910.25 3585.77 2927.13 3585.12 2934C3584.48 2940.88 3583.03 2953.03 3581.91 2961C3580.79 2968.97 3578.54 2982.03 3576.89 2990C3575.25 2997.97 3572.31 3010.57 3570.35 3018C3568.39 3025.43 3564.76 3037.8 3562.28 3045.5C3559.8 3053.2 3554.19 3068.5 3549.8 3079.5C3545.41 3090.5 3536.63 3110.97 3530.27 3125C3523.92 3139.03 3515.35 3158.15 3511.22 3167.5C3507.09 3176.85 3501.53 3189.79 3498.86 3196.25C3496.19 3202.71 3494.34 3208.18 3494.75 3208.4C3495.16 3208.62 3503.15 3207.31 3512.5 3205.49C3521.85 3203.67 3536.93 3200.59 3546 3198.63C3558.72 3195.9 3566.85 3193.38 3581.5 3187.65C3591.95 3183.57 3609.95 3176.18 3621.5 3171.23C3633.05 3166.28 3651.05 3158.3 3661.5 3153.5C3671.95 3148.69 3687.7 3141.15 3696.5 3136.75C3705.3 3132.34 3721.72 3123.77 3733 3117.7C3744.28 3111.64 3761.6 3101.95 3771.5 3096.18C3781.4 3090.42 3796.7 3081.2 3805.5 3075.7C3814.3 3070.21 3831.4 3059.06 3843.5 3050.94C3855.6 3042.81 3873.6 3030.22 3883.5 3022.96C3893.4 3015.7 3908.03 3004.67 3916 2998.45C3923.97 2992.22 3937.47 2981.33 3946 2974.23C3954.53 2967.13 3970.05 2953.74 3980.5 2944.46C3990.95 2935.19 4013.02 2914.08 4029.54 2897.55C4046.07 2881.02 4066.77 2859.4 4075.55 2849.5C4084.34 2839.6 4096.04 2826.1 4101.56 2819.5C4107.08 2812.9 4116.1 2801.88 4121.61 2795C4127.12 2788.13 4137.02 2775.3 4143.62 2766.5C4150.22 2757.7 4159.93 2744.43 4165.19 2737C4170.45 2729.57 4180.82 2714.28 4188.25 2703C4195.67 2691.72 4207.83 2672.38 4215.26 2660C4222.68 2647.63 4233.56 2628.72 4239.43 2618C4245.3 2607.28 4254.75 2589.28 4260.44 2578C4266.12 2566.72 4274.65 2549.06 4279.39 2538.75C4284.12 2528.44 4291.31 2512.24 4295.35 2502.75C4299.4 2493.26 4306.54 2475.6 4311.24 2463.5C4315.93 2451.4 4323.15 2431.82 4327.28 2420C4331.42 2408.18 4337.98 2388.15 4341.88 2375.5C4345.77 2362.85 4351.83 2341.93 4355.35 2329C4358.87 2316.07 4364.25 2294.7 4367.3 2281.5C4370.36 2268.3 4374.71 2248.28 4376.97 2237C4379.22 2225.72 4382.6 2207.5 4384.48 2196.5C4386.35 2185.5 4389.26 2166.82 4390.94 2155C4392.62 2143.18 4394.88 2125.63 4395.97 2116C4397.06 2106.38 4398.63 2091.3 4399.46 2082.5C4400.29 2073.7 4401.63 2056.82 4402.45 2045C4403.26 2033.17 4404.45 2010.67 4405.1 1995C4405.83 1977.13 4406.05 1947.48 4405.7 1915.5C4405.39 1887.45 4404.43 1853.03 4403.56 1839C4402.7 1824.97 4401.32 1805.17 4400.48 1795C4399.65 1784.83 4398.07 1767.72 4396.96 1757C4395.85 1746.28 4393.81 1728.5 4392.43 1717.5C4391.04 1706.5 4388.57 1688.28 4386.92 1677C4385.28 1665.72 4382.13 1645.92 4379.93 1633C4377.73 1620.08 4373.44 1596.9 4370.38 1581.5C4367.33 1566.1 4362.64 1543.83 4359.96 1532C4357.29 1520.17 4353.31 1503.08 4351.13 1494C4348.95 1484.92 4344.17 1466.25 4340.51 1452.5C4336.85 1438.75 4330.99 1417.6 4327.49 1405.5C4323.99 1393.4 4314.6 1363.25 4306.62 1338.5C4298.65 1313.75 4290.57 1289.45 4288.68 1284.5C4286.8 1279.55 4284.46 1273.7 4283.49 1271.5L4281.72 1267.5C4286.2 1270.48 4295.6 1276.96 4305.5 1283.83C4315.4 1290.7 4330.48 1301.49 4339 1307.82C4347.52 1314.14 4364.18 1326.82 4376 1336C4387.82 1345.18 4404.7 1358.68 4413.5 1366.01C4422.3 1373.35 4436.48 1385.45 4445 1392.91C4453.52 1400.37 4468.6 1413.9 4478.5 1422.99C4488.4 1432.07 4508.88 1451.88 4524.02 1467C4539.16 1482.13 4559.18 1502.84 4568.52 1513.04C4577.86 1523.23 4590.26 1536.95 4596.08 1543.54C4601.89 1550.12 4614.73 1565.17 4624.6 1577C4634.47 1588.83 4648.2 1605.7 4655.1 1614.5C4662.01 1623.3 4674.86 1640.17 4683.67 1652C4692.48 1663.83 4705.7 1682.05 4713.04 1692.5C4720.37 1702.95 4733.2 1721.85 4741.53 1734.5C4749.86 1747.15 4763.2 1768.08 4771.17 1781C4779.15 1793.92 4789.74 1811.47 4794.72 1820C4799.69 1828.53 4808.04 1843.15 4813.28 1852.5C4818.51 1861.85 4827.37 1878.05 4832.96 1888.5C4838.55 1898.95 4850.71 1922.8 4859.97 1941.5C4869.24 1960.2 4880.75 1984.05 4885.54 1994.5C4890.33 2004.95 4898.3 2022.72 4903.24 2034C4908.19 2045.28 4916.04 2063.72 4920.71 2075C4925.37 2086.28 4932.97 2105.18 4937.6 2117C4942.23 2128.82 4946.02 2139.18 4946.03 2140C4946.03 2140.82 4949.69 2150.72 4954.17 2162C4958.64 2173.28 4962.45 2182.72 4962.65 2183C4962.84 2183.28 4963.34 2183.11 4963.75 2182.63C4964.16 2182.16 4966.65 2170.91 4969.27 2157.63C4972.56 2141 4974.23 2129.77 4974.64 2121.5C4974.96 2114.9 4974.72 2101.85 4974.1 2092.5C4973.48 2083.15 4972.28 2069.43 4971.44 2062C4970.6 2054.57 4968.6 2039.95 4967 2029.5C4965.39 2019.05 4962.47 2001.95 4960.49 1991.5C4958.52 1981.05 4954.88 1963.28 4952.4 1952C4949.92 1940.72 4944.36 1917.55 4940.04 1900.5C4935.73 1883.45 4929.43 1859.83 4926.05 1848C4922.67 1836.17 4917.43 1818.4 4914.41 1808.5C4911.38 1798.6 4904.16 1776.1 4898.35 1758.5C4892.54 1740.9 4883.15 1713.67 4877.48 1698C4871.81 1682.33 4862.39 1657.13 4856.53 1642C4850.68 1626.88 4840.55 1601.67 4834.04 1586C4827.52 1570.33 4817.93 1547.83 4812.72 1536C4807.52 1524.17 4797.98 1503.03 4791.52 1489C4785.07 1474.97 4772.72 1449.1 4764.09 1431.5C4755.46 1413.9 4742.39 1388.03 4735.05 1374C4727.71 1359.97 4716.54 1339.05 4710.23 1327.5C4703.93 1315.95 4693.13 1296.6 4686.25 1284.5C4679.37 1272.4 4666.74 1250.8 4658.19 1236.5C4649.63 1222.2 4636.72 1201.05 4629.49 1189.5C4622.26 1177.95 4609.9 1158.6 4602.02 1146.5C4594.14 1134.4 4580.94 1114.6 4572.67 1102.5C4564.41 1090.4 4549.78 1069.47 4540.16 1056C4530.54 1042.53 4513.18 1018.9 4501.59 1003.51C4489.99 988.11 4471.53 964.26 4460.57 950.51C4449.61 936.75 4431.78 914.92 4420.94 902C4410.11 889.08 4395.74 872.2 4389.01 864.5C4382.27 856.8 4369.46 842.4 4360.54 832.5C4351.61 822.6 4336.29 805.95 4326.49 795.5C4316.69 785.05 4293.55 761.42 4275.08 742.99C4256.61 724.56 4231.82 700.48 4219.99 689.49C4208.15 678.49 4190.6 662.48 4180.99 653.91C4171.37 645.33 4155.14 631.16 4144.93 622.41C4134.72 613.66 4118.07 599.7 4107.93 591.4C4097.79 583.09 4082.07 570.45 4073 563.31C4063.93 556.16 4047.28 543.34 4036 534.82C4024.72 526.29 4006.5 512.81 3995.5 504.85C3984.5 496.89 3966.72 484.27 3956 476.81C3945.28 469.35 3923.9 454.93 3908.5 444.77C3893.1 434.61 3868.57 418.87 3854 409.79C3839.43 400.71 3818.5 387.98 3807.5 381.5C3796.5 375.02 3779.4 365.1 3769.5 359.47C3759.6 353.85 3742.05 344.08 3730.5 337.77C3718.95 331.45 3696.45 319.53 3680.5 311.27C3664.55 303.01 3639.35 290.39 3624.5 283.23C3609.65 276.06 3588.72 266.17 3578 261.23C3567.28 256.3 3547.7 247.53 3534.5 241.74C3521.3 235.95 3499.03 226.5 3485 220.73C3470.97 214.96 3451.4 207.07 3441.5 203.19C3431.6 199.32 3414.28 192.7 3403 188.49C3391.72 184.28 3372.6 177.33 3360.5 173.05C3348.4 168.76 3325.45 160.94 3309.5 155.68C3293.55 150.41 3270.82 143.12 3259 139.48C3247.18 135.84 3225.13 129.32 3210 125C3194.88 120.68 3175.75 115.33 3167.5 113.12C3159.25 110.91 3138.1 105.51 3120.5 101.14C3102.9 96.76 3076.35 90.45 3061.5 87.13C3046.65 83.8 3021 78.38 3004.5 75.09C2988 71.79 2961.68 66.86 2946 64.13C2930.32 61.4 2905.35 57.34 2890.5 55.1C2875.65 52.87 2851.13 49.46 2836 47.53C2820.88 45.59 2795.22 42.68 2779 41.05C2762.78 39.42 2736.68 37.17 2721 36.06C2705.32 34.94 2681.7 33.58 2668.5 33.02C2655.3 32.46 2631.22 32.09 2615 32.19C2598.78 32.29 2582.8 32.52 2579.5 32.69Z" />
</svg>