<svg xmlns="http://www.w3.org/2000/svg" viewBox="0 0 80 80" width="80" height="80">

	<path id="Path 0" fill-rule="evenodd" class="shp0" d="M50.46 6.46C52.13 6.81 54.09 7.64 54.82 8.3C55.55 8.96 56.61 11.07 57.19 13C58.06 15.91 57.88 17.34 56.09 21.5C54.92 24.25 53.96 26.61 53.98 26.75C53.99 26.89 54.79 27 55.75 26.99C56.71 26.99 58.51 27.66 59.75 28.49C61.46 29.64 62 30.97 62 34C62 36.2 61.21 39.32 60.25 40.94C59.29 42.56 57.26 44.58 55.75 45.44C54.24 46.3 51.65 47 50 47C48.35 47 47 47.45 47 48C47 48.55 47.9 49.23 49 49.5C50.1 49.77 51.02 50.79 51.04 51.75C51.06 53 51.99 52.41 54.29 49.67C56.94 46.5 58.35 45.71 62.36 45.17C65.29 44.76 67.4 44.9 67.69 45.5C67.94 46.05 67.14 48.52 65.91 51C64.67 53.48 62.63 56.51 61.38 57.75C59.77 59.34 57.9 60 55.05 60C51.26 60 50.81 60.32 48 65C46.35 67.75 44.32 70.34 43.49 70.75C42.66 71.16 41.65 71.16 41.24 70.75C40.83 70.33 41.72 67.86 43.22 65.25C44.71 62.64 45.95 59.26 45.97 57.75C45.99 56.24 45.89 55 45.75 54.99C45.61 54.99 43.7 55.89 41.5 57C39.3 58.11 36.04 59.01 34.25 59.01C31.51 59 30.91 58.57 30.42 56.25C29.85 53.52 29.79 53.5 22.67 53.81C16.33 54.09 15.06 53.83 11.75 51.56C8.97 49.67 7.99 48.29 7.97 46.25C7.95 44.74 8.77 42.38 9.8 41C10.83 39.63 13.32 37.71 15.34 36.75C17.35 35.79 20.13 35 21.5 35C22.88 35 24.02 34.66 24.04 34.25C24.07 33.84 23.34 32.83 22.42 32C21.5 31.18 19.91 28.81 18.88 26.75C17.84 24.69 17.01 21.09 17.02 18.75C17.03 15.48 17.66 13.86 19.77 11.73C21.27 10.2 23.4 8.98 24.5 9.01C25.6 9.04 27.96 9.95 29.75 11.03C31.78 12.26 33.85 14.87 35.25 17.95C36.49 20.68 37.73 22.76 38 22.58C38.27 22.4 39.16 20.06 39.97 17.38C40.78 14.69 42.78 11 44.43 9.16C46.97 6.32 47.87 5.92 50.46 6.46ZM37.28 34.25C35.9 33.65 35.7 33.86 36.28 35.25C36.67 36.21 37 37.45 37 38C37 38.55 37.45 39 38 39C38.55 39 39.45 38.1 40 37C40.55 35.9 40.86 34.44 40.69 33.75C40.44 32.75 40.24 32.75 39.69 33.75C39.27 34.51 38.32 34.7 37.28 34.25Z" />
</svg>