<svg xmlns="http://www.w3.org/2000/svg" viewBox="0 0 5000 5000" width="80" height="80">
	<style>
		
		.geo { fill: #f4d760 } 
	</style>
	<path id="Path 0" class="geo" d="M2512 39.86C2510.07 40.84 2495 51.23 2478.5 62.96C2462 74.69 2435.68 93.54 2420 104.84C2404.32 116.15 2377.1 135.97 2359.5 148.88C2341.9 161.8 2307.03 187.74 2282 206.53C2256.97 225.32 2220.75 252.82 2201.5 267.64C2182.25 282.47 2152.55 305.57 2135.5 318.97C2118.45 332.38 2089.65 355.29 2071.5 369.88C2053.35 384.47 2027.25 405.63 2013.5 416.9C1999.75 428.17 1977.7 446.4 1964.5 457.41C1951.3 468.42 1930.15 486.2 1917.5 496.93C1904.85 507.66 1886.4 523.42 1876.5 531.95C1866.6 540.49 1845.9 558.5 1830.5 571.98C1815.1 585.46 1789.68 607.96 1774.01 621.99C1758.34 636.02 1731.8 660.1 1715.03 675.5C1698.26 690.9 1673.29 714.08 1659.53 727C1645.78 739.92 1622.83 761.74 1608.52 775.48C1594.21 789.22 1564.56 818.25 1542.64 839.98C1520.71 861.72 1488.54 894.13 1471.14 912C1453.74 929.88 1428.43 956.2 1414.91 970.5C1401.39 984.8 1381.36 1006.19 1370.41 1018.03C1359.46 1029.87 1339.95 1051.24 1327.07 1065.53C1314.18 1079.81 1290.83 1106.13 1275.19 1124C1259.55 1141.88 1236.08 1169.1 1223.04 1184.5C1209.99 1199.9 1191.53 1221.95 1182 1233.5C1172.48 1245.05 1152.26 1270.03 1137.08 1289C1121.89 1307.97 1100.44 1335.2 1089.4 1349.5C1078.36 1363.8 1058.56 1389.9 1045.4 1407.5C1032.24 1425.1 1012.88 1451.42 1002.38 1466C991.88 1480.58 975.88 1503.08 966.83 1516C957.78 1528.92 947.96 1543.1 945 1547.5L939.62 1555.5C938.41 1571.78 938.49 1588.42 939.03 1603C939.56 1617.58 940.67 1636.7 941.5 1645.5C942.33 1654.3 943.92 1668.7 945.03 1677.5C946.14 1686.3 948.63 1702.95 950.57 1714.5C952.5 1726.05 956.12 1745.17 958.61 1757C961.09 1768.83 966.44 1791.55 970.48 1807.5C974.53 1823.45 980.83 1846.63 984.49 1859C988.15 1871.38 995.79 1895.45 1001.47 1912.5C1007.15 1929.55 1015.87 1954.53 1020.84 1968C1025.81 1981.47 1034.8 2004.88 1040.82 2020C1046.84 2035.13 1057.26 2060.32 1063.97 2076C1070.68 2091.68 1081.49 2116.2 1087.98 2130.5C1094.47 2144.8 1104.16 2165.72 1109.5 2177C1114.85 2188.28 1128.56 2216.18 1139.98 2239C1151.39 2261.82 1167.37 2293.1 1175.49 2308.5C1183.61 2323.9 1195.88 2346.85 1202.76 2359.5C1209.63 2372.15 1222.46 2395.32 1231.27 2411C1240.08 2426.68 1253.92 2450.97 1262.02 2465C1270.12 2479.03 1285.43 2505.13 1296.03 2523C1306.63 2540.88 1316.28 2557.07 1317.48 2559C1318.67 2560.93 1320.97 2563.52 1322.58 2564.77C1324.18 2566.02 1326.85 2567.29 1328.5 2567.6C1330.58 2567.98 1332.78 2567.44 1335.65 2565.83C1338.3 2564.34 1344.22 2558.25 1352.01 2549C1358.72 2541.03 1372.37 2525.07 1382.35 2513.54C1392.33 2502.01 1408.13 2484.01 1417.45 2473.54C1426.78 2463.07 1443.65 2444.38 1454.95 2432C1466.24 2419.63 1485.62 2398.72 1497.99 2385.55C1510.37 2372.38 1536.03 2345.64 1555 2326.13C1573.97 2306.61 1605.5 2275.09 1625.06 2256.07C1644.62 2237.06 1671.17 2211.59 1684.06 2199.47C1696.95 2187.35 1715.83 2169.78 1726 2160.43C1736.17 2151.07 1753.28 2135.54 1764 2125.91C1774.72 2116.28 1792.5 2100.52 1803.5 2090.89C1814.5 2081.26 1833.17 2065.1 1845 2054.98C1856.83 2044.86 1880 2025.35 1896.5 2011.61C1913 1997.88 1942.92 1973.52 1963 1957.49C1983.08 1941.45 2008.95 1920.99 2020.5 1912.02C2032.05 1903.05 2060.85 1881.22 2084.5 1863.51C2108.15 1845.8 2139.65 1822.56 2154.5 1811.85C2169.35 1801.15 2195 1782.94 2211.5 1771.39C2228 1759.84 2253.43 1742.25 2268 1732.31C2282.57 1722.37 2309.13 1704.58 2327 1692.79C2344.88 1680.99 2371.43 1663.69 2386 1654.33C2400.57 1644.98 2426.22 1628.78 2443 1618.33C2459.78 1607.88 2478.11 1596.56 2483.75 1593.16L2494 1587C2519.96 1607.72 2537.18 1622.04 2549 1632.19C2560.82 1642.34 2578.15 1657.63 2587.5 1666.16C2596.85 1674.7 2613.81 1690.64 2625.19 1701.59C2636.57 1712.54 2653.69 1729.6 2663.22 1739.5C2672.76 1749.4 2686.4 1763.81 2693.53 1771.52C2700.66 1779.23 2712.81 1792.73 2720.53 1801.52C2728.25 1810.31 2741.11 1825.38 2749.12 1835C2757.12 1844.63 2769.51 1859.92 2776.65 1869C2783.78 1878.08 2794.53 1892.03 2800.53 1900C2806.53 1907.97 2817.7 1923.28 2825.35 1934C2833 1944.72 2846.31 1964.08 2854.92 1977C2863.53 1989.92 2876.45 2009.95 2883.63 2021.5C2890.81 2033.05 2900.64 2049.25 2905.49 2057.5C2910.34 2065.75 2920.32 2083.3 2927.68 2096.5C2935.04 2109.7 2949.11 2136.47 2958.93 2156C2968.76 2175.53 2979.83 2198.03 2983.52 2206C2987.21 2213.97 2991.3 2222.86 2992.61 2225.75L2995 2231C2969.04 2259.2 2953.66 2275.74 2944.07 2285.94C2934.49 2296.15 2911.09 2320.7 2892.07 2340.49C2873.06 2360.29 2844.47 2389.76 2828.55 2405.99C2812.63 2422.22 2780.9 2454.32 2758.05 2477.33C2735.2 2500.33 2684.32 2550.96 2645 2589.83C2605.67 2628.7 2545.91 2687.5 2512.19 2720.5C2464.51 2767.17 2450.66 2781.28 2449.84 2784C2449.26 2785.93 2449.05 2788.85 2449.38 2790.5C2449.7 2792.15 2454.09 2800.93 2459.12 2810C2464.15 2819.07 2472.32 2833.03 2477.29 2841C2482.25 2848.97 2489.92 2860.68 2494.34 2867C2498.75 2873.32 2506.26 2883.68 2511.02 2890C2515.77 2896.32 2524.76 2907.57 2530.99 2915C2537.22 2922.43 2552.04 2938.2 2563.91 2950.05C2575.78 2961.9 2590.9 2976.09 2597.5 2981.58C2604.1 2987.07 2614.9 2995.64 2621.5 3000.63C2628.1 3005.62 2637.1 3012.06 2641.5 3014.94C2648.7 3019.66 2649.96 3020.15 2654.11 3019.84C2658.33 3019.53 2660.64 3018.05 2681.11 3002.55C2693.42 2993.23 2718.8 2973.91 2737.5 2959.6C2756.2 2945.3 2789.72 2919.43 2812 2902.1C2834.28 2884.78 2870.72 2856.19 2893 2838.56C2915.28 2820.93 2947.68 2795.05 2965 2781.06C2982.32 2767.06 3006.4 2747.5 3018.5 2737.6C3030.6 2727.69 3055.35 2707.21 3073.5 2692.09C3091.65 2676.97 3120 2653.1 3136.5 2639.05C3153 2625 3180.9 2600.91 3198.5 2585.51C3216.1 2570.11 3242.2 2546.98 3256.5 2534.12C3270.8 2521.25 3293.51 2500.55 3306.97 2488.11C3320.43 2475.68 3340.9 2456.5 3352.46 2445.5C3364.02 2434.5 3385.36 2413.8 3399.88 2399.5C3414.41 2385.2 3437.76 2361.57 3451.79 2347C3466.84 2331.36 3477.89 2319.07 3478.74 2317C3479.54 2315.05 3479.93 2312.17 3479.6 2310.5C3479.29 2308.85 3471.68 2292.43 3462.69 2274C3453.7 2255.57 3439.46 2227.22 3431.05 2211C3422.63 2194.78 3410.57 2171.82 3404.23 2160C3397.89 2148.18 3386.86 2127.93 3379.71 2115C3372.56 2102.07 3360.4 2080.47 3352.7 2067C3344.99 2053.53 3332.16 2031.47 3324.19 2018C3316.21 2004.53 3301.94 1980.9 3292.48 1965.5C3283.02 1950.1 3268.85 1927.38 3260.98 1915C3253.12 1902.63 3239.04 1880.8 3229.69 1866.5C3220.34 1852.2 3203.83 1827.45 3193 1811.5C3182.16 1795.55 3164.61 1770.13 3153.99 1755C3143.36 1739.88 3127.01 1716.92 3117.64 1704C3108.27 1691.08 3089.13 1665.2 3075.12 1646.5C3061.11 1627.8 3040.19 1600.35 3028.64 1585.5C3017.09 1570.65 2995.71 1543.65 2981.14 1525.5C2966.56 1507.35 2945.86 1481.92 2935.12 1469C2924.39 1456.08 2906.81 1435.15 2896.06 1422.5C2885.31 1409.85 2865.28 1386.67 2851.56 1371C2837.84 1355.33 2818.73 1333.72 2809.09 1323C2799.45 1312.28 2781.87 1292.94 2770.03 1280.02C2758.19 1267.11 2737.47 1244.84 2724 1230.53C2710.53 1216.22 2687.54 1192.14 2672.91 1177.01C2658.29 1161.88 2629.67 1132.85 2609.32 1112.5C2588.97 1092.15 2559.09 1062.66 2542.91 1046.98C2519.1 1023.88 2512.74 1018.23 2509.5 1017.3C2506.56 1016.46 2504.71 1016.45 2502.5 1017.26C2500.85 1017.86 2488.03 1027.15 2474 1037.88C2459.97 1048.62 2436.57 1066.63 2422 1077.9C2407.43 1089.17 2378.18 1111.96 2357 1128.56C2335.82 1145.15 2301.57 1172.17 2280.89 1188.61C2260.2 1205.05 2223.75 1234.25 2199.89 1253.5C2176.02 1272.75 2135.35 1305.81 2109.5 1326.96C2083.65 1348.11 2044.05 1380.71 2021.5 1399.4C1998.95 1418.08 1963.85 1447.34 1943.5 1464.4C1923.15 1481.47 1888.95 1510.28 1867.5 1528.42C1846.05 1546.56 1801.95 1584.13 1769.5 1611.9C1737.05 1639.68 1688.67 1681.32 1662 1704.45C1635.33 1727.57 1588.08 1768.77 1557.02 1795.99C1525.95 1823.22 1500.81 1844.83 1501.14 1844C1501.47 1843.17 1503.41 1837.1 1505.46 1830.5C1507.5 1823.9 1513.24 1806.13 1518.2 1791C1523.17 1775.88 1531.87 1750.45 1537.54 1734.5C1543.2 1718.55 1551.97 1694.7 1557.01 1681.5C1562.05 1668.3 1569.79 1648.5 1574.21 1637.5C1578.63 1626.5 1588 1604 1595.04 1587.5C1602.07 1571 1612.19 1547.83 1617.52 1536C1622.86 1524.17 1632.86 1502.58 1639.74 1488C1646.62 1473.42 1659.23 1447.55 1667.75 1430.5C1676.28 1413.45 1689.55 1387.58 1697.24 1373C1704.93 1358.42 1716.41 1337.05 1722.76 1325.5C1729.1 1313.95 1741.36 1292.13 1750 1277C1758.64 1261.88 1772.82 1237.58 1781.52 1223C1790.21 1208.42 1804.6 1184.8 1813.5 1170.5C1822.39 1156.2 1835 1136.17 1841.51 1126C1848.02 1115.83 1860.61 1096.47 1869.48 1083C1878.35 1069.53 1894.09 1046.13 1904.45 1031C1914.82 1015.88 1930.3 993.6 1938.86 981.5C1947.41 969.4 1962.27 948.7 1971.87 935.5C1981.46 922.3 1999.45 898 2011.83 881.5C2024.22 865 2043.8 839.35 2055.35 824.5C2066.9 809.65 2086.26 785.13 2098.37 770C2110.47 754.88 2128.36 732.83 2138.1 721C2147.85 709.17 2164.91 688.7 2176.02 675.5C2187.13 662.3 2207.3 638.69 2220.86 623.04C2234.41 607.38 2254.92 583.98 2266.43 571.04C2277.94 558.09 2295.94 538.05 2306.43 526.51C2316.92 514.96 2337.2 492.91 2351.5 477.51C2365.8 462.1 2386.27 440.28 2397 429C2407.72 417.73 2430.08 394.56 2446.67 377.5C2463.26 360.45 2485.99 337.42 2497.17 326.33L2517.5 306.16C2554.7 347.38 2580.35 376.06 2598.5 396.49C2616.65 416.92 2643.22 447.1 2657.55 463.57C2671.88 480.03 2695.75 507.68 2710.6 525C2725.46 542.33 2749.52 570.67 2764.09 588C2778.65 605.33 2802.28 633.67 2816.59 651C2830.91 668.33 2852.69 694.88 2864.99 710C2877.29 725.13 2900.46 753.92 2916.47 774C2932.48 794.08 2956.85 824.9 2970.62 842.5C2984.4 860.1 3006.31 888.34 3019.33 905.25C3032.35 922.16 3055.98 953.21 3071.85 974.25C3087.71 995.29 3110.35 1025.55 3122.15 1041.5C3133.95 1057.45 3154.41 1085.35 3167.61 1103.5C3180.82 1121.65 3200.63 1149.1 3211.64 1164.5C3222.64 1179.9 3240.2 1204.65 3250.65 1219.5C3261.11 1234.35 3279.8 1261.13 3292.18 1279C3304.57 1296.88 3324.06 1325.22 3335.48 1342C3346.91 1358.78 3371.66 1395.67 3390.49 1424C3409.31 1452.33 3433.62 1489.22 3444.51 1506C3455.39 1522.78 3474.2 1552.03 3486.3 1571C3498.41 1589.97 3519.42 1623.28 3532.99 1645C3546.57 1666.72 3567.58 1700.7 3579.68 1720.5C3591.79 1740.3 3611.27 1772.47 3622.98 1792C3634.69 1811.53 3654.18 1844.38 3666.29 1865C3678.4 1885.63 3701.45 1925.45 3717.5 1953.5C3733.55 1981.55 3756.72 2022.5 3768.98 2044.5C3781.24 2066.5 3800.72 2101.82 3812.26 2123C3823.81 2144.18 3842.13 2178.15 3852.99 2198.5C3863.85 2218.85 3880.38 2250.13 3889.73 2268C3899.08 2285.88 3916.78 2320.07 3929.06 2344C3941.34 2367.93 3965.87 2416.75 3983.58 2452.5C4001.29 2488.25 4023.98 2534.6 4034.01 2555.5C4044.04 2576.4 4059.44 2608.8 4068.24 2627.5C4077.04 2646.2 4090.88 2675.9 4099 2693.5C4107.12 2711.1 4120.39 2740.13 4128.49 2758C4136.59 2775.88 4148.62 2802.65 4155.22 2817.5C4161.82 2832.35 4173.42 2858.68 4180.99 2876C4188.57 2893.32 4200.84 2921.68 4208.28 2939C4215.71 2956.32 4228.32 2986.03 4236.29 3005C4244.27 3023.97 4257.19 3055.03 4265 3074C4272.82 3092.97 4282.35 3116.38 4286.19 3126C4290.02 3135.63 4294.14 3144.54 4295.33 3145.8C4296.52 3147.07 4299.07 3148.58 4301 3149.17C4303.51 3149.94 4305.49 3149.93 4308 3149.14C4309.93 3148.53 4313.35 3146.12 4315.62 3143.77C4317.89 3141.42 4334.34 3121.95 4352.19 3100.5C4370.04 3079.05 4398.5 3044.63 4415.45 3024C4432.4 3003.38 4459.14 2970.58 4474.88 2951.12C4490.62 2931.66 4515.15 2901.06 4529.38 2883.12C4543.62 2865.18 4565.25 2837.68 4577.45 2822C4589.65 2806.32 4609.56 2780.45 4621.68 2764.5C4633.81 2748.55 4652.04 2724.25 4662.2 2710.5C4672.35 2696.75 4689.66 2672.9 4700.66 2657.5C4711.66 2642.1 4728.33 2618.25 4737.71 2604.5C4747.09 2590.75 4760.81 2570.05 4768.21 2558.5C4775.61 2546.95 4786.62 2529.18 4792.69 2519C4798.75 2508.82 4804.68 2498.59 4805.86 2496.25C4807.18 2493.63 4807.99 2490.17 4807.97 2487.25C4807.94 2483.11 4806.63 2480.18 4797.81 2464.5C4792.25 2454.6 4781.4 2435.47 4773.71 2422C4766.02 2408.53 4752.74 2385.57 4744.2 2371C4735.65 2356.43 4720.8 2331.45 4711.19 2315.5C4701.58 2299.55 4682.9 2269.18 4669.68 2248C4656.47 2226.82 4635.77 2194.2 4623.69 2175.5C4611.61 2156.8 4588.14 2121.25 4571.54 2096.5C4554.94 2071.75 4533.54 2040.25 4523.99 2026.5C4514.44 2012.75 4500.11 1992.28 4492.14 1981C4484.17 1969.72 4468.42 1947.67 4457.14 1932C4445.86 1916.33 4425.63 1888.65 4412.18 1870.5C4398.74 1852.35 4377.82 1824.45 4365.69 1808.5C4353.56 1792.55 4333.49 1766.45 4321.08 1750.5C4308.68 1734.55 4283.41 1702.6 4264.95 1679.5C4246.48 1656.4 4219.49 1623.1 4204.99 1605.5C4190.48 1587.9 4170.28 1563.6 4160.09 1551.5C4149.91 1539.4 4131 1517.13 4118.07 1502C4105.15 1486.88 4078.99 1456.72 4059.95 1435C4040.91 1413.28 4012.57 1381.33 3996.97 1364C3981.37 1346.67 3958.91 1321.94 3947.05 1309.03C3935.2 1296.12 3916.5 1275.88 3905.5 1264.05C3894.5 1252.22 3873.13 1229.48 3858.01 1213.52C3842.88 1197.56 3818.6 1172.13 3804.04 1157C3789.48 1141.88 3748.53 1100.32 3713.04 1064.66C3677.54 1028.99 3628.7 980.59 3604.5 957.1C3580.3 933.61 3550.37 904.74 3537.99 892.94C3525.62 881.15 3504.23 860.92 3490.47 848C3476.7 835.08 3451.06 811.2 3433.47 794.93C3415.89 778.67 3385.97 751.25 3367 734C3348.03 716.74 3314.5 686.61 3292.5 667.03C3270.5 647.45 3236.53 617.48 3217 600.43C3197.47 583.37 3167.1 557.04 3149.5 541.91C3131.9 526.78 3102.88 502.03 3085 486.91C3067.13 471.79 3037.65 447.04 3019.5 431.91C3001.35 416.78 2972.55 392.94 2955.5 378.92C2938.45 364.91 2911.45 342.86 2895.5 329.92C2879.55 316.98 2850.75 293.8 2831.5 278.4C2812.25 263 2780.53 237.8 2761 222.41C2741.47 207.02 2708.4 181.14 2687.5 164.9C2666.6 148.67 2630.38 120.76 2607 102.88C2583.63 85.01 2555.5 63.63 2544.5 55.37C2533.5 47.11 2522.93 39.82 2521 39.16C2519.07 38.5 2517.05 37.99 2516.5 38.02C2515.95 38.05 2513.93 38.88 2512 39.86ZM724.02 1810.31C722.11 1810.99 719.13 1813.34 717.41 1815.52C715.68 1817.71 699.66 1837.05 681.81 1858.5C663.97 1879.95 635.5 1914.38 618.55 1935C601.6 1955.63 574.86 1988.42 559.12 2007.88C543.38 2027.34 518.85 2057.94 504.62 2075.88C490.38 2093.82 468.75 2121.32 456.55 2137C444.35 2152.68 424.44 2178.55 412.32 2194.5C400.19 2210.45 381.96 2234.75 371.8 2248.5C361.65 2262.25 344.34 2286.1 333.34 2301.5C322.34 2316.9 305.67 2340.75 296.29 2354.5C286.91 2368.25 273.19 2388.95 265.79 2400.5C258.39 2412.05 247.38 2429.82 241.31 2440C235.25 2450.18 229.32 2460.41 228.14 2462.75C226.82 2465.37 226.01 2468.83 226.03 2471.75C226.06 2475.89 227.37 2478.82 236.19 2494.5C241.75 2504.4 252.6 2523.53 260.29 2537C267.98 2550.47 281.26 2573.43 289.8 2588C298.35 2602.57 313.2 2627.55 322.81 2643.5C332.42 2659.45 351.1 2689.82 364.32 2711C377.53 2732.18 398.23 2764.8 410.31 2783.5C422.39 2802.2 445.86 2837.75 462.46 2862.5C479.06 2887.25 500.46 2918.75 510.01 2932.5C519.56 2946.25 533.89 2966.72 541.86 2978C549.83 2989.28 565.58 3011.32 576.86 3027C588.14 3042.68 608.37 3070.35 621.82 3088.5C635.26 3106.65 656.18 3134.55 668.31 3150.5C680.44 3166.45 700.51 3192.55 712.92 3208.5C725.32 3224.45 750.59 3256.4 769.05 3279.5C787.52 3302.6 814.51 3335.9 829.01 3353.5C843.52 3371.1 863.72 3395.4 873.91 3407.5C884.09 3419.6 903 3441.88 915.93 3457C928.85 3472.13 955.01 3502.28 974.05 3524C993.09 3545.72 1021.43 3577.68 1037.03 3595C1052.63 3612.32 1075.09 3637.06 1086.95 3649.97C1098.8 3662.88 1117.5 3683.12 1128.5 3694.95C1139.5 3706.78 1160.87 3729.52 1175.99 3745.48C1191.12 3761.44 1215.4 3786.88 1229.96 3802C1244.52 3817.13 1285.47 3858.68 1320.96 3894.34C1356.46 3930.01 1405.3 3978.41 1429.5 4001.9C1453.7 4025.39 1483.63 4054.26 1496.01 4066.06C1508.38 4077.85 1529.77 4098.07 1543.53 4111C1557.3 4123.93 1582.94 4147.8 1600.53 4164.07C1618.11 4180.33 1648.03 4207.75 1667 4225C1685.97 4242.26 1719.5 4272.39 1741.5 4291.97C1763.5 4311.55 1797.47 4341.52 1817 4358.57C1836.53 4375.63 1866.9 4401.96 1884.5 4417.09C1902.1 4432.22 1931.13 4456.97 1949 4472.09C1966.88 4487.21 1996.35 4511.96 2014.5 4527.09C2032.65 4542.22 2061.45 4566.06 2078.5 4580.08C2095.55 4594.09 2122.55 4616.14 2138.5 4629.08C2154.45 4642.02 2183.25 4665.2 2202.5 4680.6C2221.75 4696 2253.47 4721.2 2273 4736.59C2292.53 4751.98 2325.6 4777.86 2346.5 4794.1C2367.4 4810.33 2403.63 4838.24 2427 4856.12C2450.38 4873.99 2478.5 4895.38 2489.5 4903.65C2500.83 4912.16 2511.23 4919.22 2513.5 4919.93C2516.72 4920.94 2518.08 4920.93 2520.5 4919.9C2522.15 4919.2 2536.55 4909.39 2552.5 4898.1C2568.45 4886.81 2596.13 4867.03 2614 4854.13C2631.88 4841.24 2660 4820.78 2676.5 4808.66C2693 4796.54 2726.97 4771.26 2752 4752.47C2777.03 4733.68 2813.25 4706.18 2832.5 4691.36C2851.75 4676.53 2881.45 4653.43 2898.5 4640.03C2915.55 4626.62 2944.35 4603.71 2962.5 4589.12C2980.65 4574.53 3006.75 4553.37 3020.5 4542.1C3034.25 4530.83 3056.3 4512.6 3069.5 4501.59C3082.7 4490.58 3103.85 4472.8 3116.5 4462.07C3129.15 4451.34 3147.6 4435.58 3157.5 4427.05C3167.4 4418.51 3188.1 4400.5 3203.5 4387.02C3218.9 4373.54 3244.32 4351.04 3259.99 4337.01C3275.66 4322.98 3302.2 4298.9 3318.97 4283.5C3335.74 4268.1 3360.71 4244.93 3374.47 4232C3388.22 4219.07 3411.17 4197.26 3425.48 4183.52C3439.79 4169.78 3469.44 4140.75 3491.36 4119.02C3513.29 4097.28 3545.46 4064.87 3562.86 4047C3580.26 4029.12 3605.57 4002.8 3619.09 3988.5C3632.61 3974.2 3652.64 3952.81 3663.59 3940.97C3674.54 3929.13 3694.05 3907.76 3706.93 3893.47C3719.82 3879.19 3743.17 3852.88 3758.81 3835C3774.45 3817.13 3797.92 3789.9 3810.96 3774.5C3824.01 3759.1 3842.47 3737.05 3852 3725.5C3861.52 3713.95 3881.74 3688.97 3896.92 3670C3912.11 3651.03 3933.56 3623.8 3944.6 3609.5C3955.64 3595.2 3975.44 3569.1 3988.6 3551.5C4001.76 3533.9 4021.12 3507.57 4031.62 3493C4042.12 3478.43 4058.12 3455.93 4067.17 3443C4076.22 3430.07 4086.04 3415.9 4089 3411.5L4094.38 3403.5C4095.59 3387.22 4095.51 3370.57 4094.97 3356C4094.44 3341.43 4093.33 3322.3 4092.5 3313.5C4091.67 3304.7 4090.08 3290.3 4088.97 3281.5C4087.86 3272.7 4085.37 3256.05 4083.43 3244.5C4081.5 3232.95 4077.88 3213.82 4075.39 3202C4072.91 3190.18 4067.56 3167.45 4063.52 3151.5C4059.47 3135.55 4053.17 3112.38 4049.51 3100C4045.85 3087.63 4038.21 3063.55 4032.53 3046.5C4026.85 3029.45 4018.13 3004.47 4013.16 2991C4008.19 2977.53 3999.2 2954.13 3993.18 2939C3987.16 2923.88 3976.74 2898.68 3970.03 2883C3963.32 2867.32 3952.51 2842.8 3946.02 2828.5C3939.53 2814.2 3929.84 2793.28 3924.5 2782C3919.15 2770.72 3905.44 2742.82 3894.02 2720C3882.61 2697.18 3866.63 2665.9 3858.51 2650.5C3850.39 2635.1 3838.12 2612.15 3831.24 2599.5C3824.37 2586.85 3811.54 2563.68 3802.73 2548C3793.92 2532.32 3780.08 2508.03 3771.98 2494C3763.88 2479.97 3748.57 2453.88 3737.97 2436C3727.37 2418.13 3717.72 2401.93 3716.52 2400C3715.33 2398.07 3713.03 2395.48 3711.42 2394.23C3709.82 2392.98 3707.15 2391.71 3705.5 2391.4C3703.42 2391.02 3701.22 2391.56 3698.35 2393.17C3695.7 2394.66 3689.78 2400.75 3681.99 2410C3675.28 2417.97 3661.63 2433.93 3651.65 2445.46C3641.67 2456.99 3625.87 2474.99 3616.55 2485.46C3607.22 2495.93 3590.35 2514.63 3579.05 2527C3567.76 2539.38 3548.38 2560.28 3536.01 2573.45C3523.63 2586.62 3497.94 2613.39 3478.93 2632.95C3459.91 2652.5 3428.38 2684.03 3408.86 2703C3389.35 2721.97 3362.83 2747.41 3349.94 2759.53C3337.05 2771.65 3318.18 2789.22 3308 2798.57C3297.82 2807.93 3280.72 2823.46 3270 2833.09C3259.28 2842.72 3241.5 2858.48 3230.5 2868.11C3219.5 2877.74 3200.82 2893.9 3189 2904.02C3177.18 2914.14 3154 2933.65 3137.5 2947.39C3121 2961.12 3091.07 2985.48 3071 3001.51C3050.93 3017.55 3025.05 3038.01 3013.5 3046.98C3001.95 3055.95 2973.15 3077.78 2949.5 3095.49C2925.85 3113.2 2894.35 3136.44 2879.5 3147.15C2864.65 3157.85 2839 3176.06 2822.5 3187.61C2806 3199.16 2780.57 3216.75 2766 3226.69C2751.43 3236.63 2724.88 3254.42 2707 3266.21C2689.13 3278.01 2662.57 3295.31 2648 3304.67C2633.43 3314.02 2607.78 3330.22 2591 3340.67C2574.22 3351.12 2555.89 3362.44 2550.25 3365.84L2540 3372C2514.04 3351.28 2496.82 3336.96 2485 3326.81C2473.18 3316.66 2455.85 3301.37 2446.5 3292.84C2437.15 3284.3 2420.19 3268.36 2408.81 3257.41C2397.43 3246.46 2380.31 3229.4 2370.78 3219.5C2361.24 3209.6 2347.6 3195.19 2340.47 3187.48C2333.34 3179.77 2321.19 3166.27 2313.47 3157.48C2305.75 3148.69 2292.89 3133.63 2284.88 3124C2276.88 3114.38 2264.49 3099.07 2257.35 3090C2250.22 3080.93 2239.47 3066.97 2233.47 3059C2227.47 3051.03 2216.3 3035.72 2208.65 3025C2201 3014.28 2187.69 2994.93 2179.08 2982C2170.47 2969.07 2157.55 2949.05 2150.37 2937.5C2143.19 2925.95 2133.36 2909.75 2128.51 2901.5C2123.66 2893.25 2113.68 2875.7 2106.32 2862.5C2098.96 2849.3 2084.89 2822.53 2075.07 2803C2065.24 2783.47 2054.17 2760.97 2050.48 2753C2046.79 2745.03 2042.7 2736.14 2041.39 2733.25L2039 2728C2064.96 2699.8 2080.34 2683.26 2089.93 2673.06C2099.51 2662.85 2122.91 2638.3 2141.93 2618.51C2160.94 2598.71 2189.53 2569.24 2205.45 2553.01C2221.37 2536.78 2253.1 2504.68 2275.95 2481.67C2298.8 2458.67 2349.68 2408.04 2389 2369.17C2428.33 2330.3 2488.09 2271.5 2521.81 2238.5C2569.49 2191.83 2583.34 2177.72 2584.16 2175C2584.74 2173.07 2584.95 2170.15 2584.62 2168.5C2584.3 2166.85 2579.91 2158.07 2574.88 2149C2569.85 2139.93 2561.68 2125.97 2556.71 2118C2551.75 2110.03 2544.08 2098.32 2539.66 2092C2535.25 2085.68 2527.74 2075.32 2522.98 2069C2518.23 2062.68 2509.24 2051.43 2503.01 2044C2496.78 2036.58 2481.96 2020.8 2470.09 2008.95C2458.22 1997.1 2443.1 1982.91 2436.5 1977.42C2429.9 1971.93 2419.1 1963.36 2412.5 1958.37C2405.9 1953.38 2396.9 1946.94 2392.5 1944.06C2385.3 1939.34 2384.04 1938.85 2379.89 1939.16C2375.67 1939.47 2373.36 1940.95 2352.89 1956.45C2340.58 1965.77 2315.2 1985.09 2296.5 1999.4C2277.8 2013.7 2244.28 2039.57 2222 2056.9C2199.72 2074.22 2163.28 2102.81 2141 2120.44C2118.72 2138.07 2086.32 2163.95 2069 2177.94C2051.68 2191.94 2027.6 2211.5 2015.5 2221.4C2003.4 2231.31 1978.65 2251.79 1960.5 2266.91C1942.35 2282.03 1914 2305.9 1897.5 2319.95C1881 2334 1853.1 2358.09 1835.5 2373.49C1817.9 2388.89 1791.8 2412.02 1777.5 2424.88C1763.2 2437.75 1740.49 2458.45 1727.03 2470.89C1713.57 2483.32 1693.1 2502.5 1681.54 2513.5C1669.98 2524.5 1648.64 2545.2 1634.12 2559.5C1619.59 2573.8 1596.24 2597.43 1582.21 2612C1567.16 2627.64 1556.11 2639.93 1555.26 2642C1554.46 2643.95 1554.07 2646.83 1554.4 2648.5C1554.71 2650.15 1562.32 2666.57 1571.31 2685C1580.3 2703.43 1594.54 2731.78 1602.95 2748C1611.37 2764.22 1623.43 2787.18 1629.77 2799C1636.11 2810.82 1647.14 2831.07 1654.29 2844C1661.44 2856.93 1673.6 2878.53 1681.3 2892C1689.01 2905.47 1701.84 2927.53 1709.81 2941C1717.79 2954.47 1732.06 2978.1 1741.52 2993.5C1750.98 3008.9 1765.15 3031.63 1773.02 3044C1780.88 3056.38 1794.96 3078.2 1804.31 3092.5C1813.66 3106.8 1830.17 3131.55 1841 3147.5C1851.84 3163.45 1869.39 3188.88 1880.01 3204C1890.64 3219.13 1906.99 3242.07 1916.36 3255C1925.73 3267.93 1944.87 3293.8 1958.88 3312.5C1972.89 3331.2 1993.81 3358.65 2005.36 3373.5C2016.91 3388.35 2038.29 3415.35 2052.86 3433.5C2067.44 3451.65 2088.14 3477.07 2098.88 3490C2109.61 3502.93 2127.19 3523.85 2137.94 3536.5C2148.69 3549.15 2168.72 3572.32 2182.44 3588C2196.16 3603.68 2215.27 3625.28 2224.91 3636C2234.55 3646.72 2252.13 3666.06 2263.97 3678.98C2275.81 3691.89 2296.53 3714.16 2310 3728.47C2323.47 3742.78 2346.46 3766.86 2361.09 3781.99C2375.71 3797.12 2404.33 3826.15 2424.68 3846.5C2445.03 3866.85 2474.91 3896.34 2491.09 3912.02C2514.9 3935.12 2521.26 3940.77 2524.5 3941.7C2527.44 3942.54 2529.29 3942.55 2531.5 3941.74C2533.15 3941.14 2545.97 3931.85 2560 3921.12C2574.03 3910.38 2597.43 3892.37 2612 3881.1C2626.57 3869.83 2655.82 3847.04 2677 3830.44C2698.18 3813.85 2732.43 3786.83 2753.11 3770.39C2773.8 3753.95 2810.25 3724.75 2834.11 3705.5C2857.98 3686.25 2898.65 3653.19 2924.5 3632.04C2950.35 3610.89 2989.95 3578.29 3012.5 3559.6C3035.05 3540.92 3070.15 3511.66 3090.5 3494.6C3110.85 3477.53 3145.05 3448.72 3166.5 3430.58C3187.95 3412.44 3232.05 3374.87 3264.5 3347.1C3296.95 3319.32 3345.32 3277.68 3372 3254.55C3398.68 3231.43 3445.92 3190.23 3476.98 3163.01C3508.05 3135.78 3533.19 3114.18 3532.86 3115C3532.53 3115.82 3530.59 3121.9 3528.54 3128.5C3526.5 3135.1 3520.76 3152.88 3515.8 3168C3510.83 3183.13 3502.13 3208.55 3496.46 3224.5C3490.8 3240.45 3482.03 3264.3 3476.99 3277.5C3471.95 3290.7 3464.21 3310.5 3459.79 3321.5C3455.37 3332.5 3446 3355 3438.96 3371.5C3431.93 3388 3421.81 3411.18 3416.48 3423C3411.14 3434.82 3401.14 3456.43 3394.26 3471C3387.38 3485.57 3374.77 3511.45 3366.25 3528.5C3357.72 3545.55 3344.45 3571.43 3336.76 3586C3329.07 3600.57 3317.59 3621.95 3311.24 3633.5C3304.9 3645.05 3292.64 3666.88 3284 3682C3275.36 3697.13 3261.18 3721.43 3252.48 3736C3243.79 3750.57 3229.4 3774.2 3220.5 3788.5C3211.61 3802.8 3199 3822.82 3192.49 3833C3185.98 3843.18 3173.39 3862.53 3164.52 3876C3155.65 3889.47 3139.91 3912.88 3129.55 3928C3119.18 3943.13 3103.7 3965.4 3095.14 3977.5C3086.59 3989.6 3071.73 4010.3 3062.13 4023.5C3052.54 4036.7 3034.55 4061 3022.17 4077.5C3009.78 4094 2990.2 4119.65 2978.65 4134.5C2967.1 4149.35 2947.74 4173.88 2935.63 4189C2923.53 4204.13 2905.64 4226.18 2895.9 4238C2886.15 4249.82 2869.09 4270.3 2857.98 4283.5C2846.87 4296.7 2826.7 4320.31 2813.14 4335.96C2799.59 4351.62 2779.08 4375.02 2767.57 4387.96C2756.06 4400.91 2738.06 4420.95 2727.57 4432.49C2717.08 4444.04 2696.8 4466.09 2682.5 4481.49C2668.2 4496.9 2647.73 4518.72 2637 4530C2626.28 4541.27 2603.92 4564.44 2587.33 4581.5C2570.74 4598.55 2548.01 4621.58 2536.83 4632.67L2516.5 4652.84C2479.3 4611.62 2453.65 4582.94 2435.5 4562.51C2417.35 4542.08 2390.78 4511.9 2376.45 4495.43C2362.12 4478.97 2338.25 4451.32 2323.4 4434C2308.54 4416.68 2284.48 4388.32 2269.91 4371C2255.35 4353.68 2231.72 4325.32 2217.41 4308C2203.09 4290.68 2181.31 4264.13 2169.01 4249C2156.71 4233.88 2133.54 4205.07 2117.53 4185C2101.52 4164.93 2077.15 4134.1 2063.38 4116.5C2049.6 4098.9 2027.69 4070.66 2014.67 4053.75C2001.65 4036.84 1978.02 4005.79 1962.15 3984.75C1946.29 3963.71 1923.65 3933.45 1911.85 3917.5C1900.05 3901.55 1879.59 3873.65 1866.39 3855.5C1853.18 3837.35 1833.37 3809.9 1822.36 3794.5C1811.36 3779.1 1793.8 3754.35 1783.35 3739.5C1772.89 3724.65 1754.2 3697.88 1741.82 3680C1729.43 3662.13 1709.94 3633.78 1698.52 3617C1687.09 3600.22 1662.34 3563.32 1643.51 3535C1624.69 3506.68 1600.38 3469.78 1589.49 3453C1578.61 3436.22 1559.8 3406.97 1547.7 3388C1535.59 3369.03 1514.58 3335.72 1501.01 3314C1487.43 3292.28 1466.42 3258.3 1454.32 3238.5C1442.21 3218.7 1422.73 3186.53 1411.02 3167C1399.31 3147.47 1379.82 3114.63 1367.71 3094C1355.6 3073.38 1332.55 3033.55 1316.5 3005.5C1300.45 2977.45 1277.28 2936.5 1265.02 2914.5C1252.76 2892.5 1233.28 2857.18 1221.74 2836C1210.19 2814.82 1191.87 2780.85 1181.01 2760.5C1170.15 2740.15 1153.62 2708.88 1144.27 2691C1134.92 2673.13 1117.22 2638.93 1104.94 2615C1092.66 2591.07 1068.13 2542.25 1050.42 2506.5C1032.71 2470.75 1010.02 2424.4 999.99 2403.5C989.96 2382.6 974.56 2350.2 965.76 2331.5C956.96 2312.8 943.12 2283.1 935 2265.5C926.88 2247.9 913.61 2218.88 905.51 2201C897.41 2183.13 885.38 2156.35 878.78 2141.5C872.18 2126.65 860.58 2100.32 853.01 2083C845.43 2065.68 833.16 2037.33 825.72 2020C818.29 2002.67 805.68 1972.97 797.71 1954C789.73 1935.03 776.81 1903.97 769 1885C761.18 1866.03 751.65 1842.63 747.81 1833C743.97 1823.38 740.08 1814.65 739.16 1813.61C738.25 1812.57 736.04 1811.11 734.25 1810.36C732.46 1809.61 730.21 1809.02 729.25 1809.04C728.29 1809.06 725.94 1809.63 724.02 1810.31Z" />
</svg>