<svg xmlns="http://www.w3.org/2000/svg" viewBox="0 0 80 80" width="80" height="80">
	
	<path id="Path 0" fill-rule="evenodd" class="shp0" d="M74.5 7.5L74.75 12.25C74.89 14.92 74.56 17 74 17C73.45 17 73 17.68 73 18.5C73 19.32 72.33 20 71.5 20C70.34 20 70.01 21.29 70.02 25.75C70.04 28.91 69.41 33.08 68.63 35C67.85 36.92 65.03 40.92 62.36 43.87C59.68 46.82 56.04 49.86 54.25 50.62C52.13 51.52 51 52.69 51 54C51 55.1 49.88 56.67 48.5 57.5C47.13 58.33 46 59.9 46 61C46 62.25 47.03 63.41 48.75 64.1C50.26 64.7 53.86 66.28 56.75 67.6C61.04 69.56 62 70.46 62 75L18 75L18 72.5C18 70.46 18.96 69.56 23.25 67.6C26.14 66.28 29.74 64.7 31.25 64.1C32.97 63.41 34 62.25 34 61C34 59.9 32.88 58.33 31.5 57.5C30.13 56.67 29 55.1 29 54C29 52.69 27.87 51.52 25.75 50.62C23.96 49.86 20.32 46.82 17.64 43.87C14.97 40.92 12.15 36.92 11.37 35C10.59 33.08 9.96 28.91 9.98 25.75C9.99 21.82 9.6 19.99 8.75 19.96C8.06 19.94 6.95 19.15 6.28 18.21C5.61 17.27 4.97 14.66 4.87 12.42C4.76 10.17 5.05 8.03 5.51 7.65C5.98 7.28 21.69 7.09 74.5 7.5ZM34.75 33.54C33.79 33.79 33 34.45 33 35C33 35.55 33.79 36.24 34.75 36.53C35.71 36.82 37.06 38.62 37.75 40.53C38.44 42.44 39.45 44 40 44C40.55 44 41.56 42.44 42.25 40.53C42.94 38.62 44.29 36.82 45.25 36.53C46.21 36.24 47 35.55 47 35C47 34.45 46.21 33.79 45.25 33.54C44.29 33.29 42.94 31.94 42.25 30.54C41.56 29.14 40.54 28 39.98 28C39.42 28 38.41 29.14 37.73 30.54C37.05 31.94 35.71 33.29 34.75 33.54Z" />
</svg>