<svg xmlns="http://www.w3.org/2000/svg" viewBox="0 0 80 80" width="80" height="80">
	<style>
	
		.hydro { fill: #01e5ff } 
	</style>
	<path id="Path 0" fill-rule="evenodd" class="hydro" d="M41 0.27C49.41 0.47 51.28 0.87 57.25 3.75C60.96 5.54 66.03 9.02 68.5 11.5C70.97 13.98 74.46 18.81 76.25 22.25C79.37 28.24 79.5 28.97 79.5 40C79.5 50.7 79.3 51.92 76.56 57.5C74.94 60.8 71.34 65.78 68.56 68.56C65.78 71.34 60.8 74.93 57.5 76.53C52.55 78.94 49.92 79.52 42.5 79.83C37.55 80.04 31.7 79.74 29.5 79.15C27.3 78.57 23.48 76.68 21 74.96C18.15 72.98 16.87 71.5 17.5 70.93C18.1 70.39 20.69 70.86 24 72.1C27.02 73.24 32.42 74.42 36 74.73C40.21 75.09 43.91 74.81 46.5 73.94C48.7 73.2 51.8 71.44 53.39 70.04C54.97 68.65 57.11 65.81 58.14 63.75C59.27 61.46 60 57.86 60 54.5C60 51 59.27 47.55 58 45C56.9 42.8 54.54 39.9 52.75 38.57C50.96 37.23 47.36 35.54 44.75 34.82C40.9 33.75 39.14 33.74 35.5 34.75C32.39 35.61 30.38 35.69 29 35C27.9 34.45 26.55 32.88 26 31.5C25.33 29.83 25.33 28.33 26 27C26.55 25.9 28.46 24.27 30.25 23.38C32.26 22.38 35.99 21.77 40 21.78C43.76 21.79 48.19 22.5 50.5 23.46C52.7 24.37 56.06 26.33 57.96 27.81C59.86 29.29 62.67 32.52 64.21 35C65.75 37.48 67.46 41.75 68.02 44.5C68.65 47.62 68.7 51.19 68.14 54C67.65 56.48 66.94 59.4 66.56 60.5C66.19 61.6 66.91 60.7 68.18 58.5C70.1 55.15 70.47 53.04 70.48 45.5C70.5 38.25 70.07 35.63 68.31 32C67.1 29.52 64.51 25.81 62.56 23.75C60.6 21.69 56.64 18.78 53.75 17.3C49.28 15 47.24 14.59 40 14.57C32.97 14.54 30.64 14.96 26.5 16.99C23.75 18.33 19.48 21.57 17 24.18C13.99 27.35 11.67 28.94 10 28.95C8.63 28.96 7 28.64 6.4 28.23C5.79 27.83 4.78 26.49 4.15 25.25C3.35 23.68 3.3 22.24 4 20.5C4.55 19.13 7.14 15.7 9.75 12.89C12.36 10.08 16.52 6.61 19 5.18C21.48 3.75 25.3 2.01 27.5 1.32C29.85 0.57 35.43 0.14 41 0.27ZM7.18 34.87C8.35 35.21 9.91 36.4 10.66 37.5C11.41 38.6 12 40.17 11.99 41C11.97 41.83 10.95 43.52 9.73 44.78C8.5 46.03 6.83 47.04 6 47.03C5.17 47.02 3.49 46.34 2.25 45.51C0.49 44.33 0.05 43.19 0.25 40.27C0.43 37.55 1.11 36.24 2.78 35.39C4.04 34.75 6.02 34.52 7.18 34.87ZM39.25 44C40.76 44 43.46 44.6 45.25 45.33C47.04 46.07 49.74 48.09 51.25 49.83C53.01 51.86 54.01 54.17 54.03 56.25C54.05 58.07 53.28 60.28 52.28 61.28C51.18 62.38 49.35 62.96 47.5 62.78C45.13 62.56 44.13 61.71 42.75 58.75C41.31 55.67 40.48 55 38.07 55C36.46 55 34.44 55.67 33.57 56.5C32.71 57.33 31.73 59.24 31.39 60.75C30.98 62.66 31.39 64.27 32.73 66C33.8 67.38 35.99 69.11 37.59 69.85C40.07 71.01 41.16 70.98 45 69.67C47.48 68.82 49.61 68.33 49.75 68.56C49.89 68.8 49.77 69.45 49.5 70C49.23 70.55 47.42 71.67 45.5 72.5C43.58 73.33 40.76 74 39.25 74C37.74 74.01 34.92 73.17 33 72.15C31.08 71.13 28.47 68.77 27.22 66.9C25.69 64.62 24.94 62.02 24.94 59C24.94 55.91 25.67 53.45 27.28 51.15C28.56 49.31 31.16 46.95 33.06 45.9C34.95 44.85 37.74 43.99 39.25 44ZM14.31 53.93C15.84 54.48 16.58 55.66 16.75 57.86C16.93 60.16 16.46 61.27 15 62C13.55 62.73 12.32 62.59 10.5 61.5C9.13 60.67 7.94 59.13 7.87 58.06C7.79 56.99 8.72 55.45 9.92 54.63C11.35 53.67 12.88 53.42 14.31 53.93Z" />
</svg>