<svg xmlns="http://www.w3.org/2000/svg" viewBox="0 0 80 80" width="80" height="80">
	
	<path id="Path 0" fill-rule="evenodd" class="shp0" d="M65 6.04C66.92 6 69.07 6.54 69.77 7.23C70.46 7.93 71.03 9.85 71.03 11.5C71.03 13.15 70.51 16.07 69.88 18C69.24 19.93 67.66 22.96 66.36 24.75C65.06 26.54 63.98 28.56 63.96 29.25C63.94 29.94 59.33 34.96 53.71 40.42C48.1 45.87 41.7 51.62 39.5 53.19C36.93 55.03 34.25 56.06 32 56.06C29.95 56.06 27.56 56.88 26.25 58.03C25.01 59.11 24 60.67 24 61.5C24 62.48 23.05 62.98 21.25 62.96C19.74 62.93 17.82 63.69 17 64.64C16.18 65.59 14.82 67.75 14 69.44C13.08 71.31 11.62 72.6 10.25 72.75C8.81 72.91 8 72.46 8 71.5C8 70.67 9.35 67.75 11 65C12.65 62.25 13.95 59.66 13.88 59.25C13.82 58.84 13.82 57.04 13.88 55.25C13.97 52.71 14.43 52 16 52C17.41 52 18.12 51.19 18.42 49.25C18.65 47.74 19.32 44.59 19.92 42.25C20.79 38.84 23.29 35.63 32.6 26C38.99 19.4 44.84 14 45.6 14C46.37 14 48.44 12.99 50.21 11.75C51.97 10.51 55.23 8.74 57.46 7.81C59.68 6.87 63.08 6.08 65 6.04ZM26.7 45C26.25 46.68 29.53 43.78 36.77 36.11C42.67 29.84 47.81 24.1 48.2 23.36C48.58 22.61 48.58 22 48.2 22C47.81 22 42.97 26.61 37.44 32.25C31.91 37.89 27.07 43.63 26.7 45Z" />
</svg>