<svg xmlns="http://www.w3.org/2000/svg" viewBox="0 0 5000 5000" width="80" height="80">
	<style>
		
		.pyro { fill: #b12e30 } 
	</style>
	<path id="Path 0" fill-rule="evenodd" class="pyro" d="M2437.18 0L2455.5 -0.02L2461.99 7.74C2465.56 12.01 2477.52 26.52 2488.56 40C2499.61 53.48 2517.2 75.3 2527.65 88.5C2538.1 101.7 2555.62 124.21 2566.58 138.51C2577.54 152.82 2594.41 175.32 2604.08 188.51C2613.75 201.71 2628.35 221.95 2636.52 233.5C2644.69 245.05 2658.67 265.3 2667.58 278.5C2676.48 291.7 2689.14 310.82 2695.71 321C2702.27 331.18 2713.73 349.4 2721.18 361.5C2728.63 373.6 2740.8 394.07 2748.23 407C2755.65 419.93 2766.83 439.95 2773.06 451.5C2779.28 463.05 2790.11 484.2 2797.11 498.5C2804.11 512.8 2813.52 532.83 2818.01 543C2822.51 553.17 2830.39 572.08 2835.52 585C2840.65 597.92 2847.61 616.6 2850.99 626.5C2854.37 636.4 2859.99 654.4 2863.48 666.5C2866.97 678.6 2871.64 696.6 2873.86 706.5C2876.08 716.4 2879.03 731.25 2880.41 739.5C2881.78 747.75 2883.59 759.9 2884.43 766.5C2885.26 773.1 2886.46 785.48 2887.09 794C2887.78 803.24 2888.04 820 2887.72 835.5C2887.43 849.97 2886.47 867.49 2885.55 875C2884.65 882.42 2882.56 895.25 2880.92 903.5C2879.28 911.75 2876.55 923.45 2874.84 929.5C2873.14 935.55 2870.18 945 2868.27 950.5C2866.36 956 2863.21 964.33 2861.28 969C2859.36 973.67 2854.46 984.02 2850.41 992C2846.36 999.98 2840.08 1011.23 2836.44 1017C2832.81 1022.77 2827.41 1030.88 2824.44 1035C2821.47 1039.13 2816.67 1045.48 2813.77 1049.12C2810.87 1052.76 2804 1060.82 2798.5 1067.02C2793 1073.22 2782.88 1083.47 2776 1089.78C2769.13 1096.09 2757.2 1106.31 2749.5 1112.48C2741.8 1118.66 2728.75 1129.69 2720.5 1137C2712.25 1144.31 2698.08 1157.08 2689.02 1165.39C2679.95 1173.7 2662.4 1190.21 2650.02 1202.09C2637.63 1213.96 2618.05 1233.54 2606.5 1245.59C2594.95 1257.64 2580.75 1272.68 2574.95 1279C2569.15 1285.33 2559.68 1295.9 2553.9 1302.5C2548.12 1309.1 2538.88 1319.9 2533.36 1326.5C2527.84 1333.1 2517.8 1345.47 2511.04 1354C2504.28 1362.53 2493.48 1376.7 2487.04 1385.5C2480.6 1394.3 2471.03 1407.8 2465.79 1415.5C2460.54 1423.2 2452.31 1435.8 2447.5 1443.5C2442.69 1451.2 2435.26 1463.58 2431 1471C2426.74 1478.42 2419.85 1491.03 2415.68 1499C2411.52 1506.97 2405.21 1519.8 2401.68 1527.5C2398.14 1535.2 2392.3 1548.92 2388.69 1558C2385.08 1567.08 2379.84 1581.47 2377.03 1590C2374.22 1598.53 2369.7 1614.5 2366.98 1625.5C2364.26 1636.5 2360.92 1652.47 2359.55 1661C2358.19 1669.53 2356.5 1681.45 2355.81 1687.5C2355.1 1693.74 2354.55 1710.41 2354.55 1726C2354.55 1741.61 2355.1 1758.26 2355.81 1764.5C2356.5 1770.55 2358.2 1782.03 2359.57 1790C2360.95 1797.97 2363.43 1809.9 2365.08 1816.5C2366.73 1823.1 2369.45 1833 2371.13 1838.5C2372.81 1844 2377.12 1855.92 2380.69 1865C2384.27 1874.08 2390.91 1888.92 2395.44 1898C2399.98 1907.08 2406.76 1919.67 2410.51 1926C2414.26 1932.33 2420.47 1942.22 2424.31 1948C2428.15 1953.78 2435.68 1964.35 2441.04 1971.5C2446.4 1978.65 2454.91 1989.45 2459.96 1995.5C2465 2001.55 2475.79 2013.7 2483.92 2022.5C2492.05 2031.3 2506.54 2045.78 2516.1 2054.68C2525.67 2063.58 2539.57 2076.04 2547 2082.37C2554.43 2088.7 2560.63 2093.79 2560.79 2093.69C2560.95 2093.58 2556.69 2086.75 2551.32 2078.5C2545.95 2070.25 2537.13 2056.07 2531.72 2047C2526.31 2037.92 2516.15 2019.03 2509.15 2005C2502.14 1990.97 2493.21 1971.4 2489.3 1961.5C2485.39 1951.6 2479.89 1936.53 2477.08 1928C2474.27 1919.47 2469.98 1904.63 2467.55 1895C2465.11 1885.38 2462.22 1872.78 2461.12 1867C2460.03 1861.22 2458.23 1849.97 2457.12 1842C2456.02 1834.03 2454.58 1820.08 2453.92 1811C2453.18 1800.77 2452.94 1785 2453.29 1769.5C2453.6 1755.75 2454.58 1738.42 2455.47 1731C2456.35 1723.58 2458.2 1710.97 2459.58 1703C2460.95 1695.03 2463.2 1683.55 2464.57 1677.5C2465.94 1671.45 2469.11 1659.3 2471.63 1650.5C2474.14 1641.7 2478.91 1627.08 2482.23 1618C2485.54 1608.92 2491.17 1594.75 2494.75 1586.5C2498.32 1578.25 2504.73 1564.53 2509 1556C2513.26 1547.47 2521.13 1532.85 2526.48 1523.5C2531.83 1514.15 2541.7 1498.17 2548.41 1488C2555.12 1477.83 2564.85 1463.65 2570.04 1456.5C2575.23 1449.35 2584.61 1436.97 2590.88 1429C2597.16 1421.03 2607.51 1408.42 2613.88 1401C2620.25 1393.58 2632.06 1380.3 2640.11 1371.5C2648.16 1362.7 2666.62 1343.8 2681.12 1329.49C2695.63 1315.19 2716.05 1295.89 2726.5 1286.59C2736.95 1277.3 2752.25 1263.99 2760.5 1257.01C2768.75 1250.04 2783.6 1237.83 2793.5 1229.88C2803.4 1221.93 2818.93 1209.77 2828 1202.86C2837.07 1195.94 2852.15 1184.68 2861.5 1177.82C2870.85 1170.97 2888.18 1158.61 2900 1150.35C2911.82 1142.08 2931.63 1128.58 2944 1120.33C2956.38 1112.09 2974.6 1100.17 2984.5 1093.85C2994.4 1087.53 3004.75 1081.07 3007.5 1079.51C3010.86 1077.6 3013.73 1076.72 3016.25 1076.83C3018.31 1076.92 3021.18 1077.79 3022.63 1078.75C3024.08 1079.71 3025.88 1081.74 3026.63 1083.25C3027.38 1084.76 3028 1087.35 3028 1089C3028 1090.65 3025.12 1099.76 3021.61 1109.25C3018.09 1118.74 3011.99 1135.72 3008.05 1147C3004.11 1158.28 2997.27 1178.97 2992.86 1193C2988.45 1207.03 2982.16 1227.95 2978.88 1239.5C2975.6 1251.05 2969.82 1272.88 2966.04 1288C2962.26 1303.13 2957.13 1324.95 2954.65 1336.5C2952.18 1348.05 2948.34 1367.4 2946.14 1379.5C2943.94 1391.6 2940.78 1410.5 2939.11 1421.5C2937.45 1432.5 2934.96 1451.17 2933.58 1463C2932.19 1474.83 2930.38 1492.38 2929.56 1502C2928.73 1511.63 2927.49 1527.83 2926.82 1538C2926.13 1548.29 2925.58 1576.91 2925.58 1602.5C2925.57 1629.1 2926.1 1656.3 2926.83 1667C2927.52 1677.17 2928.75 1692.7 2929.55 1701.5C2930.36 1710.3 2932.17 1726.72 2933.58 1738C2934.99 1749.28 2937.67 1767.72 2939.53 1779C2941.39 1790.28 2944.53 1807.38 2946.51 1817C2948.48 1826.63 2952.3 1843.5 2955.01 1854.5C2957.71 1865.5 2962.37 1883.05 2965.37 1893.5C2968.38 1903.95 2973.75 1921.28 2977.31 1932C2980.87 1942.72 2986.56 1958.92 2989.95 1968C2993.35 1977.08 2999.2 1991.92 3002.95 2001C3006.71 2010.08 3013.21 2025.04 3017.39 2034.25C3021.58 2043.46 3029.5 2060 3035 2071C3040.5 2082 3048.89 2098.09 3053.64 2106.75C3058.4 2115.41 3067.25 2130.82 3073.32 2141C3079.38 2151.18 3088.82 2166.47 3094.29 2175C3099.76 2183.53 3109.2 2197.7 3115.28 2206.5C3121.35 2215.3 3134.75 2233.75 3145.06 2247.5C3155.37 2261.25 3168.6 2278.35 3174.46 2285.5C3180.32 2292.65 3191.09 2305.47 3198.39 2314C3205.68 2322.53 3218.79 2337.38 3227.51 2347C3236.22 2356.63 3257.56 2378.69 3274.93 2396.04C3292.29 2413.38 3314.17 2434.53 3323.53 2443.04C3332.9 2451.54 3346.4 2463.62 3353.53 2469.89C3360.67 2476.15 3374.28 2487.85 3383.78 2495.89C3393.28 2503.92 3401.38 2510.16 3401.78 2509.74C3402.18 2509.32 3401.44 2505.27 3400.14 2500.74C3398.84 2496.21 3395.74 2486.43 3393.25 2479C3390.76 2471.57 3385.93 2458.53 3382.52 2450C3379.1 2441.47 3373.23 2427.75 3369.47 2419.5C3365.71 2411.25 3357.83 2395.05 3351.96 2383.5C3346.09 2371.95 3337.56 2355.75 3333.01 2347.5C3328.45 2339.25 3319.76 2323.95 3313.68 2313.5C3307.61 2303.05 3297.25 2285.72 3290.65 2275C3284.06 2264.28 3273.03 2246.72 3266.16 2236C3259.28 2225.28 3246.91 2206.38 3238.66 2194C3230.41 2181.63 3215.09 2159.13 3204.61 2144C3194.13 2128.88 3182.15 2110.88 3177.99 2104C3173.82 2097.13 3167.22 2085.2 3163.31 2077.5C3159.4 2069.8 3153.94 2058.1 3151.17 2051.5C3148.4 2044.9 3143.91 2032.97 3141.2 2025C3138.49 2017.03 3134.65 2004.2 3132.67 1996.5C3130.7 1988.8 3127.97 1976.42 3126.62 1969C3125.26 1961.58 3123.42 1949.42 3122.52 1942C3121.62 1934.58 3120.51 1919.72 3120.05 1909C3119.59 1898.28 3119.6 1880.5 3120.07 1869.5C3120.55 1858.5 3121.61 1843.42 3122.43 1836C3123.25 1828.58 3124.63 1817.78 3125.49 1812C3126.34 1806.22 3127.97 1796.55 3129.1 1790.5C3130.23 1784.45 3132.71 1772.75 3134.61 1764.5C3136.51 1756.25 3140.51 1740.95 3143.5 1730.5C3146.48 1720.05 3151.6 1703.63 3154.87 1694C3158.13 1684.38 3163.94 1668.4 3167.77 1658.5C3171.6 1648.6 3178.57 1631.72 3183.27 1621C3187.97 1610.28 3196.05 1592.72 3201.22 1582C3206.4 1571.28 3215.06 1554.17 3220.48 1544C3225.89 1533.83 3236.39 1514.92 3243.8 1502C3251.2 1489.08 3263.58 1468.38 3271.29 1456C3279.01 1443.63 3293.29 1421.58 3303.03 1407C3312.77 1392.42 3328.3 1369.92 3337.54 1357C3346.77 1344.08 3357.63 1329.11 3361.67 1323.75C3365.7 1318.39 3370.35 1313.33 3372 1312.5C3373.65 1311.67 3376.24 1311 3377.75 1311C3379.26 1311.01 3381.96 1311.91 3383.75 1313C3385.54 1314.1 3387.51 1316.01 3388.13 1317.25C3388.75 1318.49 3391.44 1331.2 3394.1 1345.5C3396.77 1359.8 3400.99 1380.95 3403.49 1392.5C3405.99 1404.05 3410.52 1423.63 3413.55 1436C3416.58 1448.38 3421.33 1466.83 3424.11 1477C3426.89 1487.17 3432.03 1504.95 3435.53 1516.5C3439.03 1528.05 3445.45 1548.08 3449.81 1561C3454.16 1573.92 3460.66 1592.38 3464.24 1602C3467.83 1611.63 3474.02 1627.6 3478 1637.5C3481.98 1647.4 3490.01 1666.3 3495.84 1679.5C3501.67 1692.7 3512.12 1714.97 3519.06 1729C3526 1743.03 3534.97 1760.58 3538.99 1768C3543.01 1775.42 3551.34 1790.28 3557.51 1801C3563.68 1811.72 3573.8 1828.6 3579.99 1838.5C3586.18 1848.4 3597.17 1865.28 3604.41 1876C3611.65 1886.72 3623.63 1903.76 3631.04 1913.86C3638.44 1923.96 3651.75 1941.29 3660.6 1952.36C3669.46 1963.44 3682.51 1979.24 3689.6 1987.48C3696.7 1995.72 3710 2010.57 3719.16 2020.48C3728.32 2030.39 3742.05 2044.64 3749.66 2052.15C3757.27 2059.65 3775.43 2075.59 3790 2087.56C3804.57 2099.53 3826.6 2117.91 3838.93 2128.41C3851.27 2138.91 3872.65 2157.37 3886.43 2169.42C3900.22 2181.48 3920.72 2199.7 3932 2209.92C3943.28 2220.13 3959.47 2234.98 3968 2242.91C3976.53 2250.84 3998.57 2271.85 4017 2289.58C4035.43 2307.32 4061.77 2333.46 4075.55 2347.67C4089.33 2361.88 4108.01 2381.38 4117.05 2391C4126.1 2400.63 4141.6 2417.5 4151.5 2428.5C4161.4 2439.5 4175.16 2455.03 4182.08 2463C4188.99 2470.97 4201.8 2486.05 4210.54 2496.5C4219.28 2506.95 4233.6 2524.5 4242.37 2535.5C4251.14 2546.5 4267.4 2567.65 4278.51 2582.5C4289.63 2597.35 4304.72 2618.05 4312.05 2628.5C4319.38 2638.95 4332.2 2657.85 4340.53 2670.5C4348.86 2683.15 4359.96 2700.47 4365.19 2709C4370.42 2717.53 4379.19 2732.15 4384.68 2741.5C4390.16 2750.85 4398.96 2766.38 4404.23 2776C4409.49 2785.63 4420.28 2806.55 4428.2 2822.5C4436.12 2838.45 4446.46 2860.28 4451.18 2871C4455.9 2881.72 4462.92 2898.38 4466.78 2908C4470.65 2917.63 4476.73 2933.6 4480.3 2943.5C4483.87 2953.4 4489.28 2969.38 4492.32 2979C4495.36 2988.63 4501.24 3007.97 4505.38 3022C4509.51 3036.03 4514.25 3052.9 4515.91 3059.5C4517.56 3066.1 4520.49 3079.38 4522.42 3089C4524.34 3098.63 4526.83 3112.8 4527.94 3120.5C4529.05 3128.2 4530.73 3141.93 4531.66 3151C4532.9 3163 4533.38 3177.18 4533.43 3203C4533.47 3225.11 4533 3243.78 4532.19 3252.5C4531.46 3260.2 4529.99 3273.03 4528.9 3281C4527.82 3288.97 4526.02 3300.68 4524.9 3307C4523.79 3313.32 4521.3 3325.47 4519.38 3334C4517.45 3342.53 4514.15 3355.8 4512.04 3363.5C4509.92 3371.2 4506.07 3384.03 4503.47 3392C4500.88 3399.97 4495.83 3414.15 4492.26 3423.5C4488.69 3432.85 4482.39 3448.15 4478.26 3457.5C4474.13 3466.85 4467.21 3481.59 4462.88 3490.25C4458.54 3498.91 4451.32 3512.64 4446.83 3520.75C4442.34 3528.86 4435.3 3541.13 4431.19 3548C4427.07 3554.88 4418.09 3569.05 4411.23 3579.5C4404.36 3589.95 4394.9 3603.9 4390.19 3610.5C4385.48 3617.1 4376.69 3629.03 4370.65 3637C4364.61 3644.97 4354.01 3658.47 4347.1 3667C4340.18 3675.53 4328.47 3689.47 4321.08 3698C4313.69 3706.53 4300.41 3721.34 4291.57 3730.93C4282.73 3740.52 4264.68 3759.19 4251.45 3772.43C4238.21 3785.67 4217.06 3806.02 4204.45 3817.65C4191.83 3829.28 4175.2 3844.31 4167.5 3851.05C4159.8 3857.79 4143.15 3871.93 4130.5 3882.48C4117.85 3893.04 4098.73 3908.64 4088 3917.16C4077.28 3925.68 4058.38 3940.31 4046 3949.67C4033.63 3959.03 4016.53 3971.8 4008 3978.03C3999.47 3984.27 3980.35 3997.9 3965.5 4008.32C3950.65 4018.75 3923.2 4037.47 3904.5 4049.92C3885.8 4062.38 3859.47 4079.57 3846 4088.12C3832.53 4096.67 3808.68 4111.55 3793 4121.18C3777.32 4130.81 3751.9 4146.12 3736.5 4155.19C3721.1 4164.27 3697.47 4177.99 3684 4185.69C3670.53 4193.4 3649.38 4205.33 3637 4212.22C3624.63 4219.1 3603.7 4230.58 3590.5 4237.73C3577.3 4244.87 3555.03 4256.8 3541 4264.23C3526.97 4271.66 3496.38 4287.54 3473 4299.51C3449.63 4311.47 3417.22 4328.68 3401 4337.74C3384.78 4346.81 3359.8 4360.99 3345.5 4369.25C3331.2 4377.52 3305.1 4392.93 3287.5 4403.5C3269.9 4414.07 3242.22 4431.02 3226 4441.17C3209.78 4451.32 3187.5 4465.43 3176.5 4472.52C3165.5 4479.6 3140.97 4495.81 3122 4508.52C3103.03 4521.24 3076.03 4539.67 3062 4549.49C3047.97 4559.31 3026.82 4574.32 3015 4582.85C3003.18 4591.39 2980 4608.49 2963.5 4620.85C2947 4633.22 2925.4 4649.65 2915.5 4657.36C2905.6 4665.07 2887.38 4679.48 2875 4689.38C2862.63 4699.27 2841.93 4716.15 2829 4726.88C2816.07 4737.61 2796.05 4754.51 2784.5 4764.43C2772.95 4774.35 2753.39 4791.47 2741.02 4802.48C2728.66 4813.49 2709.09 4831.23 2697.52 4841.89C2685.96 4852.56 2661.49 4875.73 2643.14 4893.39C2624.8 4911.05 2596.54 4939.23 2580.35 4956C2564.16 4972.77 2549.25 4987.72 2547.21 4989.22C2544.9 4990.91 2542.18 4991.95 2540 4991.97C2538.07 4992 2535.38 4991.26 2534 4990.33C2532.63 4989.4 2523.85 4981.39 2514.5 4972.53C2505.15 4963.67 2491.19 4950.59 2483.49 4943.46C2475.78 4936.33 2459.35 4921.49 2446.99 4910.47C2434.62 4899.45 2413.7 4881.2 2400.5 4869.91C2387.3 4858.61 2367.28 4841.72 2356 4832.37C2344.72 4823.02 2322.9 4805.27 2307.5 4792.92C2292.1 4780.58 2270.5 4763.48 2259.5 4754.92C2248.5 4746.37 2226.45 4729.45 2210.5 4717.33C2194.55 4705.2 2167.78 4685.18 2151 4672.83C2134.22 4660.48 2107 4640.7 2090.5 4628.88C2074 4617.06 2046.33 4597.47 2029 4585.36C2011.67 4573.25 1986.47 4555.78 1973 4546.54C1959.53 4537.3 1922.4 4512.36 1890.5 4491.11C1858.6 4469.86 1819.67 4444.18 1804 4434.05C1788.33 4423.91 1759.3 4405.29 1739.5 4392.66C1719.7 4380.03 1684.6 4357.91 1661.5 4343.5C1638.4 4329.1 1606.67 4309.44 1591 4299.82C1575.33 4290.2 1544.28 4271.31 1522 4257.83C1499.72 4244.35 1459.45 4220.26 1432.5 4204.29C1405.55 4188.33 1364.38 4164.12 1341 4150.49C1317.63 4136.86 1273.97 4111.67 1244 4094.51C1214.03 4077.34 1167.9 4051.14 1141.5 4036.29C1115.1 4021.44 1068.75 3995.57 1038.5 3978.81C1008.25 3962.05 977.42 3945.02 970 3940.97C962.58 3936.92 946.15 3927.12 933.5 3919.2C920.85 3911.27 896.1 3895.21 878.5 3883.5C860.9 3871.8 835.92 3854.68 823 3845.45C810.08 3836.23 790.5 3821.89 779.5 3813.6C768.5 3805.3 751.4 3792.02 741.5 3784.08C731.6 3776.15 716.32 3763.54 707.53 3756.08C698.75 3748.61 684.58 3736.22 676.03 3728.55C667.49 3720.88 649 3703.1 634.94 3689.05C620.87 3675 603.99 3657.43 597.41 3650C590.83 3642.57 580.76 3630.88 575.03 3624C569.31 3617.13 559.24 3604.3 552.66 3595.5C546.08 3586.7 536.63 3573.43 531.65 3566C526.67 3558.57 518.82 3546.2 514.2 3538.5C509.58 3530.8 500.71 3514.15 494.5 3501.5C488.28 3488.85 481.17 3473.32 478.68 3467C476.2 3460.68 472.31 3449.88 470.03 3443C467.76 3436.13 464.37 3424.43 462.5 3417C460.63 3409.57 458.21 3398.78 457.1 3393C456 3387.22 454.38 3376.88 453.49 3370C452.61 3363.13 451.62 3348.5 451.3 3337.5C450.98 3326.46 451.25 3307.2 451.91 3294.5C452.56 3281.85 453.77 3263.63 454.59 3254C455.4 3244.38 456.98 3228.63 458.08 3219C459.19 3209.38 461.64 3191.15 463.54 3178.5C465.43 3165.85 468.81 3145.82 471.05 3134C473.28 3122.18 476.91 3104.4 479.11 3094.5C481.31 3084.6 485.59 3066.6 488.63 3054.5C491.66 3042.4 497.51 3020.8 501.62 3006.5C505.73 2992.2 513.98 2965.88 519.95 2948C525.91 2930.13 534.16 2906.5 538.27 2895.5C542.39 2884.5 549.24 2866.72 553.51 2856C557.78 2845.28 565.21 2827.28 570.02 2816C574.83 2804.72 583.86 2784.25 590.09 2770.5C596.32 2756.75 610.98 2726.38 622.67 2703C634.36 2679.63 650.06 2649.25 657.57 2635.5C665.07 2621.75 676.85 2600.6 683.74 2588.5C690.63 2576.4 702.58 2555.93 710.3 2543C718.02 2530.07 730.94 2508.93 739.01 2496C747.08 2483.07 759.66 2463.28 766.96 2452C774.26 2440.72 788.43 2419.35 798.44 2404.5C808.45 2389.65 824.21 2366.7 833.47 2353.5C842.73 2340.3 858.64 2318.03 868.83 2304C879.01 2289.97 897.02 2265.68 908.85 2250C920.67 2234.32 936.65 2213.4 944.35 2203.5C952.05 2193.6 968.78 2172.45 981.53 2156.5C994.28 2140.55 1012.69 2117.82 1022.43 2106C1032.17 2094.18 1051.75 2070.78 1065.93 2054C1080.12 2037.22 1103.34 2010.22 1117.55 1994C1131.75 1977.78 1152.85 1953.94 1164.43 1941.04C1176.02 1928.13 1195.85 1906.29 1208.5 1892.49C1221.15 1878.7 1238.28 1859.33 1246.57 1849.45C1254.86 1839.58 1268.62 1822.72 1277.16 1812C1285.69 1801.28 1297.63 1785.97 1303.69 1778C1309.75 1770.03 1320.55 1755.4 1327.69 1745.5C1334.83 1735.6 1346.76 1718.5 1354.22 1707.5C1361.67 1696.5 1372.91 1679.4 1379.21 1669.5C1385.5 1659.6 1395.08 1644.08 1400.48 1635C1405.89 1625.92 1414.23 1611.53 1419.02 1603C1423.82 1594.47 1432.44 1578.5 1438.18 1567.5C1443.93 1556.5 1453.27 1537.83 1458.94 1526C1464.61 1514.17 1473.86 1493.7 1479.5 1480.5C1485.14 1467.3 1492.35 1449.75 1495.52 1441.5C1498.68 1433.25 1503.93 1419.08 1507.17 1410C1510.41 1400.92 1515.07 1387.09 1517.53 1379.25C1521.2 1367.54 1522.53 1364.55 1525 1362.5C1527.17 1360.69 1529.18 1360 1532.25 1360C1534.74 1360.01 1537.85 1360.83 1539.75 1362C1542.19 1363.5 1543.41 1365.32 1544.62 1369.25C1546.04 1373.86 1546.1 1376.54 1545.12 1391.25C1544.5 1400.46 1544 1417.11 1544 1428.25C1544 1439.39 1544.46 1455.7 1545.03 1464.5C1545.6 1473.3 1546.74 1486.58 1547.57 1494C1548.39 1501.42 1550.19 1514.47 1551.56 1523C1552.93 1531.53 1555.61 1545.47 1557.51 1554C1559.41 1562.53 1562.55 1575.35 1564.5 1582.5C1566.44 1589.65 1570.32 1602.47 1573.12 1611C1575.92 1619.53 1581.85 1635.72 1586.3 1647C1590.76 1658.28 1600.36 1679.42 1607.63 1694C1614.91 1708.58 1625.31 1727.92 1630.75 1737C1636.19 1746.08 1645.61 1760.92 1651.67 1770C1657.74 1779.08 1667.57 1793.03 1673.52 1801C1679.47 1808.97 1688.87 1821.13 1694.4 1828C1699.93 1834.88 1710.74 1847.7 1718.42 1856.5C1726.1 1865.3 1745.24 1885.36 1760.94 1901.07C1776.65 1916.78 1796.25 1935.63 1804.5 1942.96C1812.75 1950.29 1827.15 1962.67 1836.5 1970.48C1845.85 1978.29 1859.8 1989.62 1867.5 1995.67C1875.2 2001.71 1889.38 2012.51 1899 2019.65C1908.63 2026.8 1923.47 2037.54 1932 2043.53C1940.53 2049.52 1959.2 2062.13 1973.5 2071.56C1987.8 2080.98 2009.4 2094.78 2021.5 2102.22C2033.6 2109.65 2053.18 2121.35 2065 2128.2C2076.82 2135.06 2095.5 2145.63 2106.5 2151.69C2117.5 2157.75 2134.15 2166.77 2143.5 2171.73C2152.85 2176.7 2176.47 2188.75 2196 2198.51C2215.53 2208.28 2243.43 2221.88 2258 2228.73C2272.57 2235.58 2300.03 2248.08 2319 2256.49C2337.97 2264.91 2366.1 2277.07 2381.5 2283.52C2396.9 2289.96 2422.78 2300.55 2439 2307.03C2455.22 2313.52 2479.07 2322.88 2492 2327.83C2504.93 2332.78 2519.78 2337.81 2525 2339.02C2530.22 2340.22 2535.51 2341.83 2536.75 2342.6C2537.99 2343.37 2539.9 2345.46 2541 2347.25C2542.21 2349.23 2542.99 2352.25 2542.99 2355C2542.99 2357.75 2542.21 2360.77 2541 2362.75C2539.9 2364.54 2537.99 2366.52 2536.75 2367.15C2535.51 2367.79 2533.38 2368.64 2532 2369.05C2530.63 2369.47 2512.4 2368.42 2491.5 2366.73C2457.02 2363.93 2449.38 2363.64 2409 2363.57C2380.5 2363.53 2359.29 2363.96 2350 2364.78C2342.03 2365.48 2328.97 2366.73 2321 2367.56C2313.03 2368.39 2296.38 2370.41 2284 2372.06C2271.63 2373.7 2251.15 2376.64 2238.5 2378.58C2225.85 2380.52 2204.47 2384.31 2191 2387.02C2177.53 2389.72 2159.07 2393.77 2150 2396.01C2140.93 2398.26 2127.43 2401.86 2120 2404.01C2112.57 2406.16 2099.3 2410.36 2090.5 2413.36C2081.7 2416.35 2067.53 2421.59 2059 2424.99C2050.47 2428.4 2036.08 2434.49 2027 2438.52C2017.92 2442.55 2003.53 2449.18 1995 2453.26C1986.47 2457.34 1972.08 2464.64 1963 2469.48C1953.92 2474.32 1939.3 2482.59 1930.5 2487.86C1921.7 2493.12 1903.03 2505.1 1889 2514.47C1874.97 2523.85 1855.85 2537.13 1846.5 2543.98C1837.15 2550.84 1822.53 2562.05 1814 2568.89C1805.47 2575.74 1794 2585.15 1788.5 2589.81C1783 2594.46 1771.3 2604.66 1762.5 2612.47C1753.7 2620.28 1739.53 2633.36 1731 2641.54C1722.47 2649.71 1709.24 2662.95 1701.59 2670.95C1693.94 2678.95 1681.27 2692.7 1673.43 2701.5C1665.6 2710.3 1652.81 2725.15 1645.02 2734.5C1637.22 2743.85 1624.89 2759.38 1617.6 2769C1610.31 2778.63 1599.45 2793.47 1593.47 2802C1587.49 2810.53 1577.59 2825.15 1571.48 2834.5C1565.37 2843.85 1556.08 2858.47 1550.84 2867C1545.61 2875.53 1537.72 2889.03 1533.32 2897C1528.92 2904.97 1521.68 2918.47 1517.23 2927C1512.78 2935.53 1504.78 2951.72 1499.44 2963C1494.1 2974.28 1486.16 2991.38 1481.78 3001C1477.4 3010.63 1469.86 3028.4 1465.02 3040.5C1460.18 3052.6 1452.83 3071.72 1448.68 3083C1444.54 3094.28 1438.87 3111.38 1436.09 3121C1433.32 3130.63 1429.93 3143.45 1428.58 3149.5C1427.22 3155.55 1425.19 3165.9 1424.07 3172.5C1422.95 3179.1 1421.15 3192.15 1420.06 3201.5C1418.98 3210.85 1417.51 3225.93 1416.8 3235C1416 3245.34 1415.52 3269.6 1415.52 3300C1415.53 3337.68 1415.93 3353.19 1417.3 3369.5C1418.27 3381.05 1419.96 3398.6 1421.06 3408.5C1422.16 3418.4 1424.18 3433.03 1425.56 3441C1426.94 3448.97 1429.21 3460.68 1430.61 3467C1432 3473.32 1434.94 3485.25 1437.14 3493.5C1439.33 3501.75 1444.44 3518.4 1448.48 3530.5C1452.53 3542.6 1459.98 3562.85 1465.04 3575.5C1470.11 3588.15 1477.62 3605.93 1481.74 3615C1485.86 3624.07 1492.39 3637.8 1496.25 3645.5C1500.11 3653.2 1506.64 3665.57 1510.76 3673C1514.88 3680.43 1521.62 3692.13 1525.75 3699C1529.88 3705.88 1538.45 3719.15 1544.79 3728.5C1551.13 3737.85 1561.57 3752.47 1567.99 3761C1574.41 3769.53 1584.35 3782.15 1590.08 3789.06C1595.81 3795.97 1615.13 3818.18 1633 3838.42C1650.88 3858.66 1666.05 3876.18 1666.71 3877.36C1667.38 3878.54 1667.95 3882.31 1667.96 3885.75C1668 3891.49 1667.72 3892.3 1664.58 3895.75C1661.5 3899.12 1660.66 3899.49 1656.33 3899.45C1652.09 3899.4 1645.92 3896.62 1606 3876.77C1580.97 3864.33 1551.95 3849.57 1541.5 3843.98C1531.05 3838.38 1512.83 3828.38 1501 3821.74C1489.17 3815.11 1470.72 3804.5 1460 3798.18C1449.28 3791.86 1431.5 3781.07 1420.5 3774.2C1409.5 3767.33 1391.5 3755.75 1380.5 3748.47C1369.5 3741.19 1351.72 3729.03 1341 3721.44C1330.28 3713.86 1314.3 3702.25 1305.5 3695.65C1296.7 3689.04 1280.95 3676.8 1270.5 3668.44C1260.05 3660.08 1243.85 3646.62 1234.5 3638.51C1225.15 3630.41 1209.63 3616.46 1200 3607.51C1190.38 3598.56 1175.52 3584.1 1167 3575.37C1158.47 3566.64 1146.38 3553.88 1140.12 3547C1133.86 3540.13 1122.14 3526.63 1114.09 3517C1106.03 3507.38 1093.35 3491.4 1085.91 3481.5C1078.47 3471.6 1066.97 3455.4 1060.36 3445.5C1053.76 3435.6 1045.19 3422.32 1041.34 3416C1037.48 3409.68 1030.71 3397.97 1026.3 3390C1021.88 3382.03 1015.45 3369.88 1012.01 3363C1008.56 3356.13 1002.93 3344.2 999.49 3336.5C996.04 3328.8 990.64 3315.97 987.48 3308C984.31 3300.03 978.44 3283.6 974.42 3271.5C970.41 3259.4 964.87 3240.72 962.11 3230C959.36 3219.28 955.75 3203.75 954.1 3195.5C952.45 3187.25 949.97 3173.07 948.58 3164C947.2 3154.93 945.39 3140.75 944.56 3132.5C943.72 3124.25 942.59 3110.07 942.03 3101C941.47 3091.93 941.01 3074.38 941.01 3062C941.02 3049.63 941.47 3031.85 942.02 3022.5C942.57 3013.15 943.71 2998.53 944.56 2990C945.4 2981.47 947.44 2965.05 949.09 2953.5C950.73 2941.95 954.06 2922.6 956.49 2910.5C958.92 2898.4 963.22 2879.28 966.05 2868C968.88 2856.72 973.83 2838.72 977.04 2828C980.26 2817.28 985.79 2799.95 989.33 2789.5C992.87 2779.05 999.04 2761.95 1003.03 2751.5C1007.02 2741.05 1014.21 2723.28 1019.01 2712C1023.8 2700.72 1031.01 2684.3 1035.04 2675.5C1039.06 2666.7 1048.73 2646.9 1056.52 2631.5C1064.32 2616.1 1074.66 2596.3 1079.51 2587.5C1084.36 2578.7 1093.94 2561.82 1100.8 2550C1107.66 2538.18 1119.59 2518.38 1127.32 2506C1135.04 2493.63 1146.57 2475.53 1152.93 2465.79C1159.29 2456.05 1164.16 2448.07 1163.75 2448.04C1163.34 2448.02 1155.46 2453.32 1146.25 2459.82C1137.04 2466.32 1121.63 2477.4 1112 2484.46C1102.38 2491.51 1087.75 2502.48 1079.5 2508.83C1071.25 2515.19 1056.85 2526.55 1047.5 2534.08C1038.15 2541.62 1023.75 2553.5 1015.5 2560.49C1007.25 2567.47 992.4 2580.46 982.5 2589.34C972.61 2598.23 953.54 2616.3 940.14 2629.5C926.73 2642.7 909.34 2660.47 901.48 2669C893.63 2677.53 881.19 2691.52 873.85 2700.09C866.51 2708.67 854.88 2722.83 848 2731.56C841.13 2740.3 829.72 2755.55 822.66 2765.47C815.6 2775.39 804.97 2791.15 799.04 2800.5C793.11 2809.85 784.3 2824.47 779.46 2833C774.61 2841.53 766.03 2857.95 760.37 2869.5C754.72 2881.05 747.11 2897.7 743.46 2906.5C739.81 2915.3 733.5 2932.4 729.44 2944.5C725.38 2956.6 720.26 2973.47 718.06 2982C715.86 2990.53 712.71 3004.25 711.06 3012.5C709.4 3020.75 707.16 3033.57 706.07 3041C704.98 3048.43 703.34 3063.05 702.43 3073.5C701.11 3088.55 700.88 3099.56 701.32 3126.5C701.73 3151.97 702.38 3164.77 703.93 3177.5C705.07 3186.85 707.15 3201.25 708.54 3209.5C709.94 3217.75 712.64 3231.36 714.54 3239.75C716.44 3248.14 719.32 3259.84 720.93 3265.75C722.54 3271.66 725.95 3283.25 728.52 3291.5C731.08 3299.75 736.03 3314.15 739.51 3323.5C743 3332.85 748.62 3347.03 751.99 3355C755.37 3362.97 763.2 3379.85 769.38 3392.5C775.57 3405.15 784.62 3422.7 789.48 3431.5C794.35 3440.3 802.81 3454.93 808.29 3464C813.76 3473.07 824.68 3490.18 832.54 3502C840.4 3513.82 852.94 3531.82 860.41 3542C867.87 3552.18 879.95 3568.11 887.24 3577.42C894.53 3586.72 906.17 3601.12 913.1 3609.42C920.03 3617.71 932.38 3632.15 940.54 3641.5C948.71 3650.85 960.81 3663.91 967.44 3670.53C974.07 3677.15 985.58 3687.69 993 3693.95C1000.42 3700.21 1015.27 3711.9 1026 3719.93C1036.72 3727.95 1056.3 3741.75 1069.5 3750.6C1082.7 3759.45 1103.63 3773 1116 3780.71C1128.38 3788.42 1147.5 3800.04 1158.5 3806.52C1169.5 3812.99 1188.17 3823.79 1200 3830.51C1211.83 3837.23 1233.88 3849.49 1249 3857.76C1264.13 3866.02 1291.58 3880.72 1310 3890.43C1328.42 3900.13 1372.08 3922.36 1407 3939.83C1441.92 3957.3 1490.53 3981.2 1515 3992.94C1539.47 4004.69 1580.42 4024.79 1606 4037.61C1631.58 4050.43 1665.1 4067.51 1680.5 4075.56C1695.9 4083.61 1720.65 4096.74 1735.5 4104.74C1750.35 4112.74 1773.53 4125.36 1787 4132.77C1800.47 4140.19 1823.88 4153.25 1839 4161.8C1854.13 4170.36 1880.67 4185.53 1898 4195.54C1915.33 4205.54 1940.3 4220.16 1953.5 4228.02C1966.7 4235.88 1990.55 4250.19 2006.5 4259.82C2022.45 4269.45 2051.47 4287.24 2071 4299.35C2090.53 4311.45 2122.03 4331.25 2141 4343.34C2159.97 4355.43 2188.32 4373.65 2204 4383.82C2219.68 4394 2257.25 4418.85 2287.5 4439.05C2317.75 4459.25 2358.7 4486.91 2378.5 4500.53C2398.3 4514.15 2426.43 4533.64 2441 4543.84C2455.57 4554.04 2477.63 4569.58 2490 4578.36C2502.38 4587.15 2512.95 4594.34 2513.5 4594.35C2514.05 4594.35 2539.47 4577.53 2570 4556.96C2600.53 4536.4 2652.05 4501.97 2684.5 4480.46C2716.95 4458.94 2762.63 4428.82 2786 4413.51C2809.38 4398.2 2847.4 4373.45 2870.5 4358.51C2893.6 4343.56 2926.45 4322.41 2943.5 4311.5C2960.55 4300.59 2993.85 4279.44 3017.5 4264.51C3041.15 4249.58 3077.82 4226.63 3099 4213.51C3120.18 4200.39 3155.72 4178.55 3178 4164.99C3200.28 4151.42 3234.03 4131.09 3253 4119.81C3271.97 4108.52 3301 4091.41 3317.5 4081.79C3334 4072.16 3358.53 4057.98 3372 4050.29C3385.47 4042.59 3408.2 4029.77 3422.5 4021.79C3436.8 4013.82 3458.4 4001.89 3470.5 3995.28C3482.6 3988.67 3502.85 3977.75 3515.5 3971.01C3528.15 3964.27 3559.2 3948.18 3584.5 3935.26C3609.8 3922.33 3642.88 3905.22 3658 3897.23C3673.13 3889.24 3696.53 3876.64 3710 3869.23C3723.47 3861.82 3744.4 3850.13 3756.5 3843.25C3768.6 3836.37 3787.72 3825.33 3799 3818.7C3810.28 3812.07 3829.4 3800.6 3841.5 3793.2C3853.6 3785.79 3873.4 3773.43 3885.5 3765.72C3897.6 3758 3919.43 3743.71 3934 3733.94C3948.57 3724.18 3971.07 3708.66 3984 3699.44C3996.93 3690.22 4016.5 3675.89 4027.5 3667.6C4038.5 3659.3 4056.72 3645.13 4068 3636.1C4079.28 3627.07 4094.12 3614.92 4100.98 3609.09C4107.85 3603.27 4117.75 3594.72 4122.98 3590.1C4128.22 3585.48 4139.93 3574.86 4149 3566.49C4163.5 3553.12 4166.79 3549.46 4176.12 3536.38C4181.97 3528.2 4192.55 3512.72 4199.64 3502C4206.73 3491.28 4217.52 3474.18 4223.63 3464C4229.74 3453.82 4238.21 3439.2 4242.46 3431.5C4246.7 3423.8 4255.02 3407.6 4260.95 3395.5C4266.88 3383.4 4274.7 3366.53 4278.31 3358C4281.93 3349.47 4287.1 3336.65 4289.81 3329.5C4292.52 3322.35 4297.23 3308.85 4300.27 3299.5C4303.32 3290.15 4307.62 3275.75 4309.83 3267.5C4312.04 3259.25 4315.05 3247.1 4316.51 3240.5C4317.97 3233.9 4320.45 3220.85 4322.01 3211.5C4323.58 3202.15 4325.61 3187.53 4326.54 3179C4327.46 3170.47 4328.45 3151.13 4328.74 3136C4329.07 3118.99 4328.81 3102.21 4328.07 3092C4327.41 3082.93 4325.98 3068.75 4324.9 3060.5C4323.82 3052.25 4321.58 3038.75 4319.93 3030.5C4318.29 3022.25 4315.17 3008.75 4313.02 3000.5C4310.86 2992.25 4306.88 2978.75 4304.18 2970.5C4301.48 2962.25 4296.68 2948.97 4293.52 2941C4290.35 2933.03 4284.66 2919.75 4280.86 2911.5C4277.07 2903.25 4270.2 2889.53 4265.6 2881C4261 2872.47 4253.99 2860.1 4250.02 2853.5C4246.05 2846.9 4238.46 2834.97 4233.17 2827C4227.87 2819.03 4217.45 2804.39 4210.02 2794.48C4202.58 2784.57 4190.88 2769.74 4184 2761.51C4177.13 2753.29 4164.7 2739.12 4156.39 2730.03C4148.08 2720.94 4131.87 2704.28 4120.37 2693C4108.87 2681.72 4092.05 2665.92 4082.98 2657.87C4073.92 2649.83 4061.55 2639.07 4055.5 2633.97C4049.45 2628.86 4037.07 2618.76 4028 2611.51C4018.93 2604.26 4001.82 2591.13 3990 2582.33C3978.18 2573.54 3961.75 2561.61 3953.5 2555.82C3945.25 2550.04 3927.59 2538.03 3914.25 2529.15C3900.91 2520.27 3889.55 2513 3889 2513C3888.45 2513 3891.19 2520.31 3895.08 2529.25C3898.98 2538.19 3907.47 2558.78 3913.96 2575C3920.46 2591.22 3929.47 2614.63 3933.99 2627C3938.51 2639.38 3945.57 2659.4 3949.66 2671.5C3953.76 2683.6 3960.42 2704.3 3964.46 2717.5C3968.5 2730.7 3974.29 2750.5 3977.33 2761.5C3980.37 2772.5 3984.5 2788.03 3986.51 2796C3988.51 2803.97 3992.61 2821.53 3995.62 2835C3998.62 2848.47 4003.11 2870.53 4005.58 2884C4008.06 2897.47 4011.62 2919.3 4013.51 2932.5C4015.39 2945.7 4017.84 2965.05 4018.96 2975.5C4020.07 2985.95 4021.7 3003.72 4022.57 3015C4023.45 3026.28 4024.41 3053.5 4024.71 3075.5C4025.05 3100.22 4024.82 3123.9 4024.1 3137.5C4023.47 3149.6 4022.27 3166.93 4021.44 3176C4020.61 3185.07 4019.03 3199.7 4017.93 3208.5C4016.83 3217.3 4014.79 3231.47 4013.4 3240C4012.01 3248.53 4009.34 3263.15 4007.46 3272.5C4005.59 3281.85 4002 3297.82 3999.48 3308C3996.97 3318.18 3993.54 3331.22 3991.88 3337C3990.22 3342.78 3986.88 3353.8 3984.46 3361.5C3982.04 3369.2 3977.18 3383.38 3973.66 3393C3970.14 3402.63 3964.89 3416.35 3961.99 3423.5C3959.09 3430.65 3952.7 3445.28 3947.79 3456C3942.88 3466.72 3935.46 3482.03 3931.29 3490C3927.13 3497.97 3919.96 3511.14 3915.36 3519.25C3910.76 3527.36 3903.35 3539.96 3898.89 3547.25C3894.42 3554.54 3885.14 3568.82 3878.26 3579C3871.37 3589.18 3859.99 3605.15 3852.96 3614.5C3845.93 3623.85 3835.39 3637.35 3829.54 3644.5C3823.69 3651.65 3813.41 3663.79 3806.7 3671.47C3799.99 3679.16 3787.04 3693.33 3777.92 3702.97C3768.8 3712.61 3753.73 3727.76 3744.42 3736.63C3735.11 3745.5 3720.53 3758.95 3712 3766.52C3703.47 3774.09 3689.97 3785.73 3682 3792.39C3674.03 3799.05 3659.4 3810.8 3649.5 3818.51C3639.6 3826.23 3623.18 3838.59 3613 3845.98C3602.82 3853.38 3584.38 3866.25 3572 3874.59C3559.63 3882.93 3542.07 3894.46 3533 3900.2C3523.93 3905.95 3507.05 3916.27 3495.5 3923.14C3483.95 3930.01 3466.18 3940.28 3456 3945.96C3445.82 3951.64 3426.93 3962.26 3414 3969.56C3401.07 3976.86 3380.38 3988.28 3368 3994.94C3355.63 4001.61 3331.55 4013.98 3314.5 4022.44C3297.45 4030.9 3273.6 4042.32 3261.5 4047.82C3249.4 4053.32 3231.4 4061.29 3221.5 4065.53C3211.6 4069.77 3191.8 4077.87 3177.5 4083.53C3163.2 4089.19 3143.18 4096.83 3133 4100.5C3122.82 4104.17 3105.28 4110.25 3094 4114.01C3082.72 4117.77 3063.82 4123.77 3052 4127.34C3040.18 4130.92 3020.38 4136.57 3008 4139.91C2995.63 4143.25 2974.7 4148.49 2961.5 4151.55C2948.3 4154.62 2927.6 4159.11 2915.5 4161.54C2903.4 4163.96 2884.05 4167.51 2872.5 4169.43C2860.95 4171.35 2843.4 4174.04 2833.5 4175.42C2823.6 4176.79 2807.4 4178.83 2797.5 4179.95C2787.6 4181.07 2768.25 4182.87 2754.5 4183.94C2740.75 4185.02 2717.35 4186.43 2702.5 4187.09C2685.47 4187.83 2659.44 4188.05 2632 4187.68C2608.07 4187.36 2578.38 4186.39 2566 4185.54C2553.63 4184.68 2538.32 4183.51 2532 4182.94C2525.68 4182.37 2510.6 4180.77 2498.5 4179.4C2486.4 4178.02 2468.85 4175.78 2459.5 4174.43C2450.15 4173.08 2433.5 4170.42 2422.5 4168.52C2411.5 4166.62 2392.38 4163 2380 4160.48C2367.63 4157.96 2349.85 4154.08 2340.5 4151.87C2331.15 4149.66 2314.95 4145.61 2304.5 4142.87C2294.05 4140.13 2277.18 4135.47 2267 4132.49C2256.82 4129.52 2240.18 4124.42 2230 4121.16C2219.82 4117.89 2204.07 4112.65 2195 4109.52C2185.93 4106.38 2170.63 4100.89 2161 4097.3C2151.38 4093.72 2135.63 4087.64 2126 4083.79C2116.38 4079.95 2099.28 4072.85 2088 4068.02C2076.72 4063.19 2058.95 4055.3 2048.5 4050.49C2038.05 4045.68 2016.9 4035.54 2001.5 4027.96C1986.1 4020.37 1966.3 4010.26 1957.5 4005.47C1948.7 4000.69 1933.63 3992.04 1924 3986.25C1914.38 3980.46 1899.3 3970.88 1890.5 3964.96C1881.7 3959.04 1868.2 3949.52 1860.5 3943.8C1852.8 3938.09 1839.54 3927.58 1831.02 3920.45C1822.51 3913.33 1808.38 3900.53 1799.63 3892C1790.88 3883.47 1778.77 3870.88 1772.73 3864C1766.68 3857.13 1758.03 3846.78 1753.51 3841C1748.98 3835.22 1741.43 3824.88 1736.73 3818C1732.03 3811.13 1724.98 3800.1 1721.05 3793.5C1717.12 3786.9 1711.27 3776.32 1708.05 3770C1704.83 3763.68 1699.4 3751.97 1696 3744C1692.59 3736.03 1687.55 3722.75 1684.8 3714.5C1682.05 3706.25 1678.25 3693.43 1676.35 3686C1674.46 3678.57 1671.83 3666.65 1670.52 3659.5C1669.2 3652.35 1667.44 3641.1 1666.59 3634.5C1665.75 3627.9 1664.6 3616.2 1664.04 3608.5C1663.47 3600.8 1663.01 3586.4 1663.01 3576.5C1663.02 3566.6 1663.48 3551.97 1664.04 3544C1664.6 3536.03 1665.74 3523.43 1666.59 3516C1667.43 3508.57 1669.42 3494.85 1671.01 3485.5C1672.61 3476.15 1675.23 3462.65 1676.84 3455.5C1679.22 3444.88 1680.9 3440.21 1686.01 3430C1689.46 3423.13 1695.42 3411.88 1699.27 3405C1703.13 3398.13 1709.77 3386.88 1714.04 3380C1718.31 3373.13 1725.96 3361.65 1731.04 3354.5C1736.12 3347.35 1744.43 3336.32 1749.51 3330C1754.58 3323.68 1763.89 3312.88 1770.18 3306C1776.47 3299.13 1787.44 3288.18 1794.56 3281.67C1801.68 3275.17 1812.67 3265.81 1819 3260.87C1825.33 3255.94 1836.13 3248.15 1843 3243.56C1849.88 3238.98 1861.35 3231.93 1868.5 3227.91C1875.65 3223.88 1887.58 3217.81 1895 3214.42C1902.42 3211.03 1914.58 3205.98 1922 3203.2C1929.42 3200.42 1941.8 3196.34 1949.5 3194.12C1957.2 3191.91 1968.67 3188.94 1975 3187.53C1981.33 3186.11 1991.67 3184.09 1998 3183.02C2004.33 3181.96 2015.58 3180.4 2023 3179.55C2030.42 3178.7 2045.72 3177.53 2057 3176.95C2068.28 3176.36 2085.15 3176.16 2094.5 3176.5C2103.85 3176.84 2119.6 3177.77 2129.5 3178.58C2139.4 3179.38 2152.9 3180.72 2159.5 3181.56C2166.1 3182.39 2180.72 3184.65 2192 3186.58C2203.28 3188.51 2219.7 3191.69 2228.5 3193.63C2237.3 3195.57 2252.38 3199.18 2262 3201.65C2271.63 3204.11 2280.51 3206.77 2281.75 3207.56C2282.99 3208.35 2284.67 3210.01 2285.49 3211.25C2286.31 3212.49 2287.27 3215.07 2287.61 3217C2288.01 3219.23 2287.7 3221.59 2286.76 3223.5C2285.82 3225.42 2277.56 3232.34 2263.89 3242.66C2252.13 3251.54 2236.65 3263.6 2229.5 3269.46C2222.35 3275.32 2210.2 3285.6 2202.5 3292.31C2194.8 3299.01 2178.8 3314.18 2166.95 3326C2155.1 3337.82 2140.48 3353.29 2134.45 3360.36C2128.43 3367.44 2119.76 3378.01 2115.2 3383.86C2110.63 3389.71 2102.48 3401.03 2097.1 3409C2091.72 3416.97 2084.81 3427.78 2081.76 3433C2078.7 3438.22 2073.28 3448.35 2069.7 3455.5C2066.13 3462.65 2061.52 3472.55 2059.46 3477.5C2057.4 3482.45 2053.97 3491.68 2051.83 3498C2049.69 3504.32 2046.62 3514.68 2045.01 3521C2043.4 3527.32 2041.17 3538.13 2040.06 3545C2038.94 3551.88 2037.14 3565.15 2036.05 3574.5C2034.96 3583.85 2033.55 3599.38 2032.91 3609C2032.2 3619.68 2031.96 3637.61 2032.31 3655C2032.61 3670.68 2033.57 3689.57 2034.44 3697C2035.3 3704.43 2036.96 3716.13 2038.11 3723C2039.27 3729.88 2041.95 3742.47 2044.08 3751C2046.2 3759.53 2049.93 3772.35 2052.37 3779.5C2054.82 3786.65 2059.13 3797.9 2061.96 3804.5C2064.78 3811.1 2069.62 3821.22 2072.7 3827C2075.77 3832.78 2080.99 3841.78 2084.28 3847C2087.57 3852.22 2093.42 3860.78 2097.29 3866C2101.15 3871.22 2107.79 3879.55 2112.04 3884.5C2116.28 3889.45 2125.21 3898.79 2131.88 3905.25C2138.54 3911.71 2149.51 3921.39 2156.25 3926.75C2162.99 3932.11 2173.22 3939.69 2179 3943.6C2184.78 3947.5 2194.68 3953.76 2201 3957.5C2207.32 3961.25 2219.93 3968.04 2229 3972.58C2238.07 3977.13 2252.47 3983.75 2261 3987.29C2269.53 3990.83 2284.38 3996.43 2294 3999.75C2303.63 4003.06 2318.7 4007.84 2327.5 4010.36C2336.3 4012.88 2350.93 4016.71 2360 4018.88C2369.07 4021.06 2383.47 4024.21 2392 4025.89C2400.53 4027.57 2414.25 4030.06 2422.5 4031.43C2430.75 4032.79 2444.03 4034.81 2452 4035.91C2459.97 4037.02 2475.05 4038.82 2485.5 4039.92C2495.95 4041.01 2513.72 4042.6 2525 4043.44C2536.28 4044.29 2554.5 4045.42 2565.5 4045.96C2576.5 4046.51 2603.05 4047.24 2624.5 4047.6C2662.5 4048.23 2664.09 4048.18 2686.5 4045.58C2699.15 4044.12 2719.18 4041.57 2731 4039.92C2742.82 4038.27 2763.3 4035.13 2776.5 4032.95C2789.7 4030.76 2814.9 4026.06 2832.5 4022.51C2850.1 4018.95 2877.1 4012.91 2892.5 4009.09C2907.9 4005.28 2930.63 3999.23 2943 3995.67C2955.38 3992.1 2976.3 3985.59 2989.5 3981.21C3002.7 3976.82 3022.72 3969.75 3034 3965.49C3045.28 3961.23 3063.95 3953.72 3075.5 3948.8C3087.05 3943.88 3107.07 3934.69 3120 3928.38C3132.93 3922.06 3149.8 3913.47 3157.5 3909.28C3165.2 3905.1 3179.82 3896.71 3190 3890.64C3200.18 3884.58 3216.6 3874.19 3226.5 3867.55C3236.4 3860.92 3252.38 3849.57 3262 3842.33C3271.63 3835.09 3285.34 3824.3 3292.48 3818.34C3299.61 3812.38 3310.64 3802.8 3316.98 3797.05C3323.31 3791.3 3335.26 3779.82 3343.52 3771.55C3351.78 3763.27 3362.81 3751.75 3368.02 3745.95C3373.23 3740.15 3382 3730.03 3387.5 3723.47C3393 3716.9 3403.58 3703.42 3411 3693.51C3418.43 3683.61 3429.27 3668.3 3435.09 3659.5C3440.92 3650.7 3449.32 3637.43 3453.76 3630C3458.21 3622.57 3465.04 3610.65 3468.95 3603.5C3472.85 3596.35 3479.59 3583.3 3483.92 3574.5C3488.26 3565.7 3494.6 3552.2 3498.02 3544.5C3501.43 3536.8 3507.62 3521.95 3511.75 3511.5C3515.89 3501.05 3523.23 3480.57 3528.07 3466C3532.91 3451.43 3539.32 3430.5 3542.32 3419.5C3545.91 3406.31 3548.48 3394.22 3549.86 3384C3551.01 3375.47 3552.61 3361.97 3553.42 3354C3554.24 3346.03 3555.46 3332.07 3556.15 3323C3556.84 3313.93 3557.4 3289.85 3557.39 3269.5C3557.39 3249.15 3556.83 3225.53 3556.16 3217C3555.49 3208.47 3554.04 3193.4 3552.94 3183.5C3551.84 3173.6 3549.57 3157.18 3547.9 3147C3546.23 3136.82 3543.52 3122.2 3541.89 3114.5C3540.25 3106.8 3537.55 3095.1 3535.89 3088.5C3534.23 3081.9 3531.12 3070.43 3528.98 3063C3526.83 3055.57 3522.19 3040.95 3518.66 3030.5C3515.12 3020.05 3508.97 3003.4 3504.98 2993.5C3500.99 2983.6 3493.74 2966.95 3488.85 2956.5C3483.97 2946.05 3476.01 2930.07 3471.16 2921C3466.31 2911.93 3457.35 2896.18 3451.25 2886C3445.14 2875.82 3435.48 2860.53 3429.78 2852C3424.08 2843.47 3414.7 2830.04 3408.95 2822.14C3403.2 2814.24 3392.16 2799.84 3384.41 2790.14C3376.65 2780.44 3363.61 2764.85 3355.42 2755.5C3347.23 2746.15 3330.17 2727.97 3317.51 2715.11C3304.86 2702.24 3287.53 2685.19 3279 2677.23C3270.47 2669.26 3254.5 2655 3243.5 2645.53C3232.5 2636.07 3216.3 2622.55 3207.5 2615.5C3198.7 2608.44 3181.15 2594.93 3168.5 2585.47C3155.85 2576 3135.49 2561.34 3123.27 2552.88C3111.04 2544.42 3092.36 2531.88 3081.77 2525.02C3071.17 2518.16 3055.3 2508.09 3046.5 2502.64C3037.7 2497.2 3020.15 2486.67 3007.5 2479.25C2994.85 2471.82 2973.7 2459.8 2960.5 2452.52C2947.3 2445.25 2925.47 2433.52 2912 2426.46C2898.53 2419.4 2875.13 2407.57 2860 2400.18C2844.88 2392.79 2822.38 2382.04 2810 2376.28C2797.63 2370.51 2775.8 2360.62 2761.5 2354.28C2747.2 2347.95 2723.8 2337.84 2709.5 2331.81C2695.2 2325.79 2668.43 2314.86 2650 2307.53C2631.57 2300.2 2602.1 2288.79 2584.5 2282.19C2566.9 2275.58 2539.22 2265.46 2523 2259.68C2506.78 2253.91 2480.22 2244.7 2464 2239.21C2438.82 2230.68 2430.62 2227.37 2408 2216.55C2393.43 2209.58 2370.47 2198.22 2357 2191.3C2343.53 2184.39 2323.72 2174.01 2313 2168.24C2302.28 2162.47 2284.28 2152.56 2273 2146.21C2261.72 2139.86 2242.38 2128.59 2230 2121.16C2217.63 2113.73 2199.4 2102.5 2189.5 2096.2C2179.6 2089.9 2162.72 2078.81 2152 2071.55C2141.28 2064.29 2126.65 2054.15 2119.5 2049.02C2112.35 2043.89 2100.2 2034.96 2092.5 2029.18C2084.8 2023.4 2070.85 2012.55 2061.5 2005.08C2052.16 1997.61 2038.22 1986.1 2030.54 1979.5C2022.85 1972.9 2011.37 1962.78 2005.03 1957.02C1998.69 1951.25 1986.36 1939.55 1977.64 1931.02C1968.91 1922.48 1955.35 1908.53 1947.49 1900C1939.63 1891.47 1927.49 1877.75 1920.5 1869.5C1913.52 1861.25 1901.86 1846.63 1894.59 1837C1887.32 1827.38 1875.71 1810.95 1868.8 1800.5C1861.88 1790.05 1852.54 1775.2 1848.03 1767.5C1843.53 1759.8 1834.51 1742.7 1827.99 1729.5C1821.48 1716.3 1813.02 1697.63 1809.2 1688C1805.37 1678.38 1799.7 1662.63 1796.58 1653C1793.47 1643.38 1788.71 1626.5 1786 1615.5C1783.28 1604.5 1779.93 1589.2 1778.55 1581.5C1777.17 1573.8 1775.38 1562.33 1774.57 1556C1773.77 1549.67 1772.53 1538.65 1771.82 1531.5C1771.06 1523.8 1770.53 1504.83 1770.52 1485C1770.52 1465.1 1771.04 1445.82 1771.82 1437.5C1772.54 1429.8 1774.24 1415.17 1775.6 1405C1776.97 1394.83 1780.07 1376.6 1782.51 1364.5C1784.94 1352.4 1789.23 1333.95 1792.02 1323.5C1794.82 1313.05 1800.86 1293.25 1805.44 1279.5C1810.03 1265.75 1816.92 1246.63 1820.76 1237C1824.6 1227.38 1831.22 1211.63 1835.48 1202C1839.73 1192.38 1849.23 1172.58 1856.58 1158C1863.93 1143.42 1875.74 1121.38 1882.82 1109C1889.9 1096.63 1899.88 1079.75 1904.99 1071.5C1910.11 1063.25 1916.37 1053.35 1918.91 1049.5C1921.45 1045.65 1930.3 1034.63 1938.57 1025C1946.84 1015.38 1962.79 996.48 1974 983C1985.22 969.52 2004.81 945.45 2017.54 929.5C2030.27 913.55 2048.52 890.31 2058.09 877.85C2067.67 865.39 2083.41 844.47 2093.07 831.35C2102.73 818.23 2117.34 798.05 2125.52 786.5C2133.71 774.95 2149.93 751.33 2161.58 734C2173.22 716.67 2187.9 694.4 2194.2 684.5C2200.5 674.6 2209.94 659.52 2215.18 651C2220.42 642.48 2229.88 626.73 2236.2 616C2242.53 605.27 2253.34 586.38 2260.22 574C2267.11 561.63 2278.4 540.7 2285.31 527.5C2292.23 514.3 2303.25 492.25 2309.81 478.5C2316.38 464.75 2326.24 443.38 2331.74 431C2337.23 418.63 2346.48 396.57 2352.29 382C2358.1 367.43 2365.76 347.4 2369.31 337.5C2372.87 327.6 2378.78 310.27 2382.46 299C2386.14 287.73 2391.84 269.05 2395.12 257.5C2398.41 245.95 2403.31 227.5 2406.02 216.5C2408.74 205.5 2413.19 185.25 2415.92 171.5C2418.64 157.75 2422.23 137.5 2423.89 126.5C2425.54 115.5 2427.6 100.2 2428.46 92.5C2429.32 84.8 2430.68 70.63 2431.47 61C2432.27 51.38 2433.22 35.17 2433.58 25C2434.04 12.1 2434.69 5.52 2435.71 3.25L2437.18 0ZM2528 2584.19C2542.57 2584.09 2561.93 2584.46 2571 2585.02C2580.07 2585.58 2594.47 2586.72 2603 2587.57C2611.53 2588.41 2626.15 2590.19 2635.5 2591.52C2644.85 2592.85 2660.38 2595.55 2670 2597.52C2679.63 2599.49 2696.5 2603.38 2707.5 2606.17C2718.5 2608.95 2732.68 2612.79 2739 2614.7C2745.32 2616.6 2756.35 2620.19 2763.5 2622.67C2770.65 2625.15 2783.93 2630.12 2793 2633.71C2802.07 2637.3 2815.57 2642.92 2823 2646.2C2830.43 2649.47 2845.5 2656.77 2856.5 2662.4C2867.5 2668.04 2883.25 2676.61 2891.5 2681.45C2899.75 2686.29 2914.82 2695.72 2925 2702.42C2935.18 2709.11 2950.03 2719.5 2958 2725.51C2965.97 2731.52 2979.24 2742.07 2987.47 2748.97C2995.71 2755.86 3007.41 2766.06 3013.47 2771.63C3019.54 2777.21 3030.87 2788.23 3038.65 2796.13C3046.43 2804.04 3056.78 2815 3061.66 2820.5C3066.53 2826 3074.43 2835.22 3079.22 2841C3084.01 2846.78 3091.8 2856.45 3096.54 2862.5C3101.27 2868.55 3112.04 2883.85 3120.47 2896.5C3128.9 2909.15 3139.74 2926.25 3144.56 2934.5C3149.38 2942.75 3157.05 2956.7 3161.6 2965.5C3166.16 2974.3 3173.22 2988.93 3177.29 2998C3181.36 3007.07 3187.3 3021.03 3190.49 3029C3193.68 3036.97 3198.73 3050.47 3201.71 3059C3204.69 3067.53 3209.52 3083.28 3212.44 3094C3215.37 3104.72 3220.5 3126.1 3223.84 3141.5C3227.19 3156.9 3231.1 3176.47 3232.53 3185C3233.97 3193.53 3236.26 3208.15 3237.62 3217.5C3239.03 3227.13 3240.35 3241.87 3240.68 3251.5C3241.03 3261.63 3240.8 3273.35 3240.1 3280.5C3239.46 3287.1 3237.61 3299.03 3235.98 3307C3234.35 3314.97 3231.18 3327.57 3228.93 3335C3226.69 3342.43 3222.47 3355.03 3219.57 3363C3216.67 3370.97 3211.94 3383.13 3209.06 3390C3206.18 3396.88 3200.9 3408.35 3197.31 3415.5C3193.73 3422.65 3188.3 3432.78 3185.24 3438C3182.19 3443.22 3176.09 3452.9 3171.69 3459.5C3167.29 3466.1 3160.42 3475.78 3156.43 3481C3152.43 3486.22 3145.59 3494.78 3141.23 3500C3136.87 3505.22 3125.24 3517.77 3115.4 3527.89C3105.55 3538 3091.03 3552.17 3083.12 3559.39C3075.21 3566.6 3062.39 3577.79 3054.62 3584.26C3046.85 3590.73 3034.2 3600.63 3026.5 3606.26C3018.8 3611.89 3002.38 3623.26 2990 3631.51C2977.63 3639.77 2960.07 3650.99 2951 3656.44C2941.93 3661.89 2927.75 3669.85 2919.5 3674.12C2911.25 3678.4 2899.78 3684 2894 3686.56C2888.22 3689.12 2874.28 3694.29 2863 3698.05C2851.72 3701.81 2831.47 3707.83 2818 3711.42C2804.53 3715.02 2774.82 3722.52 2752 3728.1C2729.18 3733.68 2708.7 3738.25 2706.5 3738.27C2704.22 3738.29 2700.99 3737.43 2699 3736.26C2697.07 3735.14 2694.12 3732.71 2692.44 3730.86C2690.69 3728.94 2689.07 3725.79 2688.65 3723.5C2688.06 3720.31 2688.38 3718.58 2690.21 3715.01C2692.05 3711.39 2694.84 3708.85 2704.5 3702.01C2711.1 3697.33 2720.04 3690.13 2724.37 3686C2728.71 3681.88 2735.16 3674.9 2738.71 3670.5C2742.26 3666.1 2749.36 3656.2 2754.48 3648.5C2759.6 3640.8 2766.47 3629.55 2769.75 3623.5C2773.02 3617.45 2778 3607.32 2780.81 3601C2783.62 3594.68 2787.94 3583.43 2790.42 3576C2792.89 3568.57 2796.96 3554.51 2799.46 3544.75C2801.96 3534.99 2805.1 3520.59 2806.45 3512.75C2807.8 3504.91 2809.49 3493.1 2810.2 3486.5C2810.98 3479.32 2811.49 3462.44 2811.48 3444.5C2811.47 3426.99 2810.93 3409.92 2810.2 3403.5C2809.5 3397.45 2808.06 3387.55 2807 3381.5C2805.93 3375.45 2803.04 3362.4 2800.58 3352.5C2798.12 3342.6 2793.81 3327.3 2791.01 3318.5C2788.2 3309.7 2784.26 3298 2782.25 3292.5C2780.23 3287 2775.57 3276.43 2771.88 3269C2768.2 3261.57 2761.51 3249.65 2757.02 3242.5C2752.52 3235.35 2744.67 3223.65 2739.57 3216.5C2734.46 3209.35 2726.09 3198.1 2720.97 3191.5C2715.84 3184.9 2707.41 3174.55 2702.22 3168.5C2697.03 3162.45 2687.1 3151.46 2680.14 3144.07C2673.19 3136.68 2660.75 3124.36 2652.5 3116.67C2644.25 3108.99 2633.22 3099.12 2628 3094.74C2622.78 3090.35 2611.3 3081.36 2602.5 3074.75C2593.7 3068.13 2578.18 3057.2 2568 3050.46C2557.82 3043.71 2543.88 3034.96 2537 3031C2530.13 3027.05 2515.05 3019.16 2503.5 3013.46C2491.95 3007.77 2474.4 2999.66 2464.5 2995.44C2454.6 2991.22 2436.6 2984.48 2424.5 2980.46C2412.4 2976.43 2395.75 2971.33 2387.5 2969.12C2379.25 2966.91 2365.53 2963.52 2357 2961.59C2348.47 2959.65 2334.53 2956.94 2326 2955.56C2317.47 2954.18 2302.4 2952.16 2292.5 2951.07C2282.6 2949.98 2266.18 2948.55 2256 2947.9C2244.64 2947.18 2227.08 2946.95 2210.5 2947.31C2195.65 2947.63 2176.07 2948.6 2167 2949.46C2157.93 2950.32 2145.1 2951.71 2138.5 2952.56C2131.9 2953.4 2119.75 2955.21 2111.5 2956.58C2103.25 2957.95 2087.28 2961.13 2076 2963.63C2064.72 2966.14 2049.65 2969.95 2042.5 2972.11C2035.35 2974.26 2023.88 2978.12 2017 2980.67C2010.13 2983.21 1999.55 2987.54 1993.5 2990.27C1987.45 2993 1976.65 2998.17 1969.5 3001.75C1962.35 3005.33 1945.25 3014.33 1931.5 3021.75C1917.75 3029.17 1904.92 3035.45 1903 3035.71C1901.08 3035.98 1897.7 3036.87 1895.5 3037.71C1892.91 3038.68 1890.09 3038.99 1887.5 3038.58C1885.3 3038.23 1882.38 3037.12 1881 3036.12C1879.63 3035.12 1877.71 3032.65 1876.75 3030.65C1875.79 3028.64 1875 3025.65 1875 3024C1875 3022.35 1877.73 3014.36 1881.08 3006.25C1884.42 2998.14 1891.54 2982.95 1896.9 2972.5C1902.25 2962.05 1912.71 2943.38 1920.13 2931C1927.56 2918.63 1938.28 2901.53 1943.96 2893C1949.64 2884.47 1957.97 2872.55 1962.46 2866.5C1966.96 2860.45 1975.07 2850.1 1980.49 2843.5C1985.9 2836.9 1995.84 2825.43 2002.56 2818C2009.29 2810.57 2022.38 2797.05 2031.65 2787.94C2040.92 2778.83 2053.9 2766.68 2060.5 2760.92C2067.1 2755.17 2078.13 2745.94 2085 2740.4C2091.88 2734.87 2102.68 2726.5 2109 2721.8C2115.32 2717.1 2127.7 2708.54 2136.5 2702.78C2145.3 2697.02 2158.13 2688.94 2165 2684.82C2171.88 2680.71 2182.45 2674.62 2188.5 2671.29C2194.55 2667.96 2205.13 2662.42 2212 2658.98C2218.88 2655.54 2231.03 2649.83 2239 2646.29C2246.97 2642.75 2260.93 2636.91 2270 2633.32C2279.07 2629.74 2293.03 2624.57 2301 2621.86C2308.97 2619.14 2321.8 2615.09 2329.5 2612.86C2337.2 2610.64 2352.5 2606.62 2363.5 2603.94C2374.5 2601.26 2391.82 2597.51 2402 2595.6C2412.18 2593.7 2427.7 2591.22 2436.5 2590.11C2445.3 2588.99 2460.82 2587.38 2471 2586.54C2481.18 2585.69 2492.2 2584.86 2495.5 2584.69C2498.8 2584.52 2513.43 2584.3 2528 2584.19Z" />
</svg>