<svg xmlns="http://www.w3.org/2000/svg" viewBox="0 0 80 80" width="80" height="80">
	
	<path id="Path 0" fill-rule="evenodd" class="shp0" d="M63.5 4.5L63.75 6.75C63.89 7.99 63.36 9.67 62.57 10.5C61.79 11.32 60.66 12 60.07 12C59.44 12 59.01 14.16 59.07 22.5L51.03 29.25C46.61 32.96 42.99 36.79 42.98 37.75C42.97 38.71 44.2 40.68 45.73 42.12C47.25 43.56 49.74 45.47 51.25 46.37C52.76 47.27 54 48.56 53.99 49.25C53.99 49.94 54.75 51.63 55.69 53C56.62 54.38 57.48 56.63 57.59 58C57.7 59.38 57.99 61.4 58.24 62.5C58.5 63.6 59.78 64.74 61.1 65.04C63.04 65.48 63.55 66.29 64 73L12 73L12.02 70.25C12.02 68.74 12.36 66.99 12.77 66.37C13.17 65.74 14.36 65.07 15.41 64.87C16.45 64.66 17.51 63.6 17.76 62.5C18.01 61.4 18.3 59.38 18.41 58C18.52 56.63 19.38 54.38 20.31 53C21.25 51.63 22.01 49.94 22.01 49.25C22 48.56 23.24 47.27 24.75 46.37C26.26 45.47 28.75 43.56 30.27 42.12C31.8 40.68 33.03 38.71 33.02 37.75C33.01 36.79 29.39 32.96 16.93 22.5L16.97 17.25C16.99 14.36 16.55 12 16 12C15.45 12 14.32 11.32 13.5 10.5C12.68 9.68 11.93 8.18 11.83 7.17C11.74 6.16 12.05 5.03 12.52 4.65C12.98 4.27 24.65 4.09 63.5 4.5ZM33.98 30.25C35.69 32.19 35.96 33.98 35.98 43.25L36 54C28.64 58.47 26.16 60.5 25.75 61.39C25.34 62.27 25.23 63.45 25.5 64C25.79 64.58 31 65 38 65C45 65 50.21 64.58 50.5 64C50.77 63.45 50.66 62.27 50.25 61.39C49.84 60.5 47.36 58.47 44.75 56.89L40 54C40.04 33.98 40.31 32.19 42.02 30.25C43.11 29.01 43.77 27.55 43.5 27C43.23 26.45 40.77 26 38.05 26C35.33 26 32.85 26.45 32.55 27C32.25 27.55 32.89 29.01 33.98 30.25Z" />
</svg>