<svg xmlns="http://www.w3.org/2000/svg" viewBox="0 0 122 122" width="122" height="122">
	
	<path id="weapons" fill-rule="evenodd" class="shp0" d="M113.92 0.03C116.87 0.04 119.13 0.66 120.28 1.78C121.57 3.03 122.06 5.01 122.04 9C122.02 13.24 121.56 14.9 120.01 16.25C118.85 17.26 116.42 17.99 114.25 17.98C111.46 17.96 109.8 18.67 107.77 20.73C106.27 22.25 105.03 24.06 105.02 24.75C105.01 25.44 101.85 29.38 98 33.5C92.34 39.57 91 41.62 90.98 44.25C90.96 46.5 91.81 48.34 93.73 50.23C95.53 52.01 97.55 52.95 99.5 52.94C101.15 52.92 103.17 53.64 104 54.54C105.23 55.87 105.27 56.52 104.25 58.08C103.56 59.14 102.99 60.56 102.98 61.25C102.97 61.94 101.73 63.75 100.23 65.27C98.73 66.8 97.05 68.04 96.5 68.03C95.95 68.03 93.03 65.54 90 62.5C86.97 59.46 83.95 56.98 83.29 56.99C82.62 56.99 71.01 68.14 57.49 81.75C43.97 95.36 30.57 108.42 27.7 110.77C24.84 113.11 21.94 115.02 21.25 115.02C20.56 115.01 18.54 116.01 16.75 117.25C14.96 118.49 13.28 119.77 13 120.11C12.72 120.44 9.69 121 0 122L0.61 115.75C0.94 112.31 1.83 108.83 2.58 108C3.33 107.17 3.94 105.83 3.93 105C3.92 104.17 4.63 102.83 5.5 102C6.37 101.17 7.07 99.71 7.04 98.75C7.02 97.79 7.45 97 8 97C8.55 97 9.11 96.36 9.25 95.59C9.39 94.81 21.76 81.76 36.75 66.59C51.74 51.41 64 38.33 64 37.5C64 36.67 61.98 33.98 59.5 31.5C57.02 29.02 55.01 26.44 55.03 25.75C55.04 25.06 55.67 23.71 56.43 22.75C57.19 21.79 58.64 20.99 59.66 20.97C60.67 20.96 62.17 20.25 63 19.39C63.99 18.37 65.44 18.04 67.25 18.42C69.58 18.91 69.99 19.5 69.97 22.25C69.94 24.37 70.81 26.45 72.47 28.25C73.86 29.76 75.34 31 75.75 31.01C76.16 31.01 78.3 30.1 80.5 28.98C82.7 27.86 86.42 25.05 88.76 22.72C91.3 20.21 93.02 19.11 93 20C92.99 20.82 95.69 18.8 99 15.5C103.42 11.09 104.97 8.85 104.82 7.06C104.7 5.62 105.58 3.69 106.98 2.31C108.76 0.56 110.46 0.01 113.92 0.03ZM67 9.55C86.98 9.77 92.66 10.12 93.23 11.17C93.64 11.9 93.98 13.06 93.98 13.75C93.99 14.44 93.21 15.31 92.25 15.7C91.29 16.08 90.05 16.73 89.5 17.14C88.95 17.54 86.47 19.69 84 21.9C81.53 24.12 78.6 25.94 77.5 25.96C75.79 25.99 75.54 25.42 75.75 22C75.92 19.31 75.59 18.01 74.75 18.04C74.06 18.07 72.83 17.37 72 16.5C70.96 15.39 68.75 14.92 64.75 14.96C59.29 15 58.75 15.24 53.96 19.75C50.48 23.03 48.93 25.27 48.95 27C48.96 28.62 50.57 31.09 53.5 34C55.99 36.48 58.02 39.06 58.01 39.75C58.01 40.44 48.44 50.24 36.75 61.53C25.06 72.83 15.16 82.05 14.75 82.03C14.34 82.02 13.1 80.42 12 78.5C10.12 75.21 10 73.19 10.03 45.25C10.05 18.46 10.22 15.32 11.78 13.72C12.95 12.51 14.96 11.95 18.05 11.97C20.55 11.99 23.03 11.57 23.55 11.05C24.07 10.52 28.32 9.91 33 9.68C37.67 9.45 52.98 9.4 67 9.55ZM106.25 34.03C106.66 34.01 107 37.38 107 41.5C107 45.63 106.55 49.23 106 49.5C105.45 49.77 104.83 49.66 104.62 49.25C104.41 48.84 102.38 48.16 100.12 47.75C97.85 47.34 96 46.44 96.01 45.75C96.01 45.06 96.8 43.33 97.76 41.9C98.72 40.46 100.85 38.12 102.5 36.68C104.15 35.24 105.84 34.05 106.25 34.03ZM84.49 65.98C85.6 65.97 88.08 67.56 90 69.5C92.45 71.98 94.4 73.04 96.5 73.04C98.4 73.05 100.41 72.12 102 70.5C103.38 69.1 105.29 67.96 106.25 67.97C107.59 67.99 108.01 68.87 108.04 71.75C108.07 73.93 107.42 76.13 106.5 77C105.63 77.83 104.95 79.85 105 81.5C105.05 83.15 104.37 85.17 103.5 86C102.63 86.83 101.93 88.29 101.96 89.25C101.98 90.21 101.55 91 101 91C100.45 91 100 91.67 100 92.5C100 93.33 95.61 98.06 90.25 103.02C84.89 107.99 80.05 112.03 79.5 112.01C78.95 111.98 77.38 113.31 76 114.94C74.63 116.58 72.83 117.95 72 117.98C71.17 118.02 69.67 118.83 68.65 119.78C67.24 121.08 65.02 121.5 59.57 121.5C54.01 121.5 51.97 121.1 50.68 119.75C49.76 118.79 48.44 118.01 47.75 118.02C47.06 118.02 44.7 116.22 38.5 109.96L60.49 87.98C74.4 74.08 83.22 65.99 84.49 65.98Z" />
</svg>